<?xml version="1.0" encoding="UTF-8"?>
<svg id="Layer_1" data-name="Layer 1" xmlns="http://www.w3.org/2000/svg" version="1.1" viewBox="0 0 1920 1080">
  <defs>
    <style>
      .cls-1 {
        fill: #000;
      }

      .cls-1, .cls-2 {
        stroke-width: 0px;
      }

      .cls-2 {
        fill: #fff;
      }
    </style>
  </defs>
  <path class="cls-2" d="M2067,1671.22H-147c0-738,0-1476,0-2214,738,0,1476,0,2214,0,0,738,0,1476,0,2214ZM627.91,950.92V126.31h634.8c0,26.82,0,51.84,0,76.86,0,123.71.06,247.42-.08,371.13-.02,14.3.95,28.44,19.72,26.97,15.28-1.2,15.85-13.99,15.83-26.54-.18-155.37-.1-310.75-.17-466.12,0-6.38-.82-12.75-1.27-19.33-15.7,0-29.55,0-43.4,0-206.18,0-412.37.27-618.55-.18-42.73-.09-43.35-1.33-43.39,42.49-.29,279.82-.29,559.63-.33,839.45,0,4.19.74,8.39,1.37,15.08,23.89,0,46.68,1.33,69.14-.84,6.41-.62,11.85-11.36,17.74-17.45-6.37-5.64-11.91-14-19.3-16.22-9.41-2.83-20.31-.69-32.09-.69ZM1262.71,950.89c-12.19,0-20.98,0-29.78,0-159.77,0-319.53.06-479.3-.11-12.91-.01-24.76,1.65-25.24,17.2-.48,15.52,10.78,18.39,24.04,18.36,151.66-.29,303.33-.39,455-.52,29.85-.03,59.69,0,90.62,0,0-108.43.34-211.42-.74-314.41-.07-7.04-9.94-18.74-16.72-19.93-13.24-2.32-18.06,8.53-17.96,21.36.25,35.34.08,70.68.08,106.02,0,56.53,0,113.05,0,172.03Z"/>
  <path class="cls-1" d="M627.91,950.92c11.78,0,22.68-2.14,32.09.69,7.39,2.22,12.94,10.59,19.3,16.22-5.89,6.1-11.32,16.84-17.74,17.45-22.46,2.16-45.25.84-69.14.84-.63-6.69-1.37-10.89-1.37-15.08.04-279.82.04-559.63.33-839.45.05-43.82.66-42.59,43.39-42.49,206.18.46,412.37.19,618.55.18,13.85,0,27.7,0,43.4,0,.45,6.58,1.27,12.95,1.27,19.33.07,155.37,0,310.75.17,466.12.01,12.54-.55,25.34-15.83,26.54-18.77,1.47-19.74-12.67-19.72-26.97.15-123.71.08-247.42.08-371.13,0-25.02,0-50.04,0-76.86h-634.8v824.61Z"/>
  <path class="cls-1" d="M1262.71,950.89c0-58.98,0-115.5,0-172.03,0-35.34.17-70.68-.08-106.02-.09-12.83,4.72-23.68,17.96-21.36,6.77,1.19,16.65,12.89,16.72,19.93,1.08,102.98.74,205.98.74,314.41-30.93,0-60.77-.02-90.62,0-151.67.13-303.33.22-455,.52-13.26.03-24.52-2.84-24.04-18.36.48-15.55,12.33-17.21,25.24-17.2,159.77.17,319.53.11,479.3.11,8.79,0,17.59,0,29.78,0Z"/>
</svg>