<?xml version="1.0" encoding="UTF-8"?>
<svg id="Layer_1" data-name="Layer 1" xmlns="http://www.w3.org/2000/svg" version="1.1" viewBox="0 0 1920 1080">
  <defs>
    <style>
      .cls-1 {
        fill: #000;
      }

      .cls-1, .cls-2 {
        stroke-width: 0px;
      }

      .cls-2 {
        fill: #fff;
      }
    </style>
  </defs>
  <path class="cls-2" d="M1140,720h-360c0-120,0-240,0-360,120,0,240,0,360,0,0,120,0,240,0,360ZM905.28,602.64v-134.35h103.22c0,4.37,0,8.45,0,12.52,0,20.16.01,40.31-.01,60.47,0,2.33.16,4.63,3.21,4.39,2.48-.2,2.58-2.28,2.57-4.32-.03-25.31-.02-50.63-.03-75.94,0-1.04-.13-2.08-.21-3.15-2.55,0-4.81,0-7.06,0-33.53,0-67.05.04-100.58-.03-6.95-.02-7.05-.22-7.05,6.92-.05,45.59-.05,91.18-.05,136.77,0,.68.12,1.37.22,2.46,3.89,0,7.59.22,11.24-.14,1.04-.1,1.93-1.85,2.88-2.84-1.04-.92-1.94-2.28-3.14-2.64-1.53-.46-3.3-.11-5.22-.11ZM1008.5,602.64c-1.98,0-3.41,0-4.83,0-25.98,0-51.96,0-77.93-.02-2.1,0-4.03.26-4.11,2.79-.08,2.53,1.74,3,3.9,3,24.66-.05,49.32-.06,73.98-.08,4.85,0,9.71,0,14.74,0,0-17.66.05-34.44-.12-51.22-.01-1.15-1.61-3.06-2.71-3.26-2.17-.39-2.94,1.39-2.93,3.47.04,5.16.01,10.32.01,15.47,0,9.81,0,19.62,0,29.83ZM955.18,592.17c-.77,2.2-1.66,4.07-2,6.04-.15.87.7,2.05,1.39,2.84.2.23,1.88-.25,2.04-.69.35-1.01.36-2.23.16-3.31-.25-1.35-.84-2.63-1.59-4.88ZM962.46,592.2c-2.05.47-3.22.71-4.35,1.06-.09.03.07.87.12,1.33.67-.09,1.35-.18,2.24-.3-.46,2.38-.87,4.51-1.29,6.65.41.08.81.17,1.22.25.61-2.65,1.22-5.3,2.07-8.99ZM951.41,592.66c-1.71.89-1.83,5.48,0,9.05v-9.05Z"/>
  <path class="cls-1" d="M905.28,602.64c1.91,0,3.69-.35,5.22.11,1.2.36,2.1,1.72,3.14,2.64-.96.99-1.84,2.74-2.88,2.84-3.65.35-7.36.14-11.24.14-.1-1.09-.22-1.77-.22-2.46,0-45.59,0-91.18.05-136.77,0-7.14.11-6.94,7.05-6.92,33.53.07,67.05.03,100.58.03,2.25,0,4.5,0,7.06,0,.07,1.07.21,2.11.21,3.15.01,25.31,0,50.63.03,75.94,0,2.04-.09,4.13-2.57,4.32-3.05.24-3.21-2.06-3.21-4.39.02-20.16.01-40.31.01-60.47,0-4.08,0-8.15,0-12.52h-103.22v134.35Z"/>
  <path class="cls-1" d="M1008.5,602.64c0-10.22,0-20.02,0-29.83,0-5.16.03-10.32-.01-15.47-.02-2.09.76-3.87,2.93-3.47,1.1.2,2.7,2.11,2.71,3.26.18,16.78.12,33.56.12,51.22-5.04,0-9.89,0-14.74,0-24.66.02-49.32.04-73.98.08-2.16,0-3.98-.47-3.9-3,.08-2.53,2.02-2.8,4.11-2.79,25.98.03,51.96.02,77.93.02,1.43,0,2.86,0,4.83,0Z"/>
  <path class="cls-1" d="M955.18,592.17c.76,2.25,1.35,3.53,1.59,4.88.2,1.07.19,2.3-.16,3.31-.16.45-1.84.92-2.04.69-.69-.79-1.54-1.97-1.39-2.84.34-1.97,1.23-3.84,2-6.04Z"/>
  <path class="cls-1" d="M962.46,592.2c-.85,3.69-1.46,6.34-2.07,8.99-.41-.08-.81-.17-1.22-.25.41-2.14.83-4.27,1.29-6.65-.89.12-1.56.21-2.24.3-.05-.46-.21-1.3-.12-1.33,1.14-.35,2.31-.59,4.35-1.06Z"/>
  <path class="cls-1" d="M951.41,592.66v9.05c-1.83-3.56-1.71-8.16,0-9.05Z"/>
</svg>