<?xml version="1.0" encoding="UTF-8"?>
<svg id="Layer_1" data-name="Layer 1" xmlns="http://www.w3.org/2000/svg" version="1.1" viewBox="0 0 1920 1080">
  <defs>
    <style>
      .cls-1 {
        fill: #000;
      }

      .cls-1, .cls-2 {
        stroke-width: 0px;
      }

      .cls-2 {
        fill: #fff;
      }
    </style>
  </defs>
  <path class="cls-2" d="M600,180c240,0,480,0,720,0,0,240,0,480,0,720-240,0-480,0-720,0,0-240,0-480,0-720ZM1133.81,861.55c.27.99.38,1.21.38,1.44.02,2.64.04,5.28.04,7.92,0,5.16.89,6.06,6,6.06,35.16,0,70.32,0,105.48,0q5.88,0,5.88-5.77c0-130.79,0-261.59,0-392.38,0-.72-.02-1.44,0-2.16.1-2.6-1.21-3.63-3.73-3.62-28.92.02-57.84.03-86.76,0-2.73,0-3.92,1.15-3.86,3.87.08,3.91.02,7.83.02,11.99h-4.34c-15.24,0-30.48,0-45.72,0q-6.1,0-6.1,6.27c0,6.48,0,12.96,0,19.44v15.33h-4.24c-14.88,0-29.76.02-44.64-.02-2.38,0-4.4.25-4.39,3.31,0,14.64-.05,29.28.12,43.92.01,1.07,1.65,2.99,2.59,3.03,6.83.26,13.68.25,20.51.02.92-.03,2.48-1.74,2.49-2.69.02-.96-1.37-2.22-2.44-2.82-.82-.46-2.11-.11-3.19-.11-4.74,0-9.48,0-14.12,0v-38.63h27.87v3.45c0,11.76,0,23.52,0,35.28,0,.72-.26,1.6.05,2.13.75,1.26,1.78,2.35,2.69,3.51,1-1.19,2.86-2.37,2.88-3.58.22-12.36.13-24.72.13-37.08,0-1.26,0-2.53,0-3.79h24.98v38.7c-4.28,0-8.34.04-12.4-.02-2.19-.03-3.96.52-3.87,3.04.08,2.27,1.78,2.78,3.8,2.75,4.56-.06,9.12,0,13.68-.02,4.36-.01,4.77-.4,4.77-4.72,0-12,0-24,0-36v-3.92c1.73,0,2.92,0,4.12,0,.6,0,1.43.24,1.76-.06,1.02-.92,1.85-2.05,2.75-3.1-1.09-.86-2.15-2.42-3.28-2.48-5.57-.26-11.16-.12-16.67-.12v-35.04h34.8v35.04c-1.36,0-2.6-.34-3.47.08-1.29.63-2.31,1.81-3.44,2.75,1.1.97,2.06,2.43,3.34,2.81,1.66.49,3.57.03,5.36.14,3.05.19,4.32-1.08,4.28-4.19-.11-8.4-.04-16.8-.04-25.2,0-3.8,0-7.6,0-11.67,3.99,0,7.57-.08,11.14.03,2.94.09,4.09-1.22,4.01-4.1-.11-3.81-.03-7.62-.03-11.55h82.54v127.04h-104.85v-4.04c0-16.92-.02-33.84.02-50.76,0-2.15-.41-4-2.93-3.99-2.54.02-2.87,1.92-2.87,4.05.03,23.88.03,47.76,0,71.64,0,2.11.28,4.06,2.81,4.1,2.81.05,3.02-2.08,2.98-4.29-.06-3.54-.01-7.09-.01-10.57h104.88v40.56h-104.88c0-3.4-.04-6.52.01-9.63.03-2.15-.02-4.38-2.85-4.41-2.82-.04-2.94,2.15-2.94,4.33.02,18.6.02,37.2,0,55.8,0,2.13-.03,4.42,2.74,4.52,3.06.11,3.05-2.29,3.05-4.56-.03-12-.01-24-.01-36v-3.7h104.91v59.22h-104.91c0-1.68.36-3.24-.1-4.5-.44-1.21-1.73-2.12-2.64-3.16-1,1.07-2.86,2.13-2.88,3.22-.2,13.2-.2,26.4,0,39.59.02,1.09,1.87,2.16,2.86,3.24.92-1.16,2.57-2.27,2.64-3.47.3-5.02.13-10.07.13-15.11,0-4.52,0-9.03,0-13.54h104.94v40.06h-5.12c-33.6,0-67.2,0-100.8,0-4.36,0-4.76.4-4.77,4.71-.01,4.08.04,8.16-.02,12.24-.03,2.2.56,3.95,3.06,3.86,2.27-.09,2.77-1.8,2.74-3.82-.06-3.67-.02-7.34-.02-10.96h104.92v100.28h-105.64c0-3.95.23-7.67-.13-11.34-.12-1.24-1.66-3.32-2.61-3.36-7.07-.29-14.15-.25-21.23-.1-2.24.05-3.22,2-2.51,3.81.45,1.14,2.32,2.43,3.54,2.42,5.56-.04,11.12-.51,16.75-.83ZM828.96,315.54v4.04c0,22.8,0,45.6,0,68.39,0,.96-.33,2.14.12,2.82.63.96,1.83,2.15,2.78,2.14.95,0,2.08-1.22,2.76-2.17.4-.56.1-1.63.1-2.47,0-27.72,0-55.43,0-83.15,0-.6.23-1.37-.05-1.77-.79-1.12-1.8-2.1-2.72-3.13-1,1.08-2.53,2.02-2.86,3.27-.49,1.85-.13,3.93-.13,5.9h-103.46v-98.2h103.46c0,1.93.12,3.61-.02,5.27-.29,3.44,1.2,4.7,4.61,4.6,5.99-.17,12-.09,18-.03,2.15.02,4-.41,3.99-2.92-.01-2.54-1.91-2.9-4.04-2.88-5.48.06-10.97.02-16.77.02,0-1.65,0-2.94,0-4.23q0-5.85-5.8-5.85c-34.56,0-69.11.04-103.67-.05-5.19-.01-5.79.82-5.77,5.61.09,29.64.04,59.27.04,88.91v4.17c-1.66,0-2.95,0-4.24,0-10.44,0-20.88.05-31.32-.03-2.9-.02-4.07,1.13-4.07,4.04.04,43.2.04,86.39,0,129.59,0,2.97,1.33,3.97,4.16,3.95,10.44-.08,20.88-.03,31.32-.03,1.28,0,2.56,0,3.91,0v61.2c-12.22,0-24.2.08-36.18-.05-3.37-.04-4.68,1.09-4.67,4.56.09,30.6.09,61.19,0,91.79,0,3.48,1.33,4.55,4.68,4.55,39.6-.07,79.19-.04,118.79-.05,4.34,0,4.73-.4,4.74-4.75,0-20.4,0-40.8,0-61.19v-3.89c8.37,0,16.16-.06,23.95.03,2.84.03,4.24-.99,4.15-3.96-.1-3.6-.07-7.2,0-10.8.04-2.16-.45-4-2.98-3.93-2.54.07-2.86,1.99-2.81,4.1.07,2.84.02,5.68.02,8.79h-4.3c-25.92,0-51.83,0-77.75,0-.72,0-1.44.02-2.16,0-2.1-.08-3.86.78-3.45,2.95.21,1.1,2.06,2,3.31,2.76.52.32,1.41.05,2.13.05,16.68,0,33.36,0,50.03,0h3.86v63.91h-45.11c0-1.45,0-2.74,0-4.02,0-16.08-.01-32.16.01-48.23,0-2.16-.06-4.37-2.88-4.38-2.82,0-2.91,2.19-2.9,4.36.02,16.08.01,32.16.01,48.23,0,1.29,0,2.57,0,4h-24.23v-63.87c1.92,0,3.7.35,5.23-.11,1.2-.36,2.1-1.73,3.14-2.65-1.08-1-2.01-2.47-3.27-2.87-1.58-.5-3.44-.12-5.18-.12v-31.69c1.94,0,3.81.36,5.44-.12,1.17-.35,2.02-1.8,3.01-2.77-1-.95-1.86-2.4-3.04-2.75-1.63-.48-3.49-.12-5.37-.12v-34.57c1.88,0,3.67.39,5.16-.12,1.27-.43,2.18-1.89,3.25-2.9-1.04-.91-1.96-2.29-3.16-2.63-1.62-.46-3.47-.11-5.2-.11v-134.46h103.41ZM948.02,714.24v-35.82h25.66c0,3.86,0,7.55,0,11.24,0,6.6-.14,13.2.13,19.79.05,1.15,1.8,2.23,2.76,3.34.95-1.12,2.14-2.13,2.78-3.41.43-.87.08-2.12.08-3.2,0-9.92,0-19.85,0-29.87h43.92c0,4.41-.23,8.61.14,12.75.11,1.26,1.89,2.38,2.9,3.56.91-1.17,2.51-2.29,2.6-3.52.31-4.66.1-9.35.13-14.03.02-3.25-1.54-4.81-4.79-4.77-2.45.03-4.91,0-7.25,0v-17.28c3.19,0,6.16-.04,9.14.01,2.11.03,3.84-.83,3.43-2.98-.21-1.1-2.07-2.52-3.32-2.67-3.19-.38-6.46-.13-9.7-.13-5.41,0-5.52.11-5.52,5.41,0,5.82,0,11.65,0,17.44h-34.33v-30.78c11.61,0,22.99-.02,34.37.02,2.24,0,4.31-.29,4.21-3.06-.1-2.52-2.09-2.75-4.17-2.74-9.96.04-19.92.02-29.88.02h-4.48v-30.76h33.56c0,1.37,0,2.54,0,3.71,0,5.4-.04,10.8.02,16.2.03,2.97,2.37,4.77,4.22,3.21,1.69-1.42,3.03-3.32,4.23-5.2.34-.54-.03-2.19-.57-2.53-3.53-2.2-1.85-5.33-1.96-8.27h6.6c-.28.22-.55.44-.83.65.88,1.4,1.47,3.58,2.71,4.05,2.31.88,3.95-1.1,4.21-3.18.52-4.1.68-8.27.61-12.41-.01-.74-1.94-2.16-2.75-2.01-1.06.19-2.28,1.49-2.71,2.59-.47,1.22-.11,2.75-.11,4.2h-7.74q-.53-6.97-7.6-6.97c-10.8,0-21.6.09-32.4-.04-4.78-.06-5.63.58-5.61,5.78.11,21.96.05,43.92.05,65.88v3.99c-8.17,0-15.84.13-23.5-.05-4.5-.1-5.36.92-5.35,5.32.07,63.72.05,127.43.05,191.15,0,.48.02.96,0,1.44-.11,2.51.99,3.76,3.59,3.75,26.88-.02,53.76-.02,80.63,0,2.59,0,3.67-1.21,3.63-3.73-.05-3.72-.06-7.44,0-11.16.03-2.03-.5-3.72-2.78-3.78-2.53-.07-3.06,1.72-3.02,3.9.06,2.94.02,5.89.02,8.82h-76.1v-59.31h75.38c0,10.46.02,20.65-.02,30.84,0,2.11.28,4.03,2.81,4.1,2.53.07,2.98-1.77,2.98-3.93-.03-23.52-.03-47.04,0-70.56,0-2.19-.54-3.96-3.05-3.86-2.27.08-2.75,1.79-2.75,3.81.04,9.84.02,19.68.02,29.52,0,1.27,0,2.54,0,3.77h-75.41v-55.66h75.41c0,1.29-.36,2.55.08,3.38.71,1.34,1.95,2.4,2.97,3.59.9-1.17,2.58-2.34,2.59-3.52.18-14.4.1-28.8.13-43.2,0-2.09-.69-3.64-2.94-3.61-2.27.03-2.89,1.65-2.85,3.71.07,3.24.02,6.48.02,9.72,0,7.88,0,15.76,0,23.7h-43.92c0-5.14-.04-10.05.02-14.95.02-2.08-.22-4.08-2.73-4.17-2.77-.11-3.09,1.95-3.06,4.2.06,4.99.02,9.98.02,14.87h-25.71v-20.59c6.54,0,12.88-.03,19.21.02,2.21.02,4.33-.2,4.26-3-.06-2.53-2.02-2.81-4.12-2.79-6.35.05-12.7.02-19.31.02ZM868.3,439.92c-.6,1.81-.98,3.14-1.48,4.42-.56,1.45-1.74,2.83-1.78,4.27-.19,6.71-.09,13.43-.09,20.15v6.96h-10.08c0-8.32-.03-16.46.02-24.59.01-2.15-.42-3.98-2.96-3.95-2.27.03-2.84,1.67-2.83,3.73.04,9,.04,18,0,27-.01,2.49.96,3.79,3.57,3.79,21.6-.02,43.19-.02,64.79,0,2.56,0,3.7-1.15,3.67-3.69-.05-4.2-.05-8.4,0-12.6.03-2.02-.47-3.73-2.74-3.82-2.5-.09-3.1,1.66-3.06,3.86.07,3.43.02,6.85.02,10.19h-44.43v-25.37h31.47c0,4.8-.17,9.36.13,13.89.07,1.09,1.71,2.09,2.62,3.12,1-.95,2.83-1.88,2.87-2.87.26-6.47.22-12.95.09-19.43-.05-2.41-2.26-3.41-4.31-2.54-1.96.83-4.09,1.67-6.16,1.73-6.83.21-13.68.08-20.51.08h-3.33v-4.32h4.07c12.6,0,25.2,0,37.79,0,5.28,0,6.18-.91,6.18-6.24,0-68.75,0-137.5,0-206.25v-4.64c.27.17.53.33.8.5,1.17-1.2,3.38-2.52,3.25-3.57-.17-1.43-2.11-2.66-3.29-3.97-.77-3.21-.76-6.93-.77-10.64,0-4.6-.34-4.95-4.9-4.95-20.76,0-41.51,0-62.27,0-.72,0-1.61-.25-2.12.07-1,.63-2.49,1.56-2.53,2.43-.09,1.61.47,3.41,1.3,4.82.23.39,2.37-.3,3.62-.57,1.34-.29,2.65-.95,3.98-.95,17.88-.06,35.76-.04,53.63-.04h3.34v23.04h-4.08c-18.96,0-37.91,0-56.87,0-4.81,0-5.09.28-5.09,5.12,0,45.59,0,91.19,0,136.78,0,.72-.27,1.62.07,2.12.71,1.06,1.9,2.77,2.6,2.64,1.15-.21,2.28-1.54,3-2.67.44-.68.09-1.87.09-2.83,0-43.67,0-87.35,0-131.02v-4.11h60.29v153.08h-4.06c-17.52,0-35.04,0-52.55,0-2.16,0-4.39-.32-6.45.13-1.14.25-1.99,1.82-2.97,2.8,1.01.94,1.93,2.05,3.08,2.76.61.38,1.64.07,2.48.07,18.84,0,37.67,0,56.51,0h3.92v40.04h-60.24c0-8.31-.03-16.35.02-24.38.01-2.12-.31-4.03-2.84-4.07-2.54-.04-2.96,1.82-2.95,3.96.04,8.76.08,17.52-.02,26.28-.04,3.03,1.07,4.38,4.19,4.29,4.53-.13,9.07-.03,14.3-.03ZM943.9,474.35c1.13-2.85,2.15-4.98,2.76-7.21.26-.96.04-2.48-.59-3.13-.64-.67-2.55-1.15-3.06-.72-1.91,1.62-4.42,2.98-3.95,6.27.27,1.88.04,3.83.05,5.75.01,4.58.35,4.93,4.92,4.93,16.32,0,32.64,0,48.95,0,4.91,0,5.17-.25,5.17-5.04,0-22.44,0-44.87,0-67.31v-3.97c7.83,0,15.13,0,22.44,0,4.57,0,4.92-.35,4.92-4.93,0-62.87,0-125.74,0-188.61,0-4.92-.24-5.17-5.04-5.17-18.12,0-36.23,0-54.35,0-7.68,0-15.36.04-23.04-.02-2.65-.02-4.05.94-3.99,3.74.07,3.6-.21,7.22.14,10.79.12,1.24,1.56,3.1,2.66,3.32,2.15.42,3.04-1.31,2.98-3.42-.05-1.56.15-3.14-.04-4.67-.41-3.25.99-4.04,4.09-4.02,22.44.12,44.87.06,67.31.06,1.13,0,2.27,0,3.33,0v60.96c-2.39.72-6.23-.98-6.18,3.19.05,4.06,3.94,2.26,6.13,3.05v120c-7.41,0-14.6.14-21.77-.06-3.58-.1-5.9.69-5.42,5.1h-4.14c-12.72,0-25.44,0-38.15,0-2.06,0-4.17.4-5.56-1.99-.33-.57-3.11-.6-3.25-.25-.72,1.76-1.39,3.77-1.17,5.59.11.92,2.06,2.13,3.3,2.3,2.55.36,5.18.11,7.73.11v17.28c-2.54,0-4.82.06-7.09-.02-2.11-.07-4.03.28-4.1,2.82-.06,2.53,1.78,3.02,3.94,2.97,2.76-.06,5.52-.01,8.28-.02,4.65,0,4.99-.33,4.99-4.85,0-5.96,0-11.92,0-17.94h34.99v30c-12.04,0-23.79.01-35.55-.01-2.15,0-4.38.02-4.42,2.85-.04,2.82,2.14,2.94,4.33,2.94,10.68-.03,21.36-.01,32.04-.01h3.68v29.27h-35.07c0-6.23-.05-12.22.02-18.2.03-2.71-1.48-4.82-3.73-3.64-2.33,1.22-4.16,3.95-5.4,6.42-.42.83,1.65,2.9,3.14,5.3v10.24h-7.25ZM1060.8,637.2c-2.92,0-5.41,0-7.91,0-4.8,0-5.05.26-5.05,5.16,0,49.32,0,98.64,0,147.95,0,.84-.3,1.87.08,2.48.67,1.07,1.94,2.74,2.64,2.6,1.14-.23,2.25-1.58,2.96-2.72.43-.69.09-1.87.09-2.83,0-36.48,0-72.96,0-109.43v-4.15h59.04v4.4c0,37.92,0,75.84,0,113.75,0,1.08-.34,2.36.13,3.19.56.98,1.81,2.15,2.76,2.15.95,0,2.14-1.2,2.75-2.17.44-.69.11-1.87.11-2.83,0-42.6,0-85.2,0-127.79,0-.72.27-1.62-.06-2.12-.75-1.15-1.79-2.1-2.71-3.13-1,1.08-2.47,2.01-2.87,3.28-.5,1.58-.12,3.45-.12,5.16h-58.81v-26.92h58.81c0,1.09.04,1.93,0,2.77-.12,2.11.27,4.06,2.8,4.11,2.81.05,2.99-2.08,2.99-4.28-.03-14.88-.05-29.76.01-44.64.01-2.71-.71-4.32-3.79-4.31-21,.04-42,.04-63,0-2.76,0-3.87,1.21-3.82,3.91.08,4.8.06,9.6,0,14.4-.02,2.14.41,4.01,2.95,3.96,2.54-.04,2.88-1.95,2.85-4.07-.07-4.04-.02-8.08-.02-12.18h58.75v34.11h-45.79c0-6.18-.02-12.15.01-18.13.01-2.24.11-4.69-2.99-4.63-2.81.05-2.81,2.32-2.8,4.46.04,5.99.01,11.98.01,18.5ZM749.58,834.96h-80.47c0-1.43.35-2.78-.09-3.78-.53-1.21-1.74-2.12-2.65-3.17-1,1.07-2.53,2-2.89,3.25-.5,1.78-.05,3.81-.15,5.72-.15,2.94,1.23,4.01,4.1,4,27.96-.05,55.91-.05,83.87,0,3.07,0,4.25-1.15,4.25-4.23-.05-38.03-.05-76.07,0-114.1,0-3.16-1.35-4.22-4.35-4.14-4.56.13-9.12.07-13.68.02-2.21-.03-4.33.2-4.26,3,.06,2.53,2.02,2.82,4.12,2.79,4.03-.06,8.07-.02,12.11-.02v28.62h-80.38c0-4.82-.04-9.46.02-14.11.02-2.08-.65-3.66-2.9-3.65-2.26,0-2.89,1.59-2.89,3.67.03,23.64.01,47.27.03,70.91,0,.8-.02,1.91.46,2.34.8.72,2.6,1.63,2.89,1.35,1.04-1.01,2.28-2.49,2.29-3.81.15-15.6.1-31.19.1-46.79,0-1.26,0-2.53,0-3.79h80.46v75.91ZM870,547.92c1.64,0,2.92,0,4.21,0,14.27,0,28.55-.03,42.82.02,2.58,0,4.11-.76,4.1-3.63-.03-13.91-.03-27.83,0-41.74,0-2.59-1.21-3.65-3.73-3.63-5.52.05-11.04.05-16.55,0-2.09-.02-4.07.24-4.14,2.77-.08,2.8,2.01,3.05,4.24,3.03,4.74-.06,9.49-.02,14.24-.02v37.23h-27.19v-3.74c0-11.4,0-22.79,0-34.19,0-2.26.41-5.03-2.98-4.97-3.08.06-2.79,2.64-2.78,4.81,0,10.44,0,20.87,0,31.31v6.74h-27.07v-37.19c5.21,0,10.12-.04,15.04.02,2.13.03,4.03-.33,4.04-2.87.02-2.51-1.84-2.95-3.98-2.93-5.64.06-11.28.11-16.91-.02-3.05-.07-4.29,1.11-4.27,4.21.09,13.55.09,27.11,0,40.66-.02,3.14,1.32,4.27,4.33,4.15,3.54-.13,7.09-.03,10.54-.03v35.79h-29.08v-34.72c1.62-1.32,3.03-2.22,4.05-3.45.3-.36-.36-2.29-.81-2.38-2.37-.49-4.86-.99-7.19-.66-.83.12-1.84,2.6-1.86,4.01-.15,11.15-.08,22.31-.08,33.47,0,1.26,0,2.53,0,3.95-2.68,0-4.83.05-6.98-.01-2.04-.06-3.71.52-3.76,2.8-.06,2.53,1.76,3,3.92,2.99,14.63-.03,29.27-.05,43.9.01,2.95.01,4.02-1.26,3.99-4.12-.09-7.56-.03-15.11-.03-22.67,0-4.88,0-9.77,0-15ZM1053.89,842.98v-30.1c5.92,0,11.56-.04,17.19.02,2.12.02,4.03-.33,4.05-2.86.02-2.51-1.83-2.95-3.98-2.93-6.24.05-12.48.14-18.71-.03-3.38-.09-4.69,1.11-4.66,4.57.13,13.43.05,26.87.05,40.3v4.14c-2.28,0-4.27-.37-6.03.12-1.27.35-2.22,1.84-3.32,2.82,1.14.94,2.15,2.35,3.44,2.7,1.76.47,3.73.12,5.91.12,0,4.44,0,8.49,0,12.54.01,4.34.4,4.74,4.75,4.74,20.27,0,40.54,0,60.81,0,4.53,0,5.83-1.45,4.92-5.91-.2-.99-1.15-2.17-2.06-2.55-.7-.29-2.38.25-2.73.9-1.09,2.03-2.77,1.81-4.54,1.81-17.15-.01-34.3,0-51.45,0h-3.75v-24.48h4.05c18.71,0,37.42-.02,56.13.02,2.6,0,4.47-.44,4.45-3.64-.05-11.51-.04-23.03,0-34.54,0-2.6-1.23-3.64-3.74-3.62-5.28.05-10.55.05-15.83,0-2.09-.02-4.06.25-4.13,2.78-.08,2.8,2.03,3.04,4.25,3.02,4.5-.06,9.01-.02,13.51-.02v30.02h-25.03v-3.74c0-9.24-.02-18.47.02-27.71,0-2.21-.19-4.33-3-4.27-2.53.05-2.82,2.01-2.8,4.11.06,5.4.02,10.79.02,16.19v15.48h-27.79ZM828.7,455.76v34.56h-4.19c-25.68,0-51.35,0-77.03,0-.96,0-2.11-.32-2.84.09-1.09.62-2.74,1.93-2.6,2.63.23,1.14,1.61,2.2,2.72,2.96.57.39,1.63.07,2.47.07,25.92,0,51.83,0,77.75,0h3.97c0,2.19,0,3.85,0,5.52,0,.84.04,1.68,0,2.52-.12,2.1.24,4.06,2.77,4.13,2.8.07,3.01-2.04,3.01-4.26-.02-32.88-.02-65.75,0-98.63,0-2.22-.21-4.35-3.01-4.25-2.8.1-2.78,2.34-2.78,4.49.03,13.44.01,26.88.01,40.32v4.09c-1.73,0-3.03,0-4.33,0-26.04,0-52.07,0-78.11-.01-2.25,0-4.68-.08-4.61,3.01.07,2.8,2.34,2.78,4.48,2.78,21.24-.02,42.47-.01,63.71-.01h18.59ZM1220.64,362.77c-1.55,3.05-2.91,5.74-4.64,9.16,3.51-1.75,6.23-3.11,9.21-4.6,2.67,8.43,5.25,16.55,8.07,25.45,2.94-9.01,5.62-17.22,8.35-25.59,3.15,1.61,5.84,2.99,9.24,4.73-1.84-3.52-3.26-6.23-4.83-9.25,8.38-2.7,16.48-5.3,25.31-8.14-8.82-2.79-16.87-5.32-25.18-7.95,1.56-3.17,2.94-5.95,4.63-9.37-3.45,1.77-6.18,3.17-9.18,4.72-2.73-8.4-5.39-16.56-8.28-25.44-2.82,9.01-5.37,17.15-7.96,25.44-3.19-1.62-5.91-2.99-9.3-4.7,1.78,3.56,3.18,6.35,4.64,9.27-8.52,2.69-16.63,5.25-25.64,8.09,9.06,2.9,17.14,5.48,25.58,8.17ZM945.6,277.92h4.49c16.67,0,33.34,0,50.01,0,.72,0,1.44-.03,2.16,0,2.04.11,3.71-.51,3.76-2.78.06-2.53-1.75-3-3.91-3-17.51.03-35.02.02-52.53.02-1.26,0-2.53,0-3.98,0,0-2.17,0-3.84,0-5.51,0-9.35-.02-18.71.02-28.06,0-2.02-.48-3.72-2.75-3.81-2.51-.09-3.15,1.67-3.03,3.86.03.48,0,.96,0,1.44,0,47.13,0,94.26,0,141.39,0,.96-.33,2.14.11,2.82.62.97,1.81,2.16,2.76,2.16.95,0,2.21-1.17,2.76-2.15.47-.82.12-2.11.12-3.18,0-32.86,0-65.72,0-98.58v-4.63ZM1026.24,524.68c0-10.5-7.16-20.23-19.57-23.2-2.96-.71-6.22-.58-9.29-.29-5.07.47-9.72,1.94-13.52,5.85-9.36,9.64-18.95,19.06-28.47,28.55-1.52,1.52-3.06,2.98-.84,5.05,2.05,1.91,3.4.35,4.79-1.05,9.07-9.09,18.15-18.17,27.23-27.24,8.98-8.98,23.84-6.57,30.97,3.86,5.31,7.76,2.36,22.83-3.73,28.73-8.36,8.1-16.49,16.43-24.74,24.64-1.45,1.45-2.76,2.85-.8,4.81,1.97,1.96,3.37.61,4.81-.83,8.04-8.08,15.99-16.26,24.21-24.15,6.3-6.04,9.19-13.26,8.95-24.7ZM669.25,724.32c1.49,0,2.79,0,4.09,0,16.04,0,32.08-.01,48.13.02,2.04,0,3.96-.6,3.62-2.76-.18-1.15-2.21-2.87-3.41-2.88-18.19-.18-36.39-.18-54.59-.02-1.24.01-3.14,1.33-3.54,2.46-.61,1.7-.45,3.84-.05,5.66.22.98,1.67,2.43,2.47,2.37,1.09-.08,2.24-1.27,3.06-2.24.42-.49.16-1.55.22-2.61ZM1234.31,209.95l.81-.08c.9,2.82,1.68,5.69,2.77,8.43.45,1.11,1.59,1.95,2.42,2.91.9-1.01,2.16-1.88,2.62-3.06,1.14-2.93,1.91-5.99,2.82-9.01.29.08.59.16.88.24v15.78h3.78v-26.23q-5.04-.81-6.36,3.7c-1.12,3.77-2.27,7.53-3.68,12.2-1.82-6.09-3.35-11.19-4.81-16.04h-5.09v26.38h3.83v-15.21ZM834.72,263.54c0-8.39-.02-16.78.02-25.17,0-2.19-.15-4.33-2.96-4.3-2.53.03-2.84,1.96-2.83,4.08.03,16.9.03,33.8,0,50.71,0,2.1.26,4.06,2.79,4.12,2.8.07,3.02-2.04,3.01-4.25-.04-8.39-.02-16.78-.02-25.17ZM1140.72,820.38c0-8.03-.03-16.06.02-24.09.01-2.24-.27-4.31-3.05-4.21-2.52.09-2.75,2.08-2.75,4.16.03,15.82.03,31.65,0,47.47,0,2.16.05,4.37,2.87,4.39,2.82.02,2.93-2.16,2.92-4.34-.04-7.79-.01-15.58-.01-23.37ZM1054.87,509.05c-.93-1.15-1.57-2.1-2.37-2.9-10.14-10.17-20.32-20.32-30.47-30.49-1.5-1.5-2.95-3.12-5.04-.91-2.11,2.23-.21,3.59,1.22,5.03,9.99,9.99,19.98,19.98,29.97,29.97.59.59,1.09,1.41,1.81,1.7.79.32,1.95.49,2.65.13.83-.42,1.34-1.47,2.22-2.53ZM918.05,563.23c-.99.9-2.34,1.56-2.36,2.27-.04,1.22.39,2.82,1.22,3.66,10.33,10.49,20.79,20.87,31.17,31.3,1.45,1.45,2.81,2.28,4.54.53,1.73-1.75.85-3.11-.59-4.54-10.44-10.39-20.83-20.82-31.27-31.21-.71-.7-1.61-1.21-2.72-2.02ZM1209.62,206.14c-.1-5.02-2.46-7.63-6.99-7.87-4.9-.25-8.3,2.38-8.6,7.16-.28,4.42-.26,8.89,0,13.31.23,4.13,3.48,6.71,7.87,6.76,4.6.05,7.51-2.17,8.06-6.47.33-2.57.28-5.2.4-7.97h-7.74v3.93c1,.2,1.9.39,2.92.6-.07,1.08.21,2.32-.28,2.91-.83.99-2.18,2.18-3.27,2.15-1.06-.04-2.89-1.45-2.96-2.37-.32-4.17-.26-8.39-.03-12.57.05-.89,1.26-2.17,2.17-2.42.91-.25,2.77.28,3.07.97,1.24,2.79,3.26,2.21,5.37,1.89ZM1280.47,207.61c-4.8-2.68-8.32-1.52-8.73,2.74-.34,3.56-.32,7.21,0,10.77.34,3.87,3.51,5.32,7.09,3.64.46-.21,1.06-.34,1.55-.24,1.46.29,2.9.7,4.59,1.13v-26.88h-4.5v8.84ZM1302.22,225.99v-27.19h-4.66v8.77c-4.87-2.83-8.38-1.29-8.64,3.57-.17,3.23-.22,6.49.04,9.7.33,4.08,3.47,5.65,7.2,3.87.44-.21.99-.55,1.37-.44,1.41.41,2.77,1,4.68,1.71ZM1106.11,219.77c2.18,4.84,5.07,6.35,10.25,5.62,3.6-.5,5.9-2.79,6.34-6.29.54-4.31-.79-6.95-4.36-8.45-1.65-.7-3.41-1.13-5.02-1.9-2.08-1-2.92-3.02-1.42-4.65.83-.91,3.12-.73,4.71-.57.65.07,1.18,1.36,1.82,2.17,1.48-.76,2.6-1.34,3.68-1.9-1.53-4.49-3.93-5.97-8.54-5.5-3.82.39-6.26,2.49-6.73,5.81-.65,4.6.76,7.24,4.8,8.87,1.33.54,3,.63,3.97,1.52,1.13,1.03,1.68,2.71,2.48,4.1-1.42.77-2.87,2.2-4.25,2.14-1.37-.06-2.68-1.62-4.2-2.64-.99.47-2.15,1.02-3.53,1.66ZM1003.02,529.07c-.89-1.01-1.52-2.36-2.23-2.4-1.22-.06-2.82.33-3.66,1.16-8.55,8.36-16.96,16.86-25.44,25.29-1.51,1.5-2.58,2.94-.6,4.79,1.82,1.71,3.16.63,4.53-.76,8.43-8.48,16.9-16.92,25.34-25.39.71-.71,1.23-1.6,2.05-2.69ZM1267.32,348.6c-3.62-15.24-15.82-27.16-27.65-27.35.35,3.63,1.66,6.07,5.53,7.58,6.58,2.57,11.56,7.55,14.04,14.14,1.53,4.06,4.26,4.85,8.09,5.63ZM1267.29,360.78c-4.08.44-6.6,1.94-8.19,5.87-2.64,6.54-7.51,11.6-14.21,13.96-4.16,1.47-4.64,4.31-5.4,7.73,13.47-1.79,24.67-12.91,27.79-27.57ZM1199.74,360.89c1.75,13.65,15.78,27.41,27.3,27.07-1.1-5.25-1.12-5.21-5.71-7.42-6.26-3.01-11.31-7.5-13.72-14.02-1.47-3.97-4.02-5.16-7.87-5.63ZM1245.79,260.72v-4.72h-7.83v-6.96h9.3v-4.22h-13.85v26.63c1.53-.08,2.77-.14,4.31-.22v-10.52h8.06ZM1161.63,256.14v-7.08h9.31v-4.23h-13.86v26.62c1.52-.07,2.76-.13,4.31-.2v-10.62h8.08v-4.49h-7.84ZM1199.79,348.37c4.06-.54,6.49-2.16,8.03-6.1,2.52-6.47,7.5-11.25,13.99-13.67,3.85-1.44,4.83-3.9,5.35-7.36-14.38,1.13-26.62,15.8-27.37,27.13ZM1259.26,206.46h-4.78c0,4.46-.17,8.65.04,12.83.3,5.97,3.93,7.78,7.89,5.24,2.41.41,3.96.67,5.51.93v-19.29c-1.48.07-2.63.12-4.18.2,0,4.13.16,8.07-.11,11.98-.07,1.06-1.45,2.02-2.23,3.03-.71-1.03-1.98-2.03-2.05-3.1-.25-3.81-.1-7.64-.1-11.81ZM1259.34,261.66c0,1.2-.03,2.4,0,3.6.12,4.03,2.25,6.19,6.22,6.33,4.32.15,6.86-1.74,7.23-5.74.24-2.62.25-5.28.05-7.9-.3-4.04-2.86-6.11-7.04-6.01-4.21.1-6.35,2.23-6.46,6.49-.03,1.08,0,2.16,0,3.24ZM1275.9,261.69c0,1.2-.03,2.4,0,3.6.12,3.9,2.13,6.02,5.9,6.26,4.5.29,7.18-1.63,7.56-5.74.24-2.62.25-5.28.04-7.9-.31-4.01-2.9-6.09-7.08-5.98-4.21.11-6.32,2.24-6.43,6.52-.03,1.08,0,2.16,0,3.24ZM1140.29,217.54c-.4-2.83-.44-5.24-1.14-7.44-1.05-3.31-3.77-4.53-7.09-4.16-3.18.35-5.48,2.06-5.8,5.37-.28,2.95-.32,5.98,0,8.92.36,3.28,2.63,4.96,5.89,5.2,3.3.24,6.15-.33,7.57-5.29-2.11.32-3.55.58-4.99.75-1,.12-2.31.52-2.94.06-.79-.58-1.04-1.92-1.75-3.42h10.24ZM1157.03,220.24c-2.03.25-3.49.45-4.94.61-1,.11-2.3.59-2.94.14-.83-.58-1.13-1.91-1.97-3.53h10.25c-.24-2.31-.26-4.33-.69-6.25-.85-3.77-3.28-5.51-6.96-5.33-3.61.18-5.98,2.29-6.3,6.05-.24,2.72-.25,5.5.05,8.21.37,3.29,2.57,5.01,5.82,5.28,3.3.28,6.18-.28,7.68-5.19ZM1169.52,233.17c3.01.41,5.35-.33,6.21-3.17,2.34-7.75,4.48-15.56,6.7-23.37q-4.09-.73-5.01,2.57c-.68,2.44-1.35,4.89-1.96,7.1-3.76-2.6-.17-10.21-8.12-10.13,1.85,5.78,3.77,11.04,5.13,16.45.44,1.77-.04,5.22-1.03,5.62-2.91,1.2-1.94,2.96-1.92,4.93ZM1195.29,266.15c-.15.49-.3.97-.45,1.46.58.74,1.07,1.57,1.75,2.19,2.21,2.01,6.98,2.78,9.35.81,1.58-1.31,2.92-3.84,2.98-5.87.11-3.55-3.02-4.42-5.99-4.92-.24-.04-.55-.01-.69-.15-.79-.8-1.54-1.65-2.3-2.47,1.19-.18,2.84-.95,3.48-.44,2.24,1.79,3.58.7,5.08-.75-2.1-3.61-5.44-4.88-9.13-3.63-2.57.87-3.91,2.63-3.99,5.33-.08,2.77,1.26,4.5,3.92,5.25,1.38.39,2.81.67,4.09,1.27.59.27.89,1.18,1.32,1.8-.64.44-1.24,1.17-1.92,1.25-.89.1-1.83-.37-2.76-.51-1.58-.23-3.16-.4-4.74-.6ZM1182.18,352.48c.2,0,.41.01.61.02.75,2.95,1.39,5.94,2.32,8.83.24.75,1.32,1.54,2.13,1.69.45.08,1.48-1.03,1.67-1.75,1.22-4.86,2.28-9.76,3.39-14.64-2.41-1.13-3.36-.26-3.67,2.09-.34,2.49-.95,4.94-1.45,7.41-1.33-2.5-1.92-5.03-2.78-7.46-.33-.94-1.29-1.65-1.97-2.47-.68.83-1.63,1.55-1.98,2.5-.9,2.43-1.53,4.95-2.55,8.41q-2.25-11.09-5.32-10.39c.97,4.32,1.84,8.67,2.99,12.94.34,1.27,1.45,2.34,2.21,3.5.83-1.09,1.96-2.06,2.41-3.29.87-2.39,1.36-4.91,2-7.38ZM1239.81,295.53c-1.96-.67-3.09-.46-3.01,1.9.1,2.9.03,5.81.03,8.72-1.89-2.63-3.41-5.3-4.51-8.13-1.03-2.65-2.56-3.44-5.35-2.38,0,4.82-.09,9.6.09,14.37.03.79,1.23,1.53,1.89,2.29l1.06-.64v-10.17c2.02,2.57,3.5,5.23,4.66,8.03,1.05,2.52,2.61,3.17,5.15,2.1v-16.07ZM1250.25,244.77c0,7.51-.2,14.9.09,22.27.14,3.53,2.6,4.75,6.39,3.85,0-1.05.46-2.6-.08-3.1-2.73-2.58-1.56-5.79-1.66-8.73-.17-4.72-.05-9.45-.05-14.28h-4.69ZM1166.76,225.02c0-1,.45-2.45-.07-3.03-2.86-3.2-1.53-6.98-1.7-10.51-.2-4.23-.05-8.47-.05-12.76h-4.73c0,7.43-.17,14.7.07,21.95.12,3.58,2.17,4.77,6.48,4.35ZM1213.41,246.9c-.06,1.4.1,2.53-.22,3.49-.3.88-1.42,1.51-1.64,2.38-.26,1.08-.14,2.35.14,3.45.34,1.3,1.33,2.46,1.5,3.76.26,2,.04,4.06.08,6.09.09,4.57,2,5.98,6.92,4.86-.17-1.23.05-2.76-.6-3.69-2.45-3.57-2.46-7.3.15-11.27.45-.68.51-1.96.19-2.73-.86-2.07-2.03-4-3.25-6.33h-3.28ZM1182.61,271.28h4.91c0-3.71-.23-7.29.12-10.82.13-1.31,1.59-3.49,2.51-3.53,3.5-.14,3.05-2.34,3.25-5.38-2.24.82-3.98,1.46-5.73,2.09.07-.26.14-.52.21-.78-1.7-.22-3.39-.43-5.28-.67v19.1ZM1304.49,252.68c-.26-.32-.52-.65-.77-.97-1.68.61-3.35,1.22-5.03,1.83.08-.18.16-.37.24-.55-1.77-.26-3.54-.53-5.4-.8v19.04h4.87c0-3.41-.02-6.62,0-9.83.03-3.99.72-4.65,4.99-4.73.36-1.3.73-2.64,1.1-3.99ZM1276.75,363.17c3.27,0,6.14.09,8.98-.07.63-.04,1.22-.96,1.83-1.48-.62-.51-1.2-1.38-1.86-1.45-1.86-.2-3.76-.07-5.68-.07v-3.8c1.83,0,3.41.16,4.92-.08.64-.1,1.15-1.05,1.73-1.62-.54-.48-1.04-1.3-1.62-1.37-1.62-.19-3.29-.07-5.07-.07v-3.97c1.88,0,3.54-.07,5.19.02,2.38.12,3-.79,2.06-2.8h-10.46v16.74ZM1226.68,410.37c.25,1.01.39,2.76.73,2.8,2.97.33,6.06.8,8.93.25,1.08-.21,2.32-3.01,2.26-4.59-.06-1.36-1.68-2.86-2.95-3.9-.84-.69-2.34-.49-3.39-1-.85-.41-1.48-1.29-2.2-1.96.91-.59,1.75-1.44,2.74-1.69.83-.21,1.87.48,2.77.37,1.01-.11,1.97-.67,2.95-1.04-.11-.58-.22-1.15-.33-1.73-2.62-.15-5.42-.9-7.8-.21-1.5.43-3.18,2.98-3.28,4.66-.09,1.42,1.79,3.19,3.16,4.4.78.69,2.33.42,3.41.88.77.33,1.34,1.16,2,1.76-.75.64-1.49,1.79-2.26,1.81-1.96.04-3.93-.43-6.74-.81ZM1173.93,252.41v18.81h4.31v-18.81h-4.31ZM750.96,706.39c-2.19.43-5.25-1.08-4.9,2.81.16,1.85,1.3,3.61,1.96,5.3.02,0-.78.05-1.59.1-.05.29-.11.57-.16.86.98.26,2.1.94,2.89.66.78-.28,1.64-1.47,1.73-2.34.24-2.35.08-4.73.08-7.4ZM1104.83,840.04c1.88-.64,4.23-.85,4.44-1.64.54-1.97.54-4.35-.11-6.28-.29-.85-2.66-1-4.33-1.55v9.48ZM686,708.19c.36-.06.72-.12,1.08-.18.34,1.85.68,3.69,1.01,5.54.28-.04.57-.07.85-.11.24-1.8.49-3.59.73-5.39.27.02.55.04.82.06.28,1.8.55,3.61.95,6.22,2.93-6.56,1.19-8.09-6.9-7.61v6.69c.27.01.54.02.81.03.21-1.75.43-3.5.64-5.25ZM965.69,713.24c1.76-.56,3.98-.74,4.14-1.41.49-2.08.54-4.44.02-6.5-.19-.75-2.49-.96-4.16-1.53v9.45ZM784.26,595.96c1.82-.64,4.04-.88,4.19-1.57.46-2.09.46-4.44-.09-6.5-.19-.72-2.49-.89-4.1-1.39v9.46ZM892.59,381.8c-.31-1.28-.32-2.72-1.02-3.65-.37-.49-2.84-.14-2.84-.07-.17,2.38-.15,4.77-.16,7.16,1.05,0,2.52.4,3.05-.13.7-.69.67-2.13.97-3.32ZM976.97,432.58c.34,1.4.38,2.81,1.05,3.77.33.48,1.83.15,2.81.18.02-2.47.07-4.95-.05-7.42,0-.09-2.29-.47-2.62-.04-.71.94-.84,2.32-1.19,3.5ZM1128.55,523.11c-.23-.19-.46-.38-.68-.57,0-.59.21-1.3-.04-1.76-.58-1.08-1.38-2.05-2.1-3.07-.7,1.04-1.48,2.04-2.05,3.15-.24.47-.06,1.17-.04,1.76.05,1.63-.26,3.84,2.18,3.53,1.02-.13,1.83-1.97,2.73-3.04ZM996.15,627.04c.04,1-.2,2,.19,2.61.48.76,1.47,1.19,2.24,1.77.61-1.08,1.78-2.19,1.72-3.23-.1-1.79-.96-3.53-1.5-5.29-.82.49-1.93.81-2.39,1.53-.44.71-.21,1.84-.27,2.62ZM1195.85,599.88c-.38-1.32-.57-2.75-1.25-3.87-.21-.35-2.58.07-2.59.23-.17,2.39-.15,4.79.03,7.18.01.15,2.39.56,2.68.15.68-.96.76-2.34,1.12-3.69ZM1070.57,568.92c-.38-1.32-.57-2.75-1.25-3.87-.21-.35-2.58.07-2.59.23-.17,2.39-.15,4.79.03,7.18.01.15,2.39.56,2.68.15.68-.96.76-2.34,1.12-3.69ZM989.49,796.21s-.05,0-.08,0c0,.24-.01.48,0,.71.1,1.57-.5,3.76,2.08,3.57.77-.06,2.03-1.68,2.02-2.57-.03-2.03,1.33-4.78-1.74-5.79-.53-.17-1.75.88-2.21,1.63-.37.6-.07,1.61-.07,2.44ZM971.84,434.13c-.17.03-.34.06-.51.09.2.67.23,1.77.62,1.92.98.37,2.11.3,3.19.4.04-2.44.11-4.87,0-7.3,0-.07-1.96-.17-2.97,0-.29.05-.6,1-.61,1.54-.01,1.11.17,2.23.28,3.35ZM669.5,711.53c-.26-.33-.53-.66-.79-.99-.88.42-1.77.84-2.9,1.37v-6.98c1.35.84,2.15,1.35,2.95,1.85.26-.29.52-.58.78-.88-.89-.8-1.84-2.29-2.65-2.22-1.11.1-2.72,1.2-3.04,2.21-.51,1.63-.47,3.62-.02,5.3.25.96,1.72,2.15,2.7,2.21.95.06,1.98-1.19,2.98-1.87ZM982.02,395.82l.86-.65c-.88-.9-1.76-1.8-2.64-2.7-.6,1.06-1.31,2.08-1.75,3.21-.32.82-.63,1.92-.34,2.64.41,1.02,1.38,1.82,2.12,2.71.75-.84,1.77-1.58,2.17-2.56.29-.71-.24-1.75-.41-2.65ZM978.53,264.77c.3.21.6.43.9.64-.2.76-.59,1.53-.54,2.27.06.87.26,2.03.84,2.47.59.45,1.97.53,2.55.12.59-.41.76-1.59.88-2.47.1-.76-.29-1.6-.17-2.36.29-1.77.09-3.4-2.04-3.18-.88.09-1.62,1.63-2.42,2.5ZM988.52,265.53c.27-.17.54-.33.81-.5-.74-.96-1.36-2.07-2.3-2.77-.22-.17-1.95.92-2.16,1.67-.42,1.51-.57,3.24-.24,4.75.18.82,1.51,1.72,2.45,1.9.5.1,1.62-1.18,1.83-2,.24-.91-.22-2.01-.38-3.03ZM980.56,466.56c.28-.19.57-.37.85-.56-.81-1-1.61-2-2.42-3-.73.65-1.87,1.19-2.1,1.99-.4,1.39-.54,3.01-.2,4.4.21.86,1.48,1.47,2.28,2.2.7-.78,1.69-1.45,2.02-2.36.27-.74-.26-1.77-.43-2.67ZM716.96,711.47c-.09.29-.18.58-.27.87,1.26.39,2.53,1.11,3.77,1.05.73-.04,2.04-1.4,1.96-2.02-.15-1.19-1.01-2.35-1.77-3.39-.55-.77-1.4-1.32-2.12-1.96.22-.24.44-.48.66-.73.99.15,1.97.3,2.96.44l.31-1.13c-1.2-.33-2.44-1.02-3.57-.86-.75.1-1.93,1.48-1.85,2.17.12,1.08,1.06,2.12,1.79,3.08.57.74,1.35,1.32,2.03,1.98-.97.07-1.95.12-2.92.22-.33.03-.66.19-.98.29ZM707.99,713.8l1.05-.93c-.66-2.1-1.24-4.24-2.11-6.25-.1-.23-1.86.25-2.85.41.03.24.06.48.09.71.87.22,1.74.43,2.06.51-.93,1.4-1.76,2.67-2.6,3.93,1.46.54,2.92,1.08,4.38,1.62ZM743.89,713.86c.38-.39.76-.78,1.14-1.17-.64-2.03-1.16-4.11-2.03-6.03-.13-.29-1.89.17-2.9.28.01.29.02.57.03.86.87.17,1.75.34,2.19.43-.96,1.35-1.85,2.61-2.74,3.86,1.43.59,2.87,1.18,4.3,1.77ZM726.57,709.74c1.65,1.75,2.49,3.45,3.62,3.66,2.28.44,2.85-1.56,2.43-3.29-.33-1.36-1.45-2.52-2.22-3.77-1.04.92-2.07,1.84-3.83,3.4ZM1101.33,569.78c0-1.63.21-2.35-.05-2.8-.52-.9-1.3-1.66-1.97-2.47-.67.81-1.73,1.55-1.92,2.46-.31,1.49-.2,3.12.06,4.64.1.58,1.14,1.44,1.67,1.39.75-.07,1.72-.74,2.05-1.41.38-.8.17-1.88.16-1.8ZM754.33,711.81c-.04-.28-.08-.55-.12-.83,1.07-.24,2.13-.47,4.08-.9-1.18-1.53-1.85-2.86-2.93-3.55-.41-.26-2.54.98-2.55,1.55-.01,1.72.49,3.51,1.15,5.13.11.27,1.97-.17,3.02-.29-.04-.32-.08-.64-.13-.96-.84-.05-1.68-.1-2.53-.15ZM682.97,710.23c-1-1.54-1.74-2.67-2.48-3.8-.97.64-2.68,1.2-2.75,1.92-.15,1.58.33,3.33,1.02,4.79.16.35,2.11-.12,3.24-.21-.05-.33-.1-.66-.15-.99-.86-.12-1.72-.24-2.59-.36,0-.21,0-.42,0-.63.96-.18,1.91-.37,3.72-.72ZM742.47,594.55c2.1.13,3.78.24,5.68.36-.84-2.62-1.71-5.35-2.57-8.07-.24.02-.48.03-.73.05-.83,2.66-1.65,5.31-2.38,7.66ZM1078.57,839.54c-.76-2.42-1.62-5.15-2.48-7.87-.26,0-.51.02-.77.03-.82,2.73-1.65,5.46-2.37,7.85h5.62ZM970.88,738.02c-.72-2.37-1.54-5.11-2.36-7.84-.28-.02-.57-.03-.85-.05-.82,2.77-1.63,5.53-2.33,7.89h5.54ZM782.85,480.3c-.25,0-.49,0-.74,0-.83,2.74-1.67,5.49-2.34,7.7,2.1.1,3.78.17,5.62.26-.84-2.62-1.69-5.29-2.54-7.95ZM962.21,729.71c-.8,2.18-1.74,4.05-2.1,6.03-.16.85.74,2.05,1.46,2.81.23.25,1.87-.21,2.05-.66.38-.97.44-2.2.24-3.25-.26-1.4-.89-2.74-1.65-4.92ZM671.41,703.72v9.54c.23.03.47.05.7.08.3-1.77.6-3.54.9-5.31.26.03.53.05.79.08.25,1.79.49,3.58.82,5.93,3.53-5.26-.74-7.27-3.2-10.32ZM780.9,526.31c.62-1.77,1.49-3.64,1.88-5.61.16-.81-.54-2-1.2-2.67-.32-.33-1.91-.1-2.11.29-.49.95-.85,2.22-.63,3.22.34,1.52,1.22,2.92,2.06,4.78ZM1199.2,604.22c.66-1.89,1.57-3.73,1.88-5.67.14-.89-.72-2.09-1.43-2.88-.23-.25-1.88.15-2.06.59-.41.98-.58,2.25-.34,3.28.32,1.42,1.11,2.73,1.95,4.68ZM1197.05,761.78c.64-1.8,1.55-3.67,1.87-5.64.14-.86-.78-2.05-1.51-2.81-.23-.24-1.87.23-2.04.68-.37,1-.46,2.25-.22,3.29.3,1.31,1.04,2.52,1.9,4.48ZM890.21,423.71c-.8,2.18-1.74,4.05-2.1,6.02-.16.85.74,2.05,1.46,2.81.23.25,1.87-.21,2.05-.66.38-.97.44-2.2.24-3.25-.26-1.4-.89-2.74-1.65-4.92ZM739.94,595.86c.75-2.24,1.61-4.05,1.89-5.95.13-.9-.72-2.08-1.42-2.88-.21-.24-1.9.22-2.05.65-.35,1.02-.37,2.26-.15,3.33.28,1.38.94,2.68,1.74,4.85ZM734.66,588.65c.32-.18,1.11-.64,2.7-1.57h-4.98c.37,1.69.5,3.08,1.01,4.31.27.67,1.19,1.07,1.81,1.59-.86.26-1.73.52-3.47,1.04,1.59.64,2.64,1.47,3.29,1.22.77-.29,1.79-1.62,1.66-2.29-.3-1.47-1.27-2.8-2.02-4.32ZM884.69,423.61c-.81,2.2-1.76,4.06-2.12,6.04-.16.87.69,2.09,1.38,2.89.23.26,1.92-.16,2.09-.59.38-1.01.45-2.26.27-3.34-.24-1.41-.86-2.75-1.61-4.99ZM1005.92,729.73c-.75,2.15-1.65,4.01-1.99,5.98-.15.87.69,2.06,1.38,2.85.2.23,1.89-.23,2.05-.68.36-1,.38-2.23.18-3.3-.25-1.34-.85-2.62-1.61-4.85ZM775.54,439.65c-.74,2.13-1.62,4.05-2.02,6.07-.16.8.55,1.98,1.21,2.63.29.29,1.92-.08,2.11-.51.42-.98.58-2.23.39-3.28-.26-1.45-.94-2.82-1.68-4.91ZM961.95,704.09c-.67,1.94-1.54,3.88-1.95,5.91-.16.79.57,1.96,1.24,2.61.29.29,1.84-.08,2.11-.55.47-.82.69-2.02.48-2.95-.34-1.54-1.09-2.99-1.88-5.02ZM814.18,578.29c1.02.5,1.9,1.3,2.6,1.17.71-.13,1.84-1.3,1.75-1.82-.28-1.59-1.07-3.1-1.77-4.93.12-.09.84-.6,2.16-1.54h-4.26v3.73c1,.75,1.77,1.33,2.53,1.91-.8.4-1.61.8-2.99,1.48ZM951.55,561.95c.07-.23.15-.45.22-.68-.93-.33-1.93-1.02-2.78-.87-.7.12-1.72,1.24-1.71,1.91.01.84.85,1.73,1.46,2.49.55.69,1.27,1.25,2.59,2.51-2.12-.2-3.03-.29-3.94-.38-.03.46-.05.92-.08,1.38,1.28,0,3.07.55,3.74-.09,3.68-3.5-2.09-3.77-2.49-6.29h2.99ZM780.61,595.65c.7-1.96,1.61-3.79,1.93-5.71.15-.89-.69-2.09-1.38-2.88-.24-.27-1.92.12-2.09.55-.4,1.01-.53,2.28-.31,3.34.3,1.41,1.04,2.73,1.85,4.7ZM872.41,219.03c2.12,2.52,4.92,2.41,4.72.25-.16-1.73-1.96-3.3-3.23-5.25,1.22.08,2.11.14,3.01.2.06-.35.11-.7.17-1.05-1.09-.15-2.57-.84-3.2-.38-4.61,3.38,2.39,3.97,1.86,6.76-1.15-.18-2.08-.32-3.34-.52ZM820.29,577.99c1.79,2.25,3.71,2.03,3.72-.53,0-1.52-1.05-3.04-1.67-4.7.25-.14.95-.55,1.66-.96l-.16-.56h-3.99c.46,1.67.73,3.06,1.25,4.35.25.61,1,1.01,1.52,1.5-.78.3-1.55.6-2.33.91ZM901.72,533.04c.09-.06.79-.49,1.49-.93-.12-.25-.23-.5-.35-.75-1.11.05-2.23.11-3.67.18.29,1.71.35,3.11.81,4.37.25.67,1.19,1.08,1.81,1.61-.78.3-1.55.6-3.18,1.22,1.46.56,2.39,1.26,3.08,1.08.66-.17,1.57-1.33,1.5-1.96-.17-1.47-.85-2.88-1.5-4.81ZM1073.16,864.53c-1.51-.1-2.54-.17-3.57-.25-.03.42-.05.84-.08,1.25,1.34,0,3.29.57,3.93-.1,3.25-3.41-2.01-3.63-2.7-6.05,1.2-.07,2.14-.12,3.07-.17-.02-.41-.04-.83-.06-1.24-1.25.13-3.08-.22-3.64.47-2.78,3.43,2.23,3.37,3.04,6.09ZM773.12,586.73c.4,1.9.56,3.34,1.04,4.65.22.59,1.09.93,1.67,1.39-.78.42-1.55.84-2.33,1.26v.96c1.1-.08,2.51.24,3.24-.32,1.49-1.14.48-4.18-1.71-5.68.73-.52,1.45-1.03,2.82-2-1.86-.1-2.89-.16-4.73-.26ZM1195.16,707.97c.29,1.58.39,3.04.85,4.36.24.67,1.12,1.12,1.71,1.67-.77.29-1.54.59-3.19,1.22,1.54.51,2.5,1.18,3.2.97.65-.2,1.51-1.39,1.42-2.04-.2-1.47-.92-2.86-1.55-4.64.06-.04.79-.54,2.26-1.55h-4.71ZM865.79,538.33c-.1.26-.2.52-.31.78.86.26,1.85.9,2.54.67.65-.22,1.47-1.43,1.37-2.08-.23-1.47-.97-2.85-1.61-4.56.13-.09.86-.6,2.29-1.6h-4.94c.56,1.72.94,3.12,1.49,4.45.26.63.88,1.12,1.33,1.67-.72.22-1.44.45-2.16.67ZM773.25,517.91c.26,1.54.35,3.01.81,4.34.23.67,1.14,1.11,1.74,1.65-.77.3-1.54.6-3.17,1.23,1.49.52,2.45,1.2,3.15.99.65-.19,1.52-1.38,1.44-2.02-.19-1.47-.9-2.87-1.53-4.66.03-.02.77-.52,2.25-1.53h-4.69ZM772.44,480.1c-.68,2.01-1.53,3.95-1.93,5.98-.16.79.53,1.96,1.18,2.61.3.29,1.86-.05,2.12-.5.46-.84.66-2.04.46-2.98-.33-1.56-1.06-3.04-1.83-5.1ZM996.62,660.47c.09.41.18.81.27,1.22.77-.15,1.53-.29,3.03-.58-1.36,2.56-2.42,4.55-3.54,6.67h4.58c.02-.2.04-.4.06-.6-.68-.29-1.35-.57-1.1-.46v-6.8c-1.1.19-2.2.37-3.29.56ZM1217.05,220.86h-4.13v4.27h4.13v-4.27ZM1130.15,517.67c-.32.29-.65.57-.97.86.97,1.98,1.95,3.97,3,6.12-1.06-.12-1.78-.19-2.49-.27.56,1.13,1.45,1.91,2.17,1.78.67-.12,1.73-1.32,1.63-1.87-.28-1.57-1.06-3.05-1.73-4.8.19-.11.98-.54,1.77-.98-.05-.21-.09-.42-.14-.63-1.08-.07-2.17-.14-3.25-.21ZM985.56,797.6c-.16-.14-.33-.28-.49-.42.51-1.65,1.02-3.29,1.54-4.94-.41-.13-.81-.25-1.22-.38-.85,2.3-1.7,4.6-2.55,6.87,1.68.64,2.93,1.11,4.81,1.83-.09-1.57-.17-3.03-.3-5.32-1.01,1.33-1.4,1.84-1.79,2.35ZM777.97,305.05c2.44,2.79,4.35,2.89,4.69.86.31-1.89.1-3.93-.31-5.81-.1-.47-1.81-.72-2.8-.8-.26-.02-.61.99-1.09,1.85,1.2-.27,1.92-.43,2.42-.54v5.23c-.62-.17-1.32-.36-2.9-.79ZM1099.12,837.44c-.11.28-.22.56-.33.84.81.41,1.62,1.1,2.44,1.13.61.02,1.77-.8,1.79-1.3.1-2.05,0-4.14-.38-6.15-.06-.34-1.87-.45-2.87-.44-.27,0-.54.83-1.1,1.78,1.31-.36,2.01-.54,2.59-.7v5.24c-.6-.11-1.37-.25-2.15-.39ZM953.79,710.41c2.19,2.77,4.18,2.95,4.52.93.33-1.99-.02-4.13-.4-6.14-.06-.32-1.88-.4-2.88-.37-.27,0-.51.84-1,1.73,1.25-.32,1.96-.5,2.51-.64v5.26c-.57-.16-1.27-.35-2.75-.76ZM986.25,398.01c-.15-.15-.3-.3-.45-.45.5-1.64.99-3.28,1.49-4.92-.4-.12-.8-.24-1.2-.36-.85,2.3-1.7,4.6-2.54,6.84,1.71.67,2.95,1.16,4.84,1.9-.11-1.65-.22-3.1-.37-5.3-1,1.29-1.39,1.79-1.78,2.29ZM1087.67,785.54c-.13.28-.25.56-.38.85.89.42,1.8,1.21,2.66,1.15.64-.05,1.64-1.14,1.71-1.84.17-1.7.13-3.51-.34-5.13-.18-.62-1.73-.97-2.71-1.14-.3-.05-.77.93-1.49,1.87,1.35-.21,2.12-.33,2.56-.39.14,1.83.25,3.37.38,5.16-.84-.18-1.62-.34-2.4-.51ZM907.05,536.97c-.15-.15-.3-.3-.45-.45.5-1.64.99-3.28,1.49-4.92-.4-.12-.8-.24-1.2-.36-.85,2.3-1.7,4.6-2.54,6.84,1.71.67,2.95,1.16,4.84,1.9-.11-1.65-.22-3.1-.37-5.3-1,1.29-1.39,1.79-1.78,2.29ZM998.07,731.3c.08.28.15.56.23.84.83-.07,1.65-.14,2.19-.18v5.08c-.58-.12-1.36-.27-2.14-.43-.11.34-.22.69-.33,1.03,1.03.32,2.17,1.06,3.05.82.65-.18,1.17-1.59,1.35-2.52.19-.97.02-2.06-.23-3.03-.24-.94-.63-2.37-1.25-2.55-.81-.22-1.9.58-2.87.94ZM954.17,731.25c.12.33.24.67.36,1,.76-.12,1.53-.23,2.01-.31.11,1.84.21,3.38.31,5.15-.84-.18-1.62-.35-2.4-.51-.12.34-.23.69-.35,1.03,1.01.33,2.14,1.09,2.99.86.66-.18,1.21-1.56,1.39-2.49.19-.96.01-2.05-.23-3.03-.24-.94-.58-2.39-1.2-2.58-.8-.25-1.91.53-2.89.87ZM990.37,665.76c1.76,2.79,3.62,3.33,4.47,1.14.72-1.85.08-4.28-.24-6.42-.04-.24-1.9-.31-2.9-.24-.25.02-.44.86-.79,1.6,1.13-.25,1.85-.41,2.36-.53v5.23c-.62-.17-1.32-.36-2.91-.8ZM698.88,708.11h3.01c-.03-.45-.06-.9-.09-1.35-1.32.16-3.76.21-3.79.5-.2,1.92.12,3.89.27,5.84,1.21-.11,2.42-.21,3.63-.32-.05-.39-.1-.79-.16-1.18h-2.88v-3.5ZM725.72,704.45c-.63.04-1.26.08-1.89.13.17,2.62.26,5.26.6,7.85.06.45,1.22.75,2.04,1.2-.29-3.51-.52-6.35-.75-9.18ZM1063.94,837.24c-.21-.12-.41-.24-.62-.36l1.48-5.03c-.38-.12-.76-.23-1.14-.35-.82,2.29-1.64,4.57-2.42,6.72,1.71.79,2.9,1.34,4.5,2.08v-4.77c-.25-.04-.51-.08-.76-.12-.35.61-.7,1.22-1.04,1.83ZM981.98,864.12c1.78.82,2.97,1.37,4.57,2.11v-5.76c-1.12,1.47-1.56,2.05-1.99,2.63-.14-.09-.29-.19-.43-.28.49-1.68.99-3.35,1.48-5.03-.38-.12-.75-.24-1.13-.36-.83,2.22-1.65,4.44-2.5,6.7ZM1088.31,633.92c.52-.82,1.12-1.38,1.22-2.02.23-1.39.2-2.81.28-4.23l-3.46.41c.08.36.15.72.23,1.09.77-.08,1.54-.17,2.92-.32-1.32,2.45-2.35,4.37-3.5,6.51h4.39c.02-.21.04-.42.06-.63-.62-.24-1.24-.47-2.14-.82ZM1099.99,660.37c.04.38.09.76.13,1.14h2.95c-1.26,2.34-2.29,4.24-3.43,6.36h4.39c.04-.19.07-.38.11-.56-.67-.37-1.33-.74-1.06-.59.12-2.7.2-4.71.29-6.73-1.12.13-2.25.26-3.37.39ZM1193.01,864.74v-6.83c-1.12.21-2.24.42-3.36.63.09.4.18.79.27,1.19.77-.17,1.54-.33,3.09-.66-1.35,2.59-2.4,4.6-3.5,6.72h4.47c.02-.2.04-.4.06-.59-.67-.29-1.34-.58-1.03-.45ZM1070.13,838.59c-1.03-.15-1.85-.27-2.67-.39l-.2,1.14c1.18.2,2.36.4,3.54.6.26-2.01.64-4.02.72-6.05.03-.67-.69-1.93-1.1-1.94-.87-.02-1.76.58-2.62.97-.06.03.03.41.07.82.7-.13,1.38-.26,1.83-.34.15,1.79.27,3.3.42,5.19ZM1097.56,839.58c-.14-1.81-.26-3.21-.4-5.01-1,.9-1.52,1.37-2.51,2.27.69-2.36,1.17-4.01,1.65-5.66-.38-.11-.76-.22-1.13-.34-.81,2.22-1.62,4.43-2.42,6.63,1.58.69,2.78,1.22,4.81,2.11ZM990.73,863.18c-.15-.14-.3-.28-.44-.42.49-1.65.98-3.31,1.47-4.96-.38-.12-.75-.23-1.13-.35-.84,2.22-1.68,4.44-2.54,6.7,1.6.66,2.92,1.2,4.93,2.02-.2-1.75-.36-3.13-.58-5.05-.9,1.09-1.3,1.57-1.71,2.06ZM1083.73,784.74c-.15-.07-.3-.14-.45-.21.5-1.73,1-3.47,1.49-5.2-.38-.11-.75-.21-1.13-.32-.8,2.22-1.61,4.43-2.41,6.64,1.7.71,2.99,1.25,4.84,2.03-.17-1.79-.3-3.18-.49-5.21-.94,1.16-1.4,1.71-1.85,2.27ZM1197.39,859.32c.21,1.85.37,3.36.57,5.1h-2.84c2.38,2.21,4.07,2.1,4.3-.09.2-1.85,0-3.8-.44-5.6-.11-.43-1.85-.55-2.86-.62-.2-.01-.45.88-.86,1.72,1.09-.27,1.72-.42,2.14-.52ZM884.43,216.43c-.85,1.37-1.52,2.44-2.2,3.51,1.25.41,2.51.81,3.87,1.25.5-6.09.35-6.32-3.58-5.5,1.02.39,1.67.64,1.9.73ZM1103.25,571.02c-.14.33-.28.66-.41.99.94.36,2,1.16,2.78.94.66-.19,1.26-1.5,1.41-2.39.21-1.23.15-2.57-.11-3.8-.16-.78-.77-1.89-1.38-2.04-.72-.18-1.66.52-2.5.83.07.27.14.54.21.8h1.94c.13,1.87.24,3.43.37,5.2-.85-.2-1.58-.37-2.31-.53ZM873.79,538.35c-.99-.11-1.79-.2-2.58-.29-.05.41-.09.82-.14,1.23,1.15.12,2.3.24,3.44.36.16-2.38.43-4.77.36-7.15,0-.32-1.69-.71-2.62-.8-.29-.03-.67.79-1.38,1.7,1.25-.12,1.93-.19,2.43-.24.16,1.7.3,3.27.48,5.2ZM1082.45,866.52c.24-.33.47-.65.71-.98-.68-1.8,1.64-4.73-2.19-5.32-.44-.07-.95.33-1.82.67,1.11.4,1.77.64,2.19.79-.9,1.13-1.68,2.1-2.46,3.07,1.19.59,2.38,1.18,3.57,1.77ZM990.93,629.34c-.14.33-.28.66-.41.99.94.36,2,1.16,2.78.94.66-.19,1.26-1.5,1.41-2.39.21-1.23.15-2.57-.11-3.8-.16-.78-.77-1.89-1.38-2.04-.72-.18-1.66.52-2.5.83.07.27.14.54.21.8h1.94c.13,1.87.24,3.43.37,5.2-.85-.2-1.58-.37-2.31-.53ZM1173.79,248.99h4.27v-4.08h-4.27v4.08ZM884.96,466.36c-.54,2.89-.93,5.03-1.33,7.18.36.08.71.16,1.07.25.68-2.72,1.36-5.45,2.11-8.46h-4.6c.15.91.27,1.63.42,2.48.83-.51,1.37-.84,2.34-1.44ZM883.75,385.74c.41.08.82.16,1.23.25.61-2.79,1.21-5.58,1.84-8.45q-4.34-.38-3.71,2.12c.55-.29,1.11-.59,2.01-1.06-.51,2.66-.94,4.9-1.37,7.14ZM777.88,481.46c-.56,2.85-.99,5.03-1.42,7.21.41.08.83.16,1.24.23.61-2.74,1.22-5.48,1.84-8.26q-4.15-.61-3.87,2.01c.58-.31,1.13-.61,2.21-1.2ZM1091.82,627.24v2.35c.83-.35,1.47-.61,2.42-1.01-.45,2.56-.84,4.73-1.22,6.91.39.06.78.13,1.16.19.61-2.73,1.23-5.45,1.9-8.44h-4.27ZM960.75,569.07c.39-6.34.24-6.55-3.56-5.55,1.03.37,1.77.64,1.96.71-.76,1.23-1.44,2.32-2.12,3.41,1.13.43,2.26.86,3.72,1.42ZM972.53,471.24l1.18.3c.6-2.73,1.2-5.46,1.8-8.19-.28-.24-.57-.48-.85-.72-1.16.5-2.31.99-3.47,1.49.14.32.28.65.42.97.65-.14,1.3-.28,2.19-.47-.47,2.48-.87,4.55-1.27,6.62ZM779.56,448.3c.41.06.83.11,1.24.17.58-2.7,1.16-5.39,1.89-8.8-1.86.37-3.05.58-4.2.9-.1.03.04.87.07,1.33.68-.08,1.36-.16,2.26-.27-.45,2.36-.85,4.51-1.26,6.67ZM774.5,307.18c.4.08.79.16,1.19.24.62-2.72,1.24-5.44,2.05-8.95-1.99.45-3.17.69-4.3,1.04-.09.03.07.87.12,1.33.67-.09,1.35-.18,2.24-.3-.46,2.38-.87,4.51-1.29,6.65ZM887.63,466.35c.17.31.33.63.5.94.63-.14,1.27-.28,2.14-.47-.47,2.5-.86,4.59-1.25,6.67.4.07.8.14,1.21.2.57-2.74,1.15-5.48,1.72-8.23-.3-.23-.6-.46-.9-.69-1.14.53-2.28,1.05-3.42,1.58ZM712.21,713.39c-.31-3.44-.59-6.52-.87-9.59-1.96,4.55-1.45,8.31.87,9.59ZM1090.85,864.62q1.72.96,2.58-3c.58-.09,1.17-.18,1.76-.27-.02-.3-.04-.6-.06-.9-1.07.12-2.14.23-3.21.35.55,1.26,1.1,2.52,1.67,3.83h-2.74ZM898.38,216.39q-.5-.75-1.05,3.04c-.75.12-1.51.23-2.71.42q1.42.73,1.94-3.36c.59-.03,1.2-.06,1.81-.1ZM969.77,567.4c.05.44.11.88.16,1.32,1.2-.35,2.4-.71,3.6-1.06-.7-1.18-1.4-2.36-2.07-3.48.45-.04,1.09-.11,1.72-.17-.07-.41-.13-.81-.2-1.22-1.1.34-2.19.69-3.29,1.03.68,1.15,1.37,2.3,2.04,3.42-.41.03-1.18.1-1.95.16ZM897.51,531.68l-1.21-.2c-.53,2.75.43,5.51.3,8.26.3,0,.61.02.91.02v-8.09ZM1078.76,787.43c.3,0,.61,0,.91.01v-8.26c-.4,0-.8,0-1.19-.01-.58,2.75.43,5.51.28,8.26ZM1091.23,831.11c-1.65.67-1.78,4.77,0,8.96v-8.96ZM812.57,571.24c-1.63.61-1.79,4.47,0,9.04v-9.04ZM880.99,424.31c-1.65.67-1.78,4.77,0,8.96v-8.96ZM771.49,587.15c-.39-.08-.77-.15-1.16-.23-.57,2.74.41,5.52.24,8.27.31.01.61.02.92.03v-8.07ZM771.55,517.91c-1.65.67-1.78,4.77,0,8.96v-8.96ZM768.71,480.37c-1.73.82-1.79,5.28,0,8.84v-8.84ZM1193.42,708.08c-.39-.07-.78-.14-1.17-.2-.6,2.75.42,5.52.26,8.27.31,0,.61.02.92.02v-8.09ZM863.81,531.45c-3.82.44-1.11,2.42-1.19,3.59-.11,1.57.17,3.17.28,4.76.3-.03.61-.06.91-.1v-8.26ZM880.94,377.6c-.39-.07-.78-.13-1.17-.2-.6,2.75.42,5.52.26,8.27.31.01.61.02.92.03v-8.1ZM1077.13,858.41c-2.35,3.34-1.78,6.57.44,7.34-.15-2.46-.29-4.9-.44-7.34ZM1059.8,831.58c-1.78,1.1-1.8,6.1,0,8.97v-8.97ZM771.78,448.41v-8.44c-1.68.95-1.87,4.18,0,8.44ZM954.92,560.94c-2.54,3.3-1.96,6.65.46,7.56-.16-2.55-.31-5.05-.46-7.56ZM771.8,298.79c-1.77,1.09-1.8,6.07,0,8.97v-8.97ZM969.89,428.5c-2,.89-2.01,6.31,0,8.61v-8.61ZM980.65,857.72c-.37-.03-.74-.05-1.12-.08v8.36h1.12v-8.28ZM969.8,462.94c-1.78,1.1-1.79,6.1,0,8.98v-8.98ZM880.07,213.15c-.34.04-.67.07-1.01.11-1.3,4.15-.76,6.63,1.61,7.36-.2-2.52-.4-5-.6-7.47ZM996.41,730.15c-1.72.95-1.82,5.7,0,9.03v-9.03ZM1189.53,595.54c-1.84.99-1.86,6.17,0,8.72v-8.72ZM1198.86,641.69c-1.8.85-1.9,5.8,0,8.75v-8.75ZM729.66,595.26c.39.01.78.02,1.17.04v-8.24c-.35-.03-.69-.06-1.04-.09-.78,2.71.05,5.54-.13,8.3ZM952.57,730.34c-1.71.68-1.91,5.29,0,8.86v-8.86ZM1095.26,564.73c-1.67.64-1.82,4.89,0,8.83v-8.83ZM976.32,392.67c-.36-.03-.72-.06-1.08-.09v8.31l1.08.02v-8.23ZM1072.43,572.94c.39,0,.77.02,1.16.02v-8.25c-.38-.02-.76-.05-1.14-.07-.75,2.72.1,5.54-.02,8.3ZM980.22,800.46c.39.01.78.02,1.17.04v-8.24c-.35-.03-.69-.06-1.04-.09-.77,2.71.05,5.54-.13,8.3ZM1121.8,517.88c-1.75.78-1.89,5.66,0,8.77v-8.77ZM1193.1,753.29c-1.8.85-1.9,5.8,0,8.75v-8.75ZM987.73,631.17c.31,0,.63,0,.94,0v-8.17c-.46,0-.91,0-1.37,0,.14,2.72.28,5.45.42,8.17ZM977.09,262.27c-1.77.81-1.88,5.74,0,8.77v-8.77ZM880.69,465.41c-.46-.03-.92-.06-1.37-.09.14,2.72.28,5.45.42,8.17.32,0,.64,0,.96,0v-8.09ZM1194.22,649.99c.35,0,.7.01,1.06.02v-8.26c-.67-.04-1.34-.07-2-.11,1.21,2.84.38,5.55.95,8.35ZM1190.61,649.99c.32,0,.63.02.95.02v-8.29c-.38-.01-.77-.02-1.15-.03-.8,2.75.25,5.54.2,8.3ZM1188.04,866.01v-8.27c-1.68.73-1.92,3.91,0,8.27ZM1084.46,627.37c-1.67.64-1.82,4.89,0,8.83v-8.83ZM1097.13,667.87l1.08.04v-8.16c-.42-.01-.84-.02-1.26-.04-.66,2.69.36,5.45.18,8.16ZM734.85,713.39l.66.02c.73-2.25,1.47-4.49,2.23-6.83-.69-.03-1.79-.08-2.89-.13v6.95ZM1094.59,659.68c-1.77.81-1.83,5.46,0,8.71v-8.71ZM1064.25,564.58c-1.84.99-1.86,6.17,0,8.72v-8.72ZM951.44,712.64c.37,0,.73,0,1.1,0v-8.33c-.37,0-.73,0-1.1-.01v8.34ZM988.21,667.99c.36,0,.71.01,1.07.02v-8.31c-.36-.02-.71-.04-1.07-.05v8.34ZM1188.56,716.11c.36,0,.72.02,1.09.03v-8.15c-.42-.01-.84-.03-1.26-.04-.67,2.69.36,5.45.17,8.16ZM1189.53,753.23c-1.83.96-1.87,6.09,0,8.74v-8.74Z"/>
  <path class="cls-1" d="M1133.81,861.55c-5.63.32-11.19.79-16.75.83-1.22,0-3.09-1.28-3.54-2.42-.72-1.81.27-3.76,2.51-3.81,7.08-.15,14.16-.19,21.23.1.96.04,2.49,2.12,2.61,3.36.35,3.67.13,7.4.13,11.34h105.64v-100.28h-104.92c0,3.61-.04,7.29.02,10.96.03,2.02-.47,3.73-2.74,3.82-2.5.09-3.09-1.66-3.06-3.86.06-4.08,0-8.16.02-12.24.01-4.31.41-4.71,4.77-4.71,33.6,0,67.2,0,100.8,0h5.12v-40.06h-104.94c0,4.51,0,9.02,0,13.54,0,5.04.17,10.09-.13,15.11-.07,1.21-1.72,2.32-2.64,3.47-1-1.08-2.85-2.14-2.86-3.24-.2-13.2-.2-26.4,0-39.59.02-1.09,1.87-2.15,2.88-3.22.92,1.04,2.2,1.94,2.64,3.16.46,1.27.1,2.83.1,4.5h104.91v-59.22h-104.91v3.7c0,12-.01,24,.01,36,0,2.27.01,4.67-3.05,4.56-2.77-.1-2.74-2.39-2.74-4.52.03-18.6.02-37.2,0-55.8,0-2.18.11-4.36,2.94-4.33,2.83.04,2.88,2.26,2.85,4.41-.05,3.11-.01,6.23-.01,9.63h104.88v-40.56h-104.88c0,3.48-.04,7.03.01,10.57.03,2.2-.17,4.34-2.98,4.29-2.53-.04-2.82-1.99-2.81-4.1.03-23.88.03-47.76,0-71.64,0-2.13.33-4.03,2.87-4.05,2.51-.02,2.93,1.84,2.93,3.99-.03,16.92-.02,33.84-.02,50.76v4.04h104.85v-127.04h-82.54c0,3.93-.08,7.74.03,11.55.08,2.88-1.07,4.19-4.01,4.1-3.57-.11-7.15-.03-11.14-.03,0,4.07,0,7.87,0,11.67,0,8.4-.07,16.8.04,25.2.04,3.11-1.23,4.38-4.28,4.19-1.79-.11-3.71.35-5.36-.14-1.28-.38-2.24-1.83-3.34-2.81,1.13-.94,2.15-2.12,3.44-2.75.87-.43,2.11-.08,3.47-.08v-35.04h-34.8v35.04c5.51,0,11.1-.14,16.67.12,1.13.05,2.19,1.61,3.28,2.48-.9,1.05-1.73,2.18-2.75,3.1-.33.3-1.16.06-1.76.06-1.2,0-2.39,0-4.12,0v3.92c0,12,0,24,0,36,0,4.32-.41,4.71-4.77,4.72-4.56.01-9.12-.04-13.68.02-2.02.02-3.72-.48-3.8-2.75-.09-2.52,1.69-3.07,3.87-3.04,4.06.06,8.12.02,12.4.02v-38.7h-24.98c0,1.27,0,2.53,0,3.79,0,12.36.08,24.72-.13,37.08-.02,1.21-1.88,2.39-2.88,3.58-.92-1.16-1.94-2.26-2.69-3.51-.32-.53-.05-1.41-.05-2.13,0-11.76,0-23.52,0-35.28v-3.45h-27.87v38.63c4.64,0,9.38,0,14.12,0,1.08,0,2.36-.35,3.19.11,1.07.6,2.45,1.86,2.44,2.82-.02.95-1.57,2.66-2.49,2.69-6.83.23-13.68.25-20.51-.02-.94-.04-2.58-1.96-2.59-3.03-.17-14.64-.12-29.28-.12-43.92,0-3.06,2.01-3.32,4.39-3.31,14.88.03,29.76.02,44.64.02h4.24v-15.33c0-6.48,0-12.96,0-19.44q0-6.27,6.1-6.27c15.24,0,30.48,0,45.72,0h4.34c0-4.16.06-8.07-.02-11.99-.06-2.72,1.13-3.88,3.86-3.87,28.92.03,57.84.03,86.76,0,2.52,0,3.83,1.03,3.73,3.62-.03.72,0,1.44,0,2.16,0,130.79,0,261.59,0,392.38q0,5.77-5.88,5.77c-35.16,0-70.32,0-105.48,0-5.11,0-5.99-.9-6-6.06,0-2.64-.02-5.28-.04-7.92,0-.22-.11-.45-.38-1.44Z"/>
  <path class="cls-1" d="M828.96,315.54h-103.41v134.46c1.73,0,3.58-.34,5.2.11,1.2.34,2.12,1.71,3.16,2.63-1.07,1-1.99,2.47-3.25,2.9-1.49.51-3.28.12-5.16.12v34.57c1.88,0,3.75-.36,5.37.12,1.18.34,2.04,1.79,3.04,2.75-.99.96-1.84,2.42-3.01,2.77-1.63.48-3.5.12-5.44.12v31.69c1.74,0,3.6-.38,5.18.12,1.27.4,2.2,1.87,3.27,2.87-1.04.92-1.94,2.29-3.14,2.65-1.53.46-3.31.11-5.23.11v63.87h24.23c0-1.42,0-2.71,0-4,0-16.08.01-32.16-.01-48.23,0-2.17.08-4.37,2.9-4.36,2.83,0,2.89,2.22,2.88,4.38-.02,16.08-.01,32.16-.01,48.23,0,1.29,0,2.57,0,4.02h45.11v-63.91h-3.86c-16.68,0-33.36,0-50.03,0-.72,0-1.6.27-2.13-.05-1.25-.76-3.1-1.66-3.31-2.76-.41-2.16,1.35-3.03,3.45-2.95.72.03,1.44,0,2.16,0,25.92,0,51.83,0,77.75,0h4.3c0-3.11.05-5.95-.02-8.79-.05-2.11.28-4.03,2.81-4.1,2.53-.07,3.02,1.77,2.98,3.93-.06,3.6-.1,7.2,0,10.8.09,2.97-1.31,3.99-4.15,3.96-7.79-.09-15.59-.03-23.95-.03v3.89c0,20.4,0,40.8,0,61.19,0,4.35-.4,4.75-4.74,4.75-39.6,0-79.19-.02-118.79.05-3.35,0-4.69-1.06-4.68-4.55.09-30.6.09-61.19,0-91.79,0-3.47,1.31-4.6,4.67-4.56,11.98.13,23.96.05,36.18.05v-61.2c-1.35,0-2.63,0-3.91,0-10.44,0-20.88-.05-31.32.03-2.83.02-4.16-.98-4.16-3.95.04-43.2.04-86.39,0-129.59,0-2.91,1.17-4.06,4.07-4.04,10.44.08,20.88.03,31.32.03,1.29,0,2.58,0,4.24,0v-4.17c0-29.64.04-59.27-.04-88.91-.01-4.79.59-5.62,5.77-5.61,34.56.09,69.11.05,103.67.05q5.8,0,5.8,5.85c0,1.29,0,2.58,0,4.23,5.8,0,11.29.04,16.77-.02,2.13-.02,4.03.34,4.04,2.88.01,2.51-1.85,2.94-3.99,2.92-6-.06-12-.14-18,.03-3.41.1-4.9-1.16-4.61-4.6.14-1.66.02-3.34.02-5.27h-103.46v98.2h103.46c0-1.96-.36-4.04.13-5.9.33-1.26,1.86-2.19,2.86-3.27.92,1.03,1.93,2.01,2.72,3.13.28.4.05,1.17.05,1.77,0,27.72,0,55.43,0,83.15,0,.84.3,1.91-.1,2.47-.69.95-1.82,2.17-2.76,2.17-.95,0-2.15-1.18-2.78-2.14-.44-.68-.12-1.87-.12-2.82,0-22.8,0-45.6,0-68.39v-4.04ZM719.26,435.44v-125.54h-33.39v125.54h33.39ZM684.37,597.3h34.96v-88.75h-34.96v88.75Z"/>
  <path class="cls-1" d="M948.02,714.24c6.61,0,12.96.03,19.31-.02,2.1-.02,4.06.26,4.12,2.79.07,2.81-2.05,3.02-4.26,3-6.33-.05-12.67-.02-19.21-.02v20.59h25.71c0-4.89.04-9.88-.02-14.87-.03-2.25.3-4.31,3.06-4.2,2.51.1,2.76,2.09,2.73,4.17-.06,4.9-.02,9.81-.02,14.95h43.92c0-7.94,0-15.82,0-23.7,0-3.24.05-6.48-.02-9.72-.04-2.07.57-3.68,2.85-3.71,2.25-.03,2.95,1.52,2.94,3.61-.03,14.4.05,28.8-.13,43.2-.01,1.18-1.69,2.35-2.59,3.52-1.02-1.18-2.26-2.24-2.97-3.59-.44-.83-.08-2.09-.08-3.38h-75.41v55.66h75.41c0-1.23,0-2.5,0-3.77,0-9.84.02-19.68-.02-29.52,0-2.02.47-3.73,2.75-3.81,2.51-.09,3.05,1.67,3.05,3.86-.03,23.52-.03,47.04,0,70.56,0,2.16-.45,4-2.98,3.93-2.54-.07-2.82-2-2.81-4.1.04-10.19.02-20.38.02-30.84h-75.38v59.31h76.1c0-2.93.05-5.88-.02-8.82-.05-2.17.49-3.97,3.02-3.9,2.28.06,2.81,1.75,2.78,3.78-.06,3.72-.06,7.44,0,11.16.04,2.52-1.04,3.73-3.63,3.73-26.88-.02-53.76-.02-80.63,0-2.6,0-3.7-1.25-3.59-3.75.02-.48,0-.96,0-1.44,0-63.72.02-127.43-.05-191.15,0-4.4.86-5.42,5.35-5.32,7.66.18,15.33.05,23.5.05v-3.99c0-21.96.06-43.92-.05-65.88-.03-5.2.83-5.84,5.61-5.78,10.8.14,21.6.04,32.4.04q7.07,0,7.6,6.97h7.74c0-1.44-.36-2.98.11-4.2.42-1.1,1.65-2.39,2.71-2.59.81-.15,2.74,1.27,2.75,2.01.07,4.14-.09,8.3-.61,12.41-.26,2.08-1.9,4.06-4.21,3.18-1.24-.47-1.83-2.64-2.71-4.05.28-.22.55-.44.83-.65h-6.6c.11,2.95-1.57,6.07,1.96,8.27.54.34.91,1.99.57,2.53-1.2,1.88-2.54,3.78-4.23,5.2-1.85,1.56-4.19-.24-4.22-3.21-.06-5.4-.02-10.8-.02-16.2,0-1.17,0-2.35,0-3.71h-33.56v30.76h4.48c9.96,0,19.92.02,29.88-.02,2.08,0,4.08.22,4.17,2.74.11,2.77-1.96,3.07-4.21,3.06-11.38-.04-22.76-.02-34.37-.02v30.78h34.33c0-5.79,0-11.62,0-17.44,0-5.31.11-5.41,5.52-5.41,3.24,0,6.51-.25,9.7.13,1.25.15,3.1,1.56,3.32,2.67.42,2.15-1.31,3.01-3.43,2.98-2.98-.05-5.96-.01-9.14-.01v17.28c2.34,0,4.79.03,7.25,0,3.24-.04,4.81,1.52,4.79,4.77-.03,4.68.18,9.37-.13,14.03-.08,1.22-1.69,2.35-2.6,3.52-1.01-1.18-2.79-2.3-2.9-3.56-.37-4.15-.14-8.35-.14-12.75h-43.92c0,10.02,0,19.95,0,29.87,0,1.08.35,2.33-.08,3.2-.64,1.28-1.83,2.29-2.78,3.41-.96-1.11-2.72-2.19-2.76-3.34-.27-6.59-.13-13.19-.13-19.79,0-3.69,0-7.38,0-11.24h-25.66v35.82Z"/>
  <path class="cls-1" d="M868.3,439.92c-5.24,0-9.77-.1-14.3.03-3.12.09-4.23-1.26-4.19-4.29.1-8.76.06-17.52.02-26.28,0-2.14.41-4.01,2.95-3.96,2.54.04,2.86,1.95,2.84,4.07-.05,8.03-.02,16.07-.02,24.38h60.24v-40.04h-3.92c-18.84,0-37.67,0-56.51,0-.84,0-1.87.31-2.48-.07-1.15-.71-2.07-1.82-3.08-2.76.98-.98,1.83-2.54,2.97-2.8,2.06-.46,4.29-.13,6.45-.13,17.52,0,35.04,0,52.55,0h4.06v-153.08h-60.29v4.11c0,43.67,0,87.35,0,131.02,0,.96.35,2.15-.09,2.83-.72,1.13-1.85,2.46-3,2.67-.7.13-1.89-1.59-2.6-2.64-.33-.5-.07-1.4-.07-2.12,0-45.59,0-91.19,0-136.78,0-4.84.28-5.12,5.09-5.12,18.96,0,37.91,0,56.87,0h4.08v-23.04h-3.34c-17.88,0-35.76-.02-53.63.04-1.33,0-2.64.67-3.98.95-1.25.27-3.39.96-3.62.57-.83-1.4-1.39-3.21-1.3-4.82.05-.87,1.53-1.8,2.53-2.43.52-.33,1.4-.07,2.12-.07,20.76,0,41.51,0,62.27,0,4.55,0,4.89.35,4.9,4.95,0,3.71,0,7.42.77,10.64,1.18,1.31,3.12,2.54,3.29,3.97.12,1.05-2.09,2.37-3.25,3.57-.27-.17-.53-.33-.8-.5v4.64c0,68.75,0,137.5,0,206.25,0,5.32-.9,6.23-6.18,6.24-12.6,0-25.2,0-37.79,0h-4.07v4.32h3.33c6.84,0,13.68.13,20.51-.08,2.08-.07,4.21-.9,6.16-1.73,2.05-.87,4.26.13,4.31,2.54.13,6.48.17,12.96-.09,19.43-.04.99-1.87,1.91-2.87,2.87-.92-1.04-2.55-2.03-2.62-3.12-.3-4.53-.13-9.09-.13-13.89h-31.47v25.37h44.43c0-3.33.05-6.76-.02-10.19-.04-2.2.56-3.95,3.06-3.86,2.27.09,2.77,1.8,2.74,3.82-.06,4.2-.06,8.4,0,12.6.03,2.55-1.11,3.69-3.67,3.69-21.6-.02-43.19-.02-64.79,0-2.61,0-3.58-1.29-3.57-3.79.04-9,.04-18,0-27,0-2.06.56-3.7,2.83-3.73,2.54-.03,2.97,1.81,2.96,3.95-.04,8.13-.02,16.26-.02,24.59h10.08v-6.96c0-6.72-.11-13.44.09-20.15.04-1.44,1.21-2.83,1.78-4.27.5-1.28.88-2.61,1.48-4.42Z"/>
  <path class="cls-1" d="M943.9,474.35h7.25v-10.24c-1.49-2.4-3.56-4.47-3.14-5.3,1.24-2.47,3.07-5.2,5.4-6.42,2.25-1.18,3.76.94,3.73,3.64-.07,5.98-.02,11.97-.02,18.2h35.07v-29.27h-3.68c-10.68,0-21.36-.02-32.04.01-2.18,0-4.36-.12-4.33-2.94.04-2.83,2.26-2.85,4.42-2.85,11.75.03,23.51.01,35.55.01v-30h-34.99c0,6.02,0,11.98,0,17.94,0,4.52-.34,4.84-4.99,4.85-2.76,0-5.52-.05-8.28.02-2.15.05-4-.44-3.94-2.97.06-2.54,1.98-2.89,4.1-2.82,2.27.07,4.54.02,7.09.02v-17.28c-2.55,0-5.18.25-7.73-.11-1.24-.18-3.19-1.38-3.3-2.3-.22-1.82.44-3.83,1.17-5.59.14-.35,2.92-.32,3.25.25,1.4,2.39,3.5,1.99,5.56,1.99,12.72,0,25.44,0,38.15,0h4.14c-.49-4.41,1.83-5.19,5.42-5.1,7.18.19,14.36.06,21.77.06v-120c-2.19-.79-6.08,1.02-6.13-3.05-.05-4.16,3.78-2.47,6.18-3.19v-60.96c-1.06,0-2.19,0-3.33,0-22.44,0-44.87.05-67.31-.06-3.1-.02-4.49.78-4.09,4.02.19,1.54,0,3.12.04,4.67.06,2.11-.83,3.84-2.98,3.42-1.1-.22-2.54-2.08-2.66-3.32-.36-3.56-.07-7.19-.14-10.79-.06-2.81,1.34-3.77,3.99-3.74,7.68.07,15.36.02,23.04.02,18.12,0,36.23,0,54.35,0,4.79,0,5.04.25,5.04,5.17,0,62.87,0,125.74,0,188.61,0,4.58-.35,4.93-4.92,4.93-7.31,0-14.62,0-22.44,0v3.97c0,22.44,0,44.87,0,67.31,0,4.79-.26,5.04-5.17,5.04-16.32,0-32.64,0-48.95,0-4.57,0-4.9-.35-4.92-4.93,0-1.92.22-3.87-.05-5.75-.47-3.3,2.04-4.66,3.95-6.27.51-.43,2.41.06,3.06.72.63.66.86,2.18.59,3.13-.62,2.24-1.64,4.36-2.76,7.21Z"/>
  <path class="cls-1" d="M1060.8,637.2c0-6.52.03-12.51-.01-18.5-.02-2.15,0-4.41,2.8-4.46,3.1-.06,3,2.39,2.99,4.63-.03,5.97-.01,11.95-.01,18.13h45.79v-34.11h-58.75c0,4.1-.05,8.14.02,12.18.03,2.12-.31,4.03-2.85,4.07-2.54.04-2.97-1.82-2.95-3.96.05-4.8.07-9.6,0-14.4-.04-2.7,1.07-3.92,3.82-3.91,21,.04,42,.04,63,0,3.08,0,3.8,1.6,3.79,4.31-.06,14.88-.04,29.76-.01,44.64,0,2.2-.17,4.33-2.99,4.28-2.53-.05-2.92-2-2.8-4.11.05-.83,0-1.67,0-2.77h-58.81v26.92h58.81c0-1.72-.38-3.58.12-5.16.4-1.27,1.87-2.2,2.87-3.28.92,1.03,1.97,1.99,2.71,3.13.33.51.06,1.4.06,2.12,0,42.6,0,85.2,0,127.79,0,.96.33,2.14-.11,2.83-.62.97-1.81,2.17-2.75,2.17-.95,0-2.21-1.17-2.76-2.15-.47-.82-.13-2.11-.13-3.19,0-37.92,0-75.84,0-113.75v-4.4h-59.04v4.15c0,36.48,0,72.96,0,109.43,0,.96.34,2.14-.09,2.83-.71,1.14-1.81,2.49-2.96,2.72-.7.14-1.97-1.53-2.64-2.6-.38-.6-.08-1.64-.08-2.48,0-49.32,0-98.64,0-147.95,0-4.9.25-5.15,5.05-5.16,2.5,0,4.99,0,7.91,0Z"/>
  <path class="cls-1" d="M749.58,834.96v-75.91h-80.46c0,1.26,0,2.53,0,3.79,0,15.6.05,31.2-.1,46.79-.01,1.31-1.25,2.79-2.29,3.81-.29.28-2.1-.63-2.89-1.35-.47-.43-.46-1.53-.46-2.34-.02-23.64,0-47.27-.03-70.91,0-2.07.63-3.66,2.89-3.67,2.26,0,2.93,1.57,2.9,3.65-.05,4.65-.02,9.29-.02,14.11h80.38v-28.62c-4.04,0-8.07-.05-12.11.02-2.1.03-4.06-.26-4.12-2.79-.07-2.81,2.05-3.03,4.26-3,4.56.05,9.12.11,13.68-.02,2.99-.08,4.35.97,4.35,4.14-.05,38.03-.05,76.07,0,114.1,0,3.08-1.18,4.24-4.25,4.23-27.96-.06-55.91-.05-83.87,0-2.87,0-4.24-1.06-4.1-4,.09-1.92-.35-3.94.15-5.72.35-1.25,1.88-2.18,2.89-3.25.91,1.04,2.12,1.96,2.65,3.17.44,1,.09,2.35.09,3.78h80.47Z"/>
  <path class="cls-1" d="M870,547.92c0,5.23,0,10.11,0,15,0,7.56-.06,15.11.03,22.67.03,2.86-1.04,4.13-3.99,4.12-14.63-.06-29.27-.04-43.9-.01-2.16,0-3.97-.46-3.92-2.99.05-2.28,1.71-2.86,3.76-2.8,2.15.07,4.3.01,6.98.01,0-1.42,0-2.68,0-3.95,0-11.16-.07-22.31.08-33.47.02-1.41,1.04-3.89,1.86-4.01,2.33-.34,4.82.17,7.19.66.45.09,1.11,2.02.81,2.38-1.02,1.23-2.43,2.13-4.05,3.45v34.72h29.08v-35.79c-3.45,0-7-.1-10.54.03-3.01.11-4.35-1.01-4.33-4.15.09-13.55.09-27.11,0-40.66-.02-3.1,1.22-4.28,4.27-4.21,5.64.12,11.28.07,16.91.02,2.15-.02,4,.42,3.98,2.93-.02,2.54-1.92,2.9-4.04,2.87-4.91-.06-9.83-.02-15.04-.02v37.19h27.07v-6.74c0-10.44,0-20.87,0-31.31,0-2.17-.3-4.76,2.78-4.81,3.39-.06,2.98,2.71,2.98,4.97,0,11.4,0,22.79,0,34.19v3.74h27.19v-37.23c-4.75,0-9.49-.04-14.24.02-2.23.03-4.32-.23-4.24-3.03.08-2.53,2.05-2.79,4.14-2.77,5.52.06,11.04.05,16.55,0,2.52-.02,3.74,1.04,3.73,3.63-.03,13.91-.03,27.83,0,41.74,0,2.86-1.52,3.64-4.1,3.63-14.27-.05-28.55-.02-42.82-.02-1.29,0-2.57,0-4.21,0Z"/>
  <path class="cls-1" d="M1053.89,842.98h27.79v-15.48c0-5.4.04-10.79-.02-16.19-.02-2.1.27-4.06,2.8-4.11,2.81-.06,3.01,2.06,3,4.27-.04,9.24-.02,18.47-.02,27.71v3.74h25.03v-30.02c-4.5,0-9-.04-13.51.02-2.22.03-4.32-.22-4.25-3.02.07-2.53,2.04-2.8,4.13-2.78,5.28.06,10.55.05,15.83,0,2.51-.02,3.75,1.02,3.74,3.62-.03,11.51-.05,23.03,0,34.54.01,3.19-1.86,3.64-4.45,3.64-18.71-.04-37.42-.02-56.13-.02h-4.05v24.48h3.75c17.15,0,34.3,0,51.45,0,1.77,0,3.45.22,4.54-1.81.35-.65,2.03-1.19,2.73-.9.9.38,1.85,1.56,2.06,2.55.91,4.45-.39,5.91-4.92,5.91-20.27,0-40.54,0-60.81,0-4.34,0-4.73-.4-4.75-4.74-.01-4.05,0-8.1,0-12.54-2.17,0-4.15.35-5.91-.12-1.3-.34-2.31-1.76-3.44-2.7,1.09-.98,2.05-2.47,3.32-2.82,1.76-.49,3.75-.12,6.03-.12v-4.14c0-13.43.08-26.87-.05-40.3-.03-3.46,1.28-4.66,4.66-4.57,6.23.17,12.47.08,18.71.03,2.15-.02,4,.42,3.98,2.93-.02,2.54-1.92,2.89-4.05,2.86-5.63-.06-11.27-.02-17.19-.02v30.1Z"/>
  <path class="cls-1" d="M828.7,455.76h-18.59c-21.24,0-42.47,0-63.71.01-2.14,0-4.41.02-4.48-2.78-.08-3.09,2.36-3.01,4.61-3.01,26.04.02,52.07.01,78.11.01,1.3,0,2.59,0,4.33,0v-4.09c0-13.44.01-26.88-.01-40.32,0-2.14-.02-4.38,2.78-4.49,2.8-.1,3.01,2.03,3.01,4.25-.02,32.88-.02,65.75,0,98.63,0,2.22-.21,4.33-3.01,4.26-2.53-.06-2.89-2.03-2.77-4.13.05-.84,0-1.68,0-2.52,0-1.67,0-3.34,0-5.52h-3.97c-25.92,0-51.83,0-77.75,0-.84,0-1.9.32-2.47-.07-1.12-.76-2.49-1.82-2.72-2.96-.14-.7,1.51-2.02,2.6-2.63.73-.41,1.88-.09,2.84-.09,25.68,0,51.35,0,77.03,0h4.19v-34.56Z"/>
  <path class="cls-1" d="M1220.64,362.77c-8.44-2.7-16.52-5.28-25.58-8.17,9.01-2.84,17.13-5.4,25.64-8.09-1.46-2.92-2.86-5.71-4.64-9.27,3.39,1.72,6.11,3.09,9.3,4.7,2.6-8.29,5.14-16.43,7.96-25.44,2.89,8.88,5.55,17.04,8.28,25.44,3.01-1.54,5.74-2.95,9.18-4.72-1.69,3.42-3.06,6.21-4.63,9.37,8.31,2.62,16.36,5.16,25.18,7.95-8.83,2.84-16.93,5.44-25.31,8.14,1.57,3.01,2.99,5.72,4.83,9.25-3.4-1.74-6.09-3.12-9.24-4.73-2.73,8.37-5.41,16.58-8.35,25.59-2.82-8.9-5.4-17.02-8.07-25.45-2.97,1.48-5.7,2.84-9.21,4.6,1.73-3.41,3.09-6.1,4.64-9.16ZM1227.92,351.81c-1.44,2.85-.88,5.38,1.43,7.45,2.09,1.87,4.53,2.1,6.99.77,2.34-1.26,3.85-3.45,3-5.9-.7-2.01-2.33-4.27-4.16-5.19-2.93-1.46-5.51.19-7.27,2.87h0Z"/>
  <path class="cls-1" d="M945.6,277.92v4.63c0,32.86,0,65.72,0,98.58,0,1.08.34,2.36-.12,3.18-.55.98-1.81,2.15-2.76,2.15-.95,0-2.14-1.19-2.76-2.16-.44-.68-.11-1.87-.11-2.82,0-47.13,0-94.26,0-141.39,0-.48.02-.96,0-1.44-.12-2.19.53-3.95,3.03-3.86,2.27.08,2.76,1.79,2.75,3.81-.04,9.35-.02,18.71-.02,28.06,0,1.67,0,3.33,0,5.51,1.45,0,2.71,0,3.98,0,17.51,0,35.02.01,52.53-.02,2.16,0,3.97.47,3.91,3-.05,2.27-1.72,2.9-3.76,2.78-.72-.04-1.44,0-2.16,0-16.67,0-33.34,0-50.01,0h-4.49Z"/>
  <path class="cls-1" d="M1026.24,524.68c.24,11.44-2.65,18.66-8.95,24.7-8.22,7.89-16.16,16.08-24.21,24.15-1.44,1.44-2.83,2.79-4.81.83-1.97-1.95-.66-3.36.8-4.81,8.25-8.21,16.38-16.55,24.74-24.64,6.09-5.9,9.04-20.96,3.73-28.73-7.13-10.43-21.99-12.84-30.97-3.86-9.08,9.08-18.16,18.16-27.23,27.24-1.39,1.39-2.74,2.96-4.79,1.05-2.22-2.07-.68-3.53.84-5.05,9.52-9.49,19.11-18.91,28.47-28.55,3.8-3.91,8.45-5.38,13.52-5.85,3.07-.29,6.33-.42,9.29.29,12.41,2.97,19.57,12.71,19.57,23.2Z"/>
  <path class="cls-1" d="M669.25,724.32c-.06,1.06.19,2.12-.22,2.61-.82.97-1.97,2.16-3.06,2.24-.8.06-2.25-1.39-2.47-2.37-.4-1.83-.56-3.96.05-5.66.4-1.13,2.3-2.45,3.54-2.46,18.2-.16,36.39-.16,54.59.02,1.21.01,3.24,1.73,3.41,2.88.34,2.17-1.58,2.77-3.62,2.76-16.04-.03-32.08-.02-48.13-.02-1.3,0-2.6,0-4.09,0Z"/>
  <path class="cls-1" d="M1234.31,209.95v15.21h-3.83v-26.38h5.09c1.45,4.85,2.98,9.95,4.81,16.04,1.41-4.68,2.56-8.43,3.68-12.2q1.34-4.5,6.36-3.7v26.23h-3.78v-15.78c-.29-.08-.59-.16-.88-.24-.92,3.01-1.69,6.08-2.82,9.01-.46,1.18-1.72,2.05-2.62,3.06-.83-.96-1.97-1.8-2.42-2.91-1.1-2.74-1.87-5.61-2.77-8.43l-.81.08Z"/>
  <path class="cls-1" d="M834.72,263.54c0,8.39-.03,16.78.02,25.17.01,2.22-.21,4.32-3.01,4.25-2.53-.06-2.79-2.02-2.79-4.12.03-16.9.03-33.8,0-50.71,0-2.11.3-4.05,2.83-4.08,2.81-.03,2.97,2.11,2.96,4.3-.04,8.39-.02,16.78-.02,25.17Z"/>
  <path class="cls-1" d="M1140.72,820.38c0,7.79-.02,15.58.01,23.37,0,2.17-.1,4.36-2.92,4.34-2.82-.02-2.87-2.23-2.87-4.39.02-15.82.03-31.65,0-47.47,0-2.08.23-4.07,2.75-4.16,2.77-.1,3.06,1.97,3.05,4.21-.05,8.03-.02,16.06-.02,24.09Z"/>
  <path class="cls-1" d="M1054.87,509.05c-.88,1.06-1.39,2.11-2.22,2.53-.7.36-1.85.19-2.65-.13-.72-.29-1.22-1.11-1.81-1.7-9.99-9.99-19.98-19.98-29.97-29.97-1.43-1.43-3.33-2.79-1.22-5.03,2.08-2.21,3.54-.59,5.04.91,10.15,10.17,20.32,20.32,30.47,30.49.79.8,1.44,1.75,2.37,2.9Z"/>
  <path class="cls-1" d="M918.05,563.23c1.1.81,2.01,1.32,2.72,2.02,10.43,10.39,20.83,20.82,31.27,31.21,1.44,1.43,2.32,2.79.59,4.54-1.72,1.74-3.09.92-4.54-.53-10.39-10.44-20.84-20.81-31.17-31.3-.83-.85-1.26-2.44-1.22-3.66.02-.71,1.37-1.37,2.36-2.27Z"/>
  <path class="cls-1" d="M1209.62,206.14c-2.12.32-4.14.9-5.37-1.89-.31-.69-2.16-1.22-3.07-.97-.91.25-2.12,1.53-2.17,2.42-.23,4.18-.29,8.4.03,12.57.07.92,1.9,2.33,2.96,2.37,1.09.04,2.44-1.15,3.27-2.15.49-.59.21-1.83.28-2.91-1.03-.21-1.92-.39-2.92-.6v-3.93h7.74c-.13,2.77-.07,5.39-.4,7.97-.55,4.3-3.46,6.53-8.06,6.47-4.39-.05-7.64-2.63-7.87-6.76-.25-4.43-.27-8.89,0-13.31.3-4.77,3.7-7.41,8.6-7.16,4.53.23,6.89,2.84,6.99,7.87Z"/>
  <path class="cls-1" d="M1280.47,207.61v-8.84h4.5v26.88c-1.69-.43-3.13-.84-4.59-1.13-.49-.09-1.09.03-1.55.24-3.59,1.68-6.75.22-7.09-3.64-.32-3.57-.33-7.21,0-10.77.41-4.26,3.93-5.42,8.73-2.74ZM1280.39,216.11c0-1.39.28-2.58-.08-3.51-.35-.91-1.36-1.56-2.08-2.32-.71.78-1.7,1.46-2.05,2.38-.36.94-.23,2.15-.07,3.2.29,1.91-1.22,5.12,2.01,5.22,3.73.11,1.67-3.4,2.27-4.96Z"/>
  <path class="cls-1" d="M1302.22,225.99c-1.91-.72-3.27-1.3-4.68-1.71-.38-.11-.94.23-1.37.44-3.73,1.78-6.87.2-7.2-3.87-.26-3.22-.22-6.48-.04-9.7.26-4.86,3.76-6.4,8.64-3.57v-8.77h4.66v27.19ZM1298.46,216.32c-.26-.14-.52-.29-.78-.43,0-.96.26-2.02-.07-2.84-.41-1.03-1.32-1.86-2.01-2.77-.74.87-1.71,1.64-2.16,2.65-.36.8-.23,1.91-.05,2.83.38,1.96-1.37,5.21,2.27,5.22.93,0,1.87-3.02,2.8-4.65Z"/>
  <path class="cls-1" d="M1106.11,219.77c1.37-.65,2.54-1.2,3.53-1.66,1.52,1.02,2.83,2.58,4.2,2.64,1.38.06,2.83-1.36,4.25-2.14-.8-1.4-1.34-3.08-2.48-4.1-.98-.89-2.65-.98-3.97-1.52-4.04-1.63-5.44-4.27-4.8-8.87.47-3.32,2.9-5.42,6.73-5.81,4.61-.47,7,1.01,8.54,5.5-1.08.56-2.2,1.14-3.68,1.9-.64-.81-1.17-2.1-1.82-2.17-1.59-.16-3.88-.34-4.71.57-1.5,1.63-.66,3.65,1.42,4.65,1.61.77,3.37,1.21,5.02,1.9,3.57,1.5,4.89,4.14,4.36,8.45-.43,3.5-2.74,5.78-6.34,6.29-5.17.72-8.07-.79-10.25-5.62Z"/>
  <path class="cls-1" d="M1003.02,529.07c-.82,1.09-1.35,1.98-2.05,2.69-8.43,8.48-16.9,16.91-25.34,25.39-1.38,1.39-2.71,2.46-4.53.76-1.98-1.85-.91-3.29.6-4.79,8.48-8.43,16.89-16.93,25.44-25.29.84-.82,2.44-1.22,3.66-1.16.7.04,1.34,1.39,2.23,2.4Z"/>
  <path class="cls-1" d="M1267.32,348.6c-3.82-.78-6.56-1.57-8.09-5.63-2.48-6.59-7.46-11.56-14.04-14.14-3.87-1.52-5.18-3.96-5.53-7.58,11.83.19,24.03,12.11,27.65,27.35Z"/>
  <path class="cls-1" d="M1267.29,360.78c-3.13,14.65-14.33,25.78-27.79,27.57.76-3.42,1.24-6.27,5.4-7.73,6.69-2.36,11.57-7.42,14.21-13.96,1.59-3.94,4.11-5.43,8.19-5.87Z"/>
  <path class="cls-1" d="M1199.74,360.89c3.85.47,6.4,1.66,7.87,5.63,2.41,6.52,7.46,11.01,13.72,14.02,4.59,2.21,4.61,2.17,5.71,7.42-11.53.34-25.55-13.42-27.3-27.07Z"/>
  <path class="cls-1" d="M1245.79,260.72h-8.06v10.52c-1.54.08-2.79.14-4.31.22v-26.63h13.85v4.22h-9.3v6.96h7.83v4.72Z"/>
  <path class="cls-1" d="M1161.63,256.14h7.84v4.49h-8.08v10.62c-1.55.07-2.79.13-4.31.2v-26.62h13.86v4.23h-9.31v7.08Z"/>
  <path class="cls-1" d="M1199.79,348.37c.75-11.33,12.99-26,27.37-27.13-.53,3.46-1.5,5.92-5.35,7.36-6.49,2.43-11.47,7.2-13.99,13.67-1.53,3.94-3.97,5.56-8.03,6.1Z"/>
  <path class="cls-1" d="M1259.26,206.46c0,4.17-.15,8.01.1,11.81.07,1.08,1.33,2.07,2.05,3.1.78-1.01,2.16-1.97,2.23-3.03.27-3.91.11-7.84.11-11.98,1.55-.07,2.7-.13,4.18-.2v19.29c-1.56-.26-3.1-.52-5.51-.93-3.96,2.54-7.59.73-7.89-5.24-.21-4.18-.04-8.37-.04-12.83h4.78Z"/>
  <path class="cls-1" d="M1259.34,261.66c0-1.08-.03-2.16,0-3.24.12-4.26,2.25-6.39,6.46-6.49,4.18-.1,6.74,1.97,7.04,6.01.2,2.62.19,5.29-.05,7.9-.37,3.99-2.91,5.89-7.23,5.74-3.97-.14-6.1-2.3-6.22-6.33-.04-1.2,0-2.4,0-3.6ZM1263.03,261.1c1.44,2.37-.66,5.79,2.94,5.91,3.53.11,2.33-3.25,2.36-5.22.03-1.99,1.11-5.17-2.35-5.17-.99,0-1.97,2.9-2.95,4.48Z"/>
  <path class="cls-1" d="M1275.9,261.69c0-1.08-.02-2.16,0-3.24.11-4.28,2.22-6.41,6.43-6.52,4.17-.11,6.76,1.96,7.08,5.98.2,2.62.2,5.29-.04,7.9-.38,4.12-3.06,6.04-7.56,5.74-3.77-.24-5.78-2.37-5.9-6.26-.04-1.2,0-2.4,0-3.6ZM1286.09,262.11c-1.32-2.27-2.27-5.43-3.35-5.47-3.62-.15-1.88,3.17-2.33,5.11-.03.11-.02.24,0,.36.38,1.85-1.17,5,2.27,4.82,1.12-.06,2.09-2.85,3.42-4.81Z"/>
  <path class="cls-1" d="M1140.29,217.54h-10.24c.71,1.49.95,2.83,1.75,3.42.63.46,1.94.06,2.94-.06,1.44-.17,2.88-.42,4.99-.75-1.42,4.96-4.27,5.53-7.57,5.29-3.26-.24-5.53-1.92-5.89-5.2-.33-2.94-.29-5.97,0-8.92.32-3.32,2.62-5.02,5.8-5.37,3.33-.37,6.04.85,7.09,4.16.7,2.2.73,4.62,1.14,7.44ZM1135.36,214.2c.4-2.26.13-3.97-2.42-3.91-2.55.06-2.68,1.76-2.2,3.91h4.62Z"/>
  <path class="cls-1" d="M1157.03,220.24c-1.5,4.91-4.38,5.47-7.68,5.19-3.26-.27-5.46-1.99-5.82-5.28-.3-2.71-.29-5.49-.05-8.21.33-3.77,2.69-5.87,6.3-6.05,3.68-.19,6.1,1.56,6.96,5.33.44,1.92.45,3.94.69,6.25h-10.25c.84,1.62,1.14,2.95,1.97,3.53.64.45,1.94-.03,2.94-.14,1.46-.16,2.91-.36,4.94-.61ZM1153.6,214.17c-1.01-1.66-1.48-2.96-2.39-3.71-.47-.39-2.16-.14-2.55.39-.62.83-.62,2.12-.91,3.33h5.86Z"/>
  <path class="cls-1" d="M1169.52,233.17c-.02-1.97-.99-3.73,1.92-4.93.99-.41,1.47-3.86,1.03-5.62-1.36-5.41-3.28-10.67-5.13-16.45,7.94-.07,4.36,7.53,8.12,10.13.61-2.21,1.29-4.66,1.96-7.1q.91-3.3,5.01-2.57c-2.22,7.81-4.35,15.62-6.7,23.37-.86,2.84-3.2,3.58-6.21,3.17Z"/>
  <path class="cls-1" d="M1195.29,266.15c1.58.19,3.17.36,4.74.6.93.14,1.87.61,2.76.51.68-.07,1.28-.81,1.92-1.25-.43-.62-.73-1.53-1.32-1.8-1.28-.6-2.71-.88-4.09-1.27-2.66-.75-4-2.48-3.92-5.25.08-2.69,1.42-4.46,3.99-5.33,3.68-1.24,7.03.03,9.13,3.63-1.51,1.45-2.85,2.54-5.08.75-.63-.51-2.29.26-3.48.44.76.83,1.51,1.67,2.3,2.47.14.14.45.12.69.15,2.97.5,6.09,1.37,5.99,4.92-.06,2.03-1.4,4.55-2.98,5.87-2.37,1.97-7.14,1.2-9.35-.81-.68-.62-1.17-1.46-1.75-2.19.15-.49.3-.97.45-1.46Z"/>
  <path class="cls-1" d="M1182.18,352.48c-.65,2.47-1.13,5-2,7.38-.45,1.23-1.59,2.2-2.41,3.29-.76-1.16-1.87-2.22-2.21-3.5-1.14-4.28-2.01-8.62-2.99-12.94q3.07-.7,5.32,10.39c1.03-3.46,1.66-5.99,2.55-8.41.35-.95,1.3-1.67,1.98-2.5.68.82,1.64,1.53,1.97,2.47.86,2.43,1.45,4.96,2.78,7.46.49-2.47,1.11-4.92,1.45-7.41.32-2.35,1.26-3.22,3.67-2.09-1.11,4.88-2.17,9.78-3.39,14.64-.18.72-1.21,1.83-1.67,1.75-.81-.15-1.89-.94-2.13-1.69-.93-2.89-1.57-5.88-2.32-8.83-.2,0-.41-.01-.61-.02Z"/>
  <path class="cls-1" d="M1239.81,295.53v16.07c-2.54,1.07-4.1.43-5.15-2.1-1.16-2.8-2.64-5.46-4.66-8.03v10.17l-1.06.64c-.66-.76-1.86-1.51-1.89-2.29-.18-4.77-.09-9.55-.09-14.37,2.8-1.05,4.33-.27,5.35,2.38,1.1,2.83,2.62,5.5,4.51,8.13,0-2.91.08-5.82-.03-8.72-.09-2.36,1.05-2.57,3.01-1.9Z"/>
  <path class="cls-1" d="M1250.25,244.77h4.69c0,4.84-.12,9.57.05,14.28.1,2.94-1.07,6.15,1.66,8.73.53.5.08,2.05.08,3.1-3.78.89-6.25-.33-6.39-3.85-.29-7.37-.09-14.75-.09-22.27Z"/>
  <path class="cls-1" d="M1166.76,225.02c-4.31.42-6.36-.77-6.48-4.35-.24-7.26-.07-14.52-.07-21.95h4.73c0,4.3-.15,8.54.05,12.76.17,3.53-1.16,7.31,1.7,10.51.52.58.07,2.03.07,3.03Z"/>
  <path class="cls-1" d="M1213.41,246.9h3.28c1.22,2.33,2.39,4.27,3.25,6.33.32.77.25,2.05-.19,2.73-2.6,3.97-2.6,7.7-.15,11.27.64.94.42,2.46.6,3.69-4.93,1.12-6.84-.29-6.92-4.86-.04-2.03.19-4.09-.08-6.09-.17-1.29-1.16-2.46-1.5-3.76-.29-1.1-.41-2.37-.14-3.45.21-.87,1.34-1.5,1.64-2.38.32-.97.16-2.09.22-3.49Z"/>
  <path class="cls-1" d="M1182.61,271.28v-19.1c1.89.24,3.58.46,5.28.67-.07.26-.14.52-.21.78,1.74-.64,3.49-1.27,5.73-2.09-.2,3.05.25,5.24-3.25,5.38-.92.04-2.38,2.22-2.51,3.53-.35,3.53-.12,7.11-.12,10.82h-4.91Z"/>
  <path class="cls-1" d="M1304.49,252.68c-.37,1.34-.74,2.69-1.1,3.99-4.27.08-4.96.74-4.99,4.73-.03,3.21,0,6.42,0,9.83h-4.87v-19.04c1.86.28,3.63.54,5.4.8-.08.18-.16.37-.24.55,1.68-.61,3.35-1.22,5.03-1.83.26.32.52.65.77.97Z"/>
  <path class="cls-1" d="M1276.75,363.17v-16.74h10.46c.94,2.01.32,2.92-2.06,2.8-1.65-.09-3.31-.02-5.19-.02v3.97c1.78,0,3.44-.12,5.07.07.59.07,1.09.89,1.62,1.37-.57.56-1.08,1.51-1.73,1.62-1.51.24-3.09.08-4.92.08v3.8c1.93,0,3.82-.13,5.68.07.66.07,1.24.94,1.86,1.45-.61.52-1.19,1.44-1.83,1.48-2.85.16-5.71.07-8.98.07Z"/>
  <path class="cls-1" d="M1226.68,410.37c2.81.38,4.78.85,6.74.81.76-.01,1.51-1.17,2.26-1.81-.66-.6-1.22-1.43-2-1.76-1.08-.46-2.64-.19-3.41-.88-1.37-1.21-3.25-2.98-3.16-4.4.11-1.69,1.78-4.23,3.28-4.66,2.38-.69,5.18.07,7.8.21.11.58.22,1.15.33,1.73-.98.36-1.94.92-2.95,1.04-.9.1-1.94-.59-2.77-.37-.99.25-1.83,1.1-2.74,1.69.73.67,1.35,1.54,2.2,1.96,1.05.51,2.55.32,3.39,1,1.26,1.04,2.89,2.54,2.95,3.9.06,1.57-1.19,4.38-2.26,4.59-2.87.55-5.96.08-8.93-.25-.34-.04-.48-1.79-.73-2.8Z"/>
  <path class="cls-1" d="M1173.93,252.41h4.31v18.81h-4.31v-18.81Z"/>
  <path class="cls-1" d="M750.96,706.39c0,2.66.16,5.05-.08,7.4-.09.87-.95,2.07-1.73,2.34-.79.28-1.91-.4-2.89-.66.05-.29.11-.57.16-.86.81-.05,1.61-.1,1.59-.1-.65-1.69-1.79-3.45-1.96-5.3-.35-3.89,2.71-2.38,4.9-2.81Z"/>
  <path class="cls-1" d="M1104.83,840.04v-9.48c1.67.55,4.05.7,4.33,1.55.65,1.93.65,4.31.11,6.28-.22.79-2.56,1-4.44,1.64Z"/>
  <path class="cls-1" d="M686,708.19c-.21,1.75-.43,3.5-.64,5.25-.27-.01-.54-.02-.81-.03v-6.69c8.09-.48,9.83,1.05,6.9,7.61-.4-2.62-.68-4.42-.95-6.22-.27-.02-.55-.04-.82-.06-.24,1.8-.49,3.59-.73,5.39-.28.04-.57.07-.85.11-.34-1.85-.68-3.69-1.01-5.54-.36.06-.72.12-1.08.18Z"/>
  <path class="cls-1" d="M965.69,713.24v-9.45c1.68.57,3.97.79,4.16,1.53.52,2.06.47,4.42-.02,6.5-.16.67-2.38.85-4.14,1.41Z"/>
  <path class="cls-1" d="M784.26,595.96v-9.46c1.61.5,3.91.67,4.1,1.39.55,2.06.55,4.41.09,6.5-.15.69-2.37.93-4.19,1.57Z"/>
  <path class="cls-1" d="M892.59,381.8c-.3,1.19-.26,2.62-.97,3.32-.53.53-2,.12-3.05.13,0-2.39,0-4.78.16-7.16,0-.08,2.47-.43,2.84.07.7.92.71,2.37,1.02,3.65Z"/>
  <path class="cls-1" d="M976.97,432.58c.36-1.18.48-2.55,1.19-3.5.32-.43,2.61-.05,2.62.04.13,2.47.07,4.94.05,7.42-.97-.04-2.47.3-2.81-.18-.67-.97-.71-2.38-1.05-3.77Z"/>
  <path class="cls-1" d="M1128.55,523.11c-.9,1.07-1.71,2.91-2.73,3.04-2.44.31-2.13-1.9-2.18-3.53-.02-.59-.2-1.29.04-1.76.57-1.11,1.35-2.11,2.05-3.15.71,1.01,1.51,1.98,2.1,3.07.25.46.04,1.16.04,1.76.23.19.46.38.68.57Z"/>
  <path class="cls-1" d="M996.15,627.04c.05-.78-.18-1.91.27-2.62.45-.72,1.56-1.04,2.39-1.53.54,1.76,1.4,3.51,1.5,5.29.06,1.04-1.11,2.15-1.72,3.23-.77-.57-1.76-1.01-2.24-1.77-.38-.61-.14-1.61-.19-2.61Z"/>
  <path class="cls-1" d="M1195.85,599.88c-.36,1.35-.44,2.73-1.12,3.69-.29.41-2.67,0-2.68-.15-.19-2.39-.2-4.79-.03-7.18.01-.16,2.38-.57,2.59-.23.68,1.12.87,2.55,1.25,3.87Z"/>
  <path class="cls-1" d="M1070.57,568.92c-.36,1.35-.44,2.73-1.12,3.69-.29.41-2.67,0-2.68-.15-.19-2.39-.2-4.79-.03-7.18.01-.16,2.38-.57,2.59-.23.68,1.12.87,2.55,1.25,3.87Z"/>
  <path class="cls-1" d="M989.49,796.21c0-.83-.3-1.84.07-2.44.46-.75,1.68-1.81,2.21-1.63,3.07,1,1.71,3.76,1.74,5.79.01.89-1.25,2.51-2.02,2.57-2.59.2-1.98-2-2.08-3.57-.02-.24,0-.47,0-.71.03,0,.05,0,.08,0Z"/>
  <path class="cls-1" d="M971.84,434.13c-.1-1.12-.29-2.23-.28-3.35,0-.54.31-1.49.61-1.54,1-.18,2.96-.08,2.97,0,.11,2.43.05,4.87,0,7.3-1.07-.11-2.21-.04-3.19-.4-.39-.15-.42-1.25-.62-1.92.17-.03.34-.06.51-.09Z"/>
  <path class="cls-1" d="M669.5,711.53c-1,.68-2.03,1.93-2.98,1.87-.98-.06-2.45-1.25-2.7-2.21-.44-1.67-.49-3.67.02-5.3.32-1.01,1.93-2.11,3.04-2.21.81-.07,1.76,1.42,2.65,2.22-.26.29-.52.58-.78.88-.8-.5-1.6-1.01-2.95-1.85v6.98c1.13-.54,2.02-.95,2.9-1.37.26.33.53.66.79.99Z"/>
  <path class="cls-1" d="M982.02,395.82c.16.89.69,1.94.41,2.65-.4.99-1.42,1.72-2.17,2.56-.73-.89-1.71-1.69-2.12-2.71-.29-.73.02-1.82.34-2.64.44-1.12,1.15-2.14,1.75-3.21.88.9,1.76,1.8,2.64,2.7l-.86.65Z"/>
  <path class="cls-1" d="M978.53,264.77c.8-.88,1.54-2.41,2.42-2.5,2.13-.22,2.33,1.4,2.04,3.18-.12.76.27,1.59.17,2.36-.12.88-.29,2.06-.88,2.47-.59.41-1.97.33-2.55-.12-.59-.45-.78-1.61-.84-2.47-.05-.74.34-1.51.54-2.27-.3-.21-.6-.43-.9-.64Z"/>
  <path class="cls-1" d="M988.52,265.53c.16,1.02.62,2.12.38,3.03-.22.82-1.34,2.1-1.83,2-.94-.18-2.27-1.08-2.45-1.9-.33-1.51-.18-3.24.24-4.75.21-.74,1.94-1.83,2.16-1.67.93.7,1.56,1.81,2.3,2.77-.27.17-.54.33-.81.5Z"/>
  <path class="cls-1" d="M980.56,466.56c.17.9.7,1.93.43,2.67-.33.91-1.32,1.58-2.02,2.36-.8-.72-2.07-1.33-2.28-2.2-.33-1.38-.2-3.01.2-4.4.23-.8,1.37-1.33,2.1-1.99.81,1,1.61,2,2.42,3-.28.19-.57.37-.85.56Z"/>
  <path class="cls-1" d="M716.96,711.47c.33-.1.65-.26.98-.29.97-.1,1.94-.15,2.92-.22-.69-.65-1.46-1.23-2.03-1.98-.73-.95-1.67-1.99-1.79-3.08-.07-.69,1.1-2.07,1.85-2.17,1.13-.16,2.37.53,3.57.86l-.31,1.13c-.99-.15-1.97-.3-2.96-.44-.22.24-.44.48-.66.73.72.65,1.57,1.2,2.12,1.96.75,1.04,1.61,2.2,1.77,3.39.08.62-1.23,1.98-1.96,2.02-1.23.06-2.51-.66-3.77-1.05.09-.29.18-.58.27-.87Z"/>
  <path class="cls-1" d="M707.99,713.8c-1.46-.54-2.92-1.08-4.38-1.62.84-1.26,1.67-2.53,2.6-3.93-.32-.08-1.19-.3-2.06-.51-.03-.24-.06-.48-.09-.71.99-.15,2.75-.64,2.85-.41.87,2.01,1.45,4.15,2.11,6.25l-1.05.93Z"/>
  <path class="cls-1" d="M743.89,713.86c-1.43-.59-2.87-1.18-4.3-1.77.89-1.25,1.78-2.5,2.74-3.86-.44-.09-1.31-.26-2.19-.43-.01-.29-.02-.57-.03-.86,1.01-.11,2.77-.56,2.9-.28.87,1.92,1.39,4,2.03,6.03-.38.39-.76.78-1.14,1.17Z"/>
  <path class="cls-1" d="M726.57,709.74c1.75-1.56,2.79-2.48,3.83-3.4.77,1.25,1.89,2.41,2.22,3.77.42,1.73-.14,3.73-2.43,3.29-1.12-.22-1.96-1.91-3.62-3.66Z"/>
  <path class="cls-1" d="M1101.33,569.78c0-.07.22,1.01-.16,1.8-.32.68-1.3,1.34-2.05,1.41-.53.05-1.57-.81-1.67-1.39-.26-1.52-.37-3.15-.06-4.64.19-.91,1.25-1.65,1.92-2.46.67.82,1.45,1.57,1.97,2.47.26.45.05,1.17.05,2.8Z"/>
  <path class="cls-1" d="M754.33,711.81c.84.05,1.68.1,2.53.15.04.32.08.64.13.96-1.05.11-2.91.56-3.02.29-.65-1.62-1.16-3.4-1.15-5.13,0-.57,2.14-1.81,2.55-1.55,1.08.69,1.75,2.02,2.93,3.55-1.95.43-3.01.66-4.08.9.04.28.08.55.12.83Z"/>
  <path class="cls-1" d="M682.97,710.23c-1.81.35-2.77.53-3.72.72,0,.21,0,.42,0,.63.86.12,1.72.24,2.59.36.05.33.1.66.15.99-1.13.09-3.07.57-3.24.21-.68-1.47-1.17-3.22-1.02-4.79.07-.72,1.79-1.29,2.75-1.92.74,1.13,1.48,2.27,2.48,3.8Z"/>
  <path class="cls-1" d="M742.47,594.55c.73-2.35,1.56-5,2.38-7.66.24-.02.48-.03.73-.05.87,2.72,1.74,5.45,2.57,8.07-1.9-.12-3.59-.23-5.68-.36Z"/>
  <path class="cls-1" d="M1078.57,839.54h-5.62c.72-2.39,1.54-5.12,2.37-7.85.26,0,.51-.02.77-.03.86,2.72,1.72,5.45,2.48,7.87Z"/>
  <path class="cls-1" d="M970.88,738.02h-5.54c.7-2.36,1.51-5.13,2.33-7.89.28.02.57.03.85.05.82,2.73,1.65,5.47,2.36,7.84Z"/>
  <path class="cls-1" d="M782.85,480.3c.85,2.67,1.7,5.33,2.54,7.95-1.84-.08-3.52-.16-5.62-.26.67-2.21,1.5-4.95,2.34-7.7.25,0,.49,0,.74,0Z"/>
  <path class="cls-1" d="M962.21,729.71c.76,2.18,1.39,3.52,1.65,4.92.2,1.05.14,2.27-.24,3.25-.18.45-1.82.91-2.05.66-.72-.76-1.61-1.96-1.46-2.81.36-1.98,1.3-3.85,2.1-6.03Z"/>
  <path class="cls-1" d="M671.41,703.72c2.45,3.05,6.73,5.06,3.2,10.32-.32-2.34-.57-4.14-.82-5.93-.26-.03-.53-.05-.79-.08-.3,1.77-.6,3.54-.9,5.31-.23-.03-.47-.05-.7-.08v-9.54Z"/>
  <path class="cls-1" d="M780.9,526.31c-.84-1.86-1.72-3.26-2.06-4.78-.22-1,.14-2.27.63-3.22.2-.39,1.79-.62,2.11-.29.66.67,1.36,1.86,1.2,2.67-.39,1.97-1.26,3.84-1.88,5.61Z"/>
  <path class="cls-1" d="M1199.2,604.22c-.84-1.95-1.63-3.26-1.95-4.68-.23-1.03-.07-2.29.34-3.28.18-.44,1.83-.84,2.06-.59.71.79,1.57,1.99,1.43,2.88-.32,1.94-1.22,3.78-1.88,5.67Z"/>
  <path class="cls-1" d="M1197.05,761.78c-.86-1.96-1.61-3.17-1.9-4.48-.24-1.04-.15-2.29.22-3.29.17-.45,1.8-.92,2.04-.68.73.76,1.66,1.95,1.51,2.81-.32,1.96-1.24,3.83-1.87,5.64Z"/>
  <path class="cls-1" d="M890.21,423.71c.76,2.18,1.39,3.52,1.65,4.92.2,1.05.14,2.27-.24,3.25-.18.45-1.82.91-2.05.66-.72-.76-1.61-1.96-1.46-2.81.36-1.97,1.3-3.84,2.1-6.02Z"/>
  <path class="cls-1" d="M739.94,595.86c-.8-2.17-1.45-3.47-1.74-4.85-.22-1.07-.19-2.31.15-3.33.15-.43,1.84-.89,2.05-.65.7.8,1.55,1.98,1.42,2.88-.27,1.9-1.13,3.71-1.89,5.95Z"/>
  <path class="cls-1" d="M734.66,588.65c.76,1.52,1.72,2.85,2.02,4.32.14.66-.88,2-1.66,2.29-.65.24-1.7-.58-3.29-1.22,1.74-.52,2.6-.78,3.47-1.04-.63-.52-1.54-.93-1.81-1.59-.51-1.23-.64-2.62-1.01-4.31h4.98c-1.6.93-2.39,1.38-2.7,1.57Z"/>
  <path class="cls-1" d="M884.69,423.61c.75,2.24,1.37,3.58,1.61,4.99.19,1.08.12,2.33-.27,3.34-.17.43-1.86.85-2.09.59-.7-.79-1.55-2.01-1.38-2.89.37-1.98,1.31-3.84,2.12-6.04Z"/>
  <path class="cls-1" d="M1005.92,729.73c.76,2.22,1.37,3.5,1.61,4.85.2,1.07.18,2.3-.18,3.3-.16.45-1.85.91-2.05.68-.68-.79-1.53-1.98-1.38-2.85.34-1.97,1.24-3.83,1.99-5.98Z"/>
  <path class="cls-1" d="M775.54,439.65c.74,2.09,1.42,3.47,1.68,4.91.19,1.06.04,2.3-.39,3.28-.19.43-1.82.8-2.11.51-.66-.66-1.37-1.84-1.21-2.63.4-2.02,1.28-3.94,2.02-6.07Z"/>
  <path class="cls-1" d="M961.95,704.09c.79,2.02,1.54,3.47,1.88,5.02.2.93-.01,2.13-.48,2.95-.27.47-1.81.84-2.11.55-.67-.65-1.4-1.82-1.24-2.61.41-2.03,1.28-3.97,1.95-5.91Z"/>
  <path class="cls-1" d="M814.18,578.29c1.39-.69,2.19-1.08,2.99-1.48-.77-.58-1.53-1.15-2.53-1.91v-3.73h4.26c-1.32.94-2.03,1.46-2.16,1.54.7,1.83,1.49,3.33,1.77,4.93.09.53-1.04,1.69-1.75,1.82-.7.13-1.58-.67-2.6-1.17Z"/>
  <path class="cls-1" d="M951.55,561.95h-2.99c.4,2.52,6.17,2.79,2.49,6.29-.67.64-2.47.09-3.74.09.03-.46.05-.92.08-1.38.91.09,1.82.17,3.94.38-1.32-1.26-2.04-1.82-2.59-2.51-.61-.77-1.45-1.65-1.46-2.49,0-.67,1.01-1.79,1.71-1.91.85-.15,1.85.54,2.78.87-.07.23-.15.45-.22.68Z"/>
  <path class="cls-1" d="M780.61,595.65c-.8-1.97-1.55-3.29-1.85-4.7-.23-1.06-.09-2.33.31-3.34.17-.42,1.85-.82,2.09-.55.7.79,1.53,1.99,1.38,2.88-.33,1.92-1.23,3.74-1.93,5.71Z"/>
  <path class="cls-1" d="M872.41,219.03c1.26.2,2.19.34,3.34.52.52-2.79-6.47-3.38-1.86-6.76.63-.46,2.11.22,3.2.38-.06.35-.11.7-.17,1.05-.89-.06-1.79-.12-3.01-.2,1.27,1.95,3.07,3.53,3.23,5.25.2,2.17-2.6,2.28-4.72-.25Z"/>
  <path class="cls-1" d="M820.29,577.99c.78-.3,1.55-.6,2.33-.91-.52-.49-1.27-.89-1.52-1.5-.53-1.29-.79-2.68-1.25-4.35h3.99l.16.56c-.7.41-1.41.82-1.66.96.63,1.66,1.68,3.18,1.67,4.7-.01,2.56-1.93,2.78-3.72.53Z"/>
  <path class="cls-1" d="M901.72,533.04c.64,1.94,1.33,3.35,1.5,4.81.07.63-.84,1.79-1.5,1.96-.7.18-1.63-.52-3.08-1.08,1.62-.62,2.4-.92,3.18-1.22-.63-.53-1.57-.94-1.81-1.61-.46-1.25-.52-2.66-.81-4.37,1.45-.07,2.56-.13,3.67-.18.12.25.23.5.35.75-.7.44-1.4.88-1.49.93Z"/>
  <path class="cls-1" d="M1073.16,864.53c-.81-2.71-5.82-2.66-3.04-6.09.56-.69,2.39-.34,3.64-.47.02.41.04.83.06,1.24-.93.05-1.87.11-3.07.17.68,2.43,5.95,2.64,2.7,6.05-.64.67-2.59.1-3.93.1.03-.42.05-.84.08-1.25,1.03.07,2.05.14,3.57.25Z"/>
  <path class="cls-1" d="M773.12,586.73c1.84.1,2.87.16,4.73.26-1.37.97-2.09,1.48-2.82,2,2.2,1.5,3.21,4.54,1.71,5.68-.73.56-2.14.24-3.24.32v-.96c.77-.42,1.55-.84,2.33-1.26-.58-.45-1.45-.8-1.67-1.39-.49-1.31-.64-2.75-1.04-4.65Z"/>
  <path class="cls-1" d="M1195.16,707.97h4.71c-1.47,1.01-2.2,1.51-2.26,1.55.63,1.77,1.35,3.17,1.55,4.64.09.64-.77,1.84-1.42,2.04-.7.21-1.66-.46-3.2-.97,1.65-.63,2.42-.92,3.19-1.22-.59-.55-1.48-1-1.71-1.67-.46-1.33-.57-2.78-.85-4.36Z"/>
  <path class="cls-1" d="M865.79,538.33c.72-.22,1.44-.45,2.16-.67-.45-.55-1.06-1.04-1.33-1.67-.56-1.33-.93-2.73-1.49-4.45h4.94c-1.43,1-2.16,1.5-2.29,1.6.64,1.71,1.39,3.1,1.61,4.56.1.65-.72,1.87-1.37,2.08-.7.23-1.68-.41-2.54-.67.1-.26.2-.52.31-.78Z"/>
  <path class="cls-1" d="M773.25,517.91h4.69c-1.48,1.01-2.22,1.51-2.25,1.53.63,1.8,1.34,3.2,1.53,4.66.08.64-.79,1.82-1.44,2.02-.7.2-1.65-.47-3.15-.99,1.62-.63,2.39-.93,3.17-1.23-.6-.54-1.51-.98-1.74-1.65-.46-1.34-.55-2.8-.81-4.34Z"/>
  <path class="cls-1" d="M772.44,480.1c.77,2.06,1.5,3.54,1.83,5.1.2.94,0,2.14-.46,2.98-.25.46-1.82.8-2.12.5-.65-.64-1.34-1.81-1.18-2.61.4-2.03,1.25-3.96,1.93-5.98Z"/>
  <path class="cls-1" d="M996.62,660.47c1.1-.19,2.2-.37,3.29-.56v6.8c-.26-.11.42.18,1.1.46-.02.2-.04.4-.06.6h-4.58c1.13-2.12,2.18-4.11,3.54-6.67-1.5.29-2.27.43-3.03.58-.09-.41-.18-.81-.27-1.22Z"/>
  <path class="cls-1" d="M1217.05,220.86v4.27h-4.13v-4.27h4.13Z"/>
  <path class="cls-1" d="M1130.15,517.67c1.08.07,2.17.14,3.25.21.05.21.09.42.14.63-.79.44-1.58.87-1.77.98.67,1.75,1.45,3.23,1.73,4.8.1.55-.96,1.74-1.63,1.87-.72.13-1.62-.65-2.17-1.78.71.08,1.43.16,2.49.27-1.05-2.15-2.03-4.13-3-6.12.32-.29.65-.57.97-.86Z"/>
  <path class="cls-1" d="M985.56,797.6c.39-.51.77-1.02,1.79-2.35.13,2.29.21,3.75.3,5.32-1.88-.72-3.13-1.19-4.81-1.83.84-2.27,1.69-4.57,2.55-6.87.41.13.81.25,1.22.38-.51,1.65-1.02,3.29-1.54,4.94.16.14.33.28.49.42Z"/>
  <path class="cls-1" d="M777.97,305.05c1.58.43,2.28.62,2.9.79v-5.23c-.5.11-1.22.27-2.42.54.49-.85.83-1.87,1.09-1.85.99.07,2.7.32,2.8.8.4,1.88.62,3.93.31,5.81-.34,2.03-2.25,1.92-4.69-.86Z"/>
  <path class="cls-1" d="M1099.12,837.44c.78.14,1.56.28,2.15.39v-5.24c-.59.16-1.28.35-2.59.7.57-.95.83-1.78,1.1-1.78,1-.01,2.8.1,2.87.44.38,2.01.48,4.1.38,6.15-.02.49-1.18,1.32-1.79,1.3-.82-.03-1.63-.72-2.44-1.13.11-.28.22-.56.33-.84Z"/>
  <path class="cls-1" d="M953.79,710.41c1.48.41,2.18.61,2.75.76v-5.26c-.55.14-1.25.32-2.51.64.49-.89.73-1.72,1-1.73,1-.03,2.82.06,2.88.37.38,2.01.72,4.15.4,6.14-.33,2.01-2.32,1.84-4.52-.93Z"/>
  <path class="cls-1" d="M986.25,398.01c.39-.5.77-1,1.78-2.29.15,2.2.25,3.65.37,5.3-1.89-.74-3.13-1.23-4.84-1.9.83-2.24,1.68-4.54,2.54-6.84.4.12.8.24,1.2.36-.5,1.64-.99,3.28-1.49,4.92.15.15.3.3.45.45Z"/>
  <path class="cls-1" d="M1087.67,785.54c.78.17,1.56.33,2.4.51-.13-1.78-.25-3.32-.38-5.16-.44.07-1.21.19-2.56.39.73-.94,1.2-1.92,1.49-1.87.98.17,2.53.53,2.71,1.14.47,1.62.51,3.43.34,5.13-.07.7-1.07,1.8-1.71,1.84-.85.06-1.77-.72-2.66-1.15.13-.28.25-.56.38-.85Z"/>
  <path class="cls-1" d="M907.05,536.97c.39-.5.77-1,1.78-2.29.15,2.2.25,3.65.37,5.3-1.89-.74-3.13-1.23-4.84-1.9.83-2.24,1.68-4.54,2.54-6.84.4.12.8.24,1.2.36-.5,1.64-.99,3.28-1.49,4.92.15.15.3.3.45.45Z"/>
  <path class="cls-1" d="M998.07,731.3c.97-.36,2.06-1.16,2.87-.94.61.17,1,1.61,1.25,2.55.25.97.42,2.07.23,3.03-.18.94-.7,2.34-1.35,2.52-.88.24-2.02-.5-3.05-.82.11-.34.22-.69.33-1.03.78.15,1.55.31,2.14.43v-5.08c-.54.04-1.36.11-2.19.18-.08-.28-.15-.56-.23-.84Z"/>
  <path class="cls-1" d="M954.17,731.25c.98-.34,2.09-1.12,2.89-.87.62.19.97,1.63,1.2,2.58.24.98.43,2.07.23,3.03-.19.93-.73,2.31-1.39,2.49-.86.23-1.98-.53-2.99-.86.12-.34.23-.69.35-1.03.78.17,1.55.33,2.4.51-.11-1.77-.2-3.31-.31-5.15-.48.07-1.25.19-2.01.31-.12-.33-.24-.67-.36-1Z"/>
  <path class="cls-1" d="M990.37,665.76c1.59.44,2.29.63,2.91.8v-5.23c-.5.11-1.23.27-2.36.53.35-.74.54-1.59.79-1.6,1-.07,2.86,0,2.9.24.32,2.13.96,4.57.24,6.42-.85,2.18-2.71,1.64-4.47-1.14Z"/>
  <path class="cls-1" d="M698.88,708.11v3.5h2.88c.05.39.1.79.16,1.18-1.21.11-2.42.21-3.63.32-.15-1.95-.48-3.93-.27-5.84.03-.3,2.47-.34,3.79-.5.03.45.06.9.09,1.35h-3.01Z"/>
  <path class="cls-1" d="M725.72,704.45c.23,2.84.47,5.68.75,9.18-.81-.46-1.98-.76-2.04-1.2-.34-2.6-.43-5.23-.6-7.85.63-.04,1.26-.08,1.89-.13Z"/>
  <path class="cls-1" d="M1063.94,837.24c.35-.61.7-1.22,1.04-1.83.25.04.51.08.76.12v4.77c-1.6-.74-2.79-1.29-4.5-2.08.77-2.15,1.59-4.44,2.42-6.72.38.12.76.23,1.14.35l-1.48,5.03c.21.12.41.24.62.36Z"/>
  <path class="cls-1" d="M981.98,864.12c.84-2.26,1.67-4.48,2.5-6.7.38.12.75.24,1.13.36-.49,1.68-.99,3.35-1.48,5.03.14.09.29.19.43.28.44-.58.88-1.15,1.99-2.63v5.76c-1.6-.74-2.79-1.28-4.57-2.11Z"/>
  <path class="cls-1" d="M1088.31,633.92c.91.35,1.52.58,2.14.82-.02.21-.04.42-.06.63h-4.39c1.15-2.14,2.18-4.06,3.5-6.51-1.38.15-2.15.23-2.92.32-.07-.36-.15-.72-.23-1.09l3.46-.41c-.08,1.41-.05,2.84-.28,4.23-.1.64-.7,1.19-1.22,2.02Z"/>
  <path class="cls-1" d="M1099.99,660.37c1.12-.13,2.25-.26,3.37-.39-.09,2.02-.17,4.03-.29,6.73-.27-.15.4.22,1.06.59-.04.19-.07.38-.11.56h-4.39c1.14-2.11,2.17-4.02,3.43-6.36h-2.95c-.04-.38-.09-.76-.13-1.14Z"/>
  <path class="cls-1" d="M1193.01,864.74c-.31-.13.36.16,1.03.45-.02.2-.04.4-.06.59h-4.47c1.1-2.12,2.15-4.12,3.5-6.72-1.55.33-2.32.5-3.09.66-.09-.4-.18-.79-.27-1.19,1.12-.21,2.24-.42,3.36-.63v6.83Z"/>
  <path class="cls-1" d="M1070.13,838.59c-.15-1.89-.28-3.4-.42-5.19-.45.08-1.13.21-1.83.34-.04-.41-.14-.79-.07-.82.86-.39,1.75-.99,2.62-.97.4.01,1.13,1.27,1.1,1.94-.08,2.02-.46,4.03-.72,6.05-1.18-.2-2.36-.4-3.54-.6l.2-1.14c.82.12,1.64.24,2.67.39Z"/>
  <path class="cls-1" d="M1097.56,839.58c-2.03-.89-3.23-1.42-4.81-2.11.8-2.2,1.61-4.42,2.42-6.63.38.11.76.22,1.13.34-.48,1.65-.96,3.3-1.65,5.66.99-.89,1.51-1.37,2.51-2.27.14,1.8.26,3.2.4,5.01Z"/>
  <path class="cls-1" d="M990.73,863.18c.4-.48.8-.97,1.71-2.06.22,1.92.38,3.3.58,5.05-2.01-.83-3.32-1.36-4.93-2.02.85-2.26,1.7-4.48,2.54-6.7.38.12.75.23,1.13.35-.49,1.65-.98,3.31-1.47,4.96.15.14.3.28.44.42Z"/>
  <path class="cls-1" d="M1083.73,784.74c.45-.56.91-1.11,1.85-2.27.19,2.03.32,3.43.49,5.21-1.85-.78-3.14-1.32-4.84-2.03.8-2.21,1.61-4.42,2.41-6.64.38.11.75.21,1.13.32-.5,1.73-1,3.47-1.49,5.2.15.07.3.14.45.21Z"/>
  <path class="cls-1" d="M1197.39,859.32c-.42.1-1.05.26-2.14.52.41-.84.66-1.73.86-1.72,1.01.07,2.75.18,2.86.62.44,1.8.64,3.75.44,5.6-.23,2.18-1.91,2.29-4.3.09h2.84c-.19-1.74-.36-3.25-.57-5.1Z"/>
  <path class="cls-1" d="M884.43,216.43c-.23-.09-.88-.34-1.9-.73,3.93-.83,4.08-.6,3.58,5.5-1.37-.44-2.62-.85-3.87-1.25.67-1.07,1.34-2.14,2.2-3.51Z"/>
  <path class="cls-1" d="M1103.25,571.02c.73.17,1.46.34,2.31.53-.13-1.77-.24-3.33-.37-5.2h-1.94c-.07-.27-.14-.54-.21-.8.84-.32,1.78-1.01,2.5-.83.61.15,1.22,1.26,1.38,2.04.26,1.23.32,2.57.11,3.8-.16.9-.75,2.21-1.41,2.39-.78.22-1.84-.58-2.78-.94.14-.33.28-.66.41-.99Z"/>
  <path class="cls-1" d="M873.79,538.35c-.18-1.93-.33-3.5-.48-5.2-.5.05-1.18.12-2.43.24.71-.91,1.09-1.73,1.38-1.7.93.1,2.61.49,2.62.8.07,2.38-.2,4.76-.36,7.15-1.15-.12-2.3-.24-3.44-.36.05-.41.09-.82.14-1.23.8.09,1.59.18,2.58.29Z"/>
  <path class="cls-1" d="M1082.45,866.52c-1.19-.59-2.38-1.18-3.57-1.77.78-.97,1.56-1.95,2.46-3.07-.42-.15-1.08-.39-2.19-.79.87-.34,1.38-.74,1.82-.67,3.82.59,1.51,3.52,2.19,5.32-.24.33-.47.65-.71.98Z"/>
  <path class="cls-1" d="M990.93,629.34c.73.17,1.46.34,2.31.53-.13-1.77-.24-3.33-.37-5.2h-1.94c-.07-.27-.14-.54-.21-.8.84-.32,1.78-1.01,2.5-.83.61.15,1.22,1.26,1.38,2.04.26,1.23.32,2.57.11,3.8-.16.9-.75,2.21-1.41,2.39-.78.22-1.84-.58-2.78-.94.14-.33.28-.66.41-.99Z"/>
  <path class="cls-1" d="M1173.79,248.99v-4.08h4.27v4.08h-4.27Z"/>
  <path class="cls-1" d="M884.96,466.36c-.97.6-1.51.93-2.34,1.44-.14-.85-.26-1.57-.42-2.48h4.6c-.75,3.02-1.43,5.74-2.11,8.46-.36-.08-.71-.16-1.07-.25.4-2.15.8-4.29,1.33-7.18Z"/>
  <path class="cls-1" d="M883.75,385.74c.43-2.24.86-4.48,1.37-7.14-.9.47-1.45.77-2.01,1.06q-.63-2.5,3.71-2.12c-.62,2.87-1.23,5.66-1.84,8.45-.41-.08-.82-.16-1.23-.25Z"/>
  <path class="cls-1" d="M777.88,481.46c-1.09.59-1.63.88-2.21,1.2q-.28-2.62,3.87-2.01c-.62,2.78-1.23,5.52-1.84,8.26-.41-.08-.83-.16-1.24-.23.43-2.18.86-4.37,1.42-7.21Z"/>
  <path class="cls-1" d="M1091.82,627.24h4.27c-.67,2.99-1.29,5.72-1.9,8.44-.39-.06-.78-.13-1.16-.19.39-2.18.77-4.35,1.22-6.91-.96.4-1.59.67-2.42,1.01v-2.35Z"/>
  <path class="cls-1" d="M960.75,569.07c-1.46-.56-2.59-.99-3.72-1.42.68-1.09,1.36-2.19,2.12-3.41-.19-.07-.93-.34-1.96-.71,3.81-1,3.95-.79,3.56,5.55Z"/>
  <path class="cls-1" d="M972.53,471.24c.4-2.07.79-4.14,1.27-6.62-.89.19-1.54.33-2.19.47-.14-.32-.28-.65-.42-.97,1.16-.5,2.31-.99,3.47-1.49.28.24.57.48.85.72-.6,2.73-1.2,5.46-1.8,8.19l-1.18-.3Z"/>
  <path class="cls-1" d="M779.56,448.3c.41-2.15.81-4.31,1.26-6.67-.9.11-1.58.19-2.26.27-.03-.46-.16-1.3-.07-1.33,1.15-.32,2.33-.53,4.2-.9-.73,3.41-1.31,6.1-1.89,8.8-.41-.06-.83-.11-1.24-.17Z"/>
  <path class="cls-1" d="M774.5,307.18c.41-2.14.83-4.27,1.29-6.65-.89.12-1.56.21-2.24.3-.05-.46-.21-1.3-.12-1.33,1.14-.35,2.31-.59,4.3-1.04-.8,3.52-1.43,6.24-2.05,8.95-.4-.08-.79-.16-1.19-.24Z"/>
  <path class="cls-1" d="M887.63,466.35c1.14-.53,2.28-1.05,3.42-1.58.3.23.6.46.9.69-.57,2.74-1.15,5.48-1.72,8.23-.4-.07-.8-.14-1.21-.2.39-2.09.78-4.17,1.25-6.67-.87.19-1.5.33-2.14.47-.17-.31-.33-.63-.5-.94Z"/>
  <path class="cls-1" d="M712.21,713.39c-2.32-1.29-2.83-5.04-.87-9.59.28,3.08.56,6.16.87,9.59Z"/>
  <path class="cls-1" d="M1090.85,864.62h2.74c-.57-1.31-1.12-2.57-1.67-3.83,1.07-.12,2.14-.23,3.21-.35.02.3.04.6.06.9-.59.09-1.18.18-1.76.27q-.86,3.96-2.58,3Z"/>
  <path class="cls-1" d="M898.38,216.39c-.61.03-1.21.06-1.81.1q-.53,4.1-1.94,3.36c1.19-.18,1.96-.3,2.71-.42q.55-3.79,1.05-3.04Z"/>
  <path class="cls-1" d="M969.77,567.4c.77-.06,1.54-.12,1.95-.16-.67-1.12-1.35-2.27-2.04-3.42,1.1-.34,2.19-.69,3.29-1.03.07.41.13.81.2,1.22-.63.06-1.27.12-1.72.17.67,1.13,1.37,2.3,2.07,3.48-1.2.35-2.4.71-3.6,1.06-.05-.44-.11-.88-.16-1.32Z"/>
  <path class="cls-1" d="M897.51,531.68v8.09c-.3,0-.61-.02-.91-.02.13-2.75-.83-5.52-.3-8.26l1.21.2Z"/>
  <path class="cls-1" d="M1078.76,787.43c.15-2.75-.86-5.52-.28-8.26.4,0,.8,0,1.19.01v8.26c-.3,0-.61,0-.91-.01Z"/>
  <path class="cls-1" d="M1091.23,831.11v8.96c-1.78-4.19-1.65-8.29,0-8.96Z"/>
  <path class="cls-1" d="M812.57,571.24v9.04c-1.79-4.57-1.63-8.43,0-9.04Z"/>
  <path class="cls-1" d="M880.99,424.31v8.96c-1.78-4.19-1.65-8.29,0-8.96Z"/>
  <path class="cls-1" d="M771.49,587.15v8.07c-.31-.01-.61-.02-.92-.03.18-2.75-.81-5.53-.24-8.27.39.08.77.15,1.16.23Z"/>
  <path class="cls-1" d="M771.55,517.91v8.96c-1.78-4.19-1.65-8.29,0-8.96Z"/>
  <path class="cls-1" d="M768.71,480.37v8.84c-1.79-3.56-1.73-8.03,0-8.84Z"/>
  <path class="cls-1" d="M1193.42,708.08v8.09c-.31,0-.61-.02-.92-.02.16-2.75-.85-5.52-.26-8.27.39.07.78.14,1.17.2Z"/>
  <path class="cls-1" d="M863.81,531.45v8.26c-.3.03-.61.06-.91.1-.11-1.59-.39-3.19-.28-4.76.08-1.18-2.63-3.15,1.19-3.59Z"/>
  <path class="cls-1" d="M880.94,377.6v8.1c-.31-.01-.61-.02-.92-.03.16-2.75-.85-5.52-.26-8.27.39.07.78.13,1.17.2Z"/>
  <path class="cls-1" d="M1077.13,858.41c.15,2.44.29,4.88.44,7.34-2.22-.78-2.79-4.01-.44-7.34Z"/>
  <path class="cls-1" d="M1059.8,831.58v8.97c-1.8-2.88-1.78-7.87,0-8.97Z"/>
  <path class="cls-1" d="M771.78,448.41c-1.87-4.26-1.68-7.49,0-8.44v8.44Z"/>
  <path class="cls-1" d="M954.92,560.94c.15,2.5.31,5.01.46,7.56-2.43-.91-3-4.26-.46-7.56Z"/>
  <path class="cls-1" d="M771.8,298.79v8.97c-1.8-2.9-1.77-7.88,0-8.97Z"/>
  <path class="cls-1" d="M969.89,428.5v8.61c-2.01-2.3-2-7.72,0-8.61Z"/>
  <path class="cls-1" d="M980.65,857.72v8.29h-1.12v-8.37c.37.03.74.05,1.12.08Z"/>
  <path class="cls-1" d="M969.8,462.94v8.98c-1.79-2.88-1.78-7.88,0-8.98Z"/>
  <path class="cls-1" d="M880.07,213.15c.2,2.47.4,4.95.6,7.47-2.37-.73-2.91-3.21-1.61-7.36.34-.04.67-.07,1.01-.11Z"/>
  <path class="cls-1" d="M996.41,730.15v9.03c-1.82-3.33-1.72-8.08,0-9.03Z"/>
  <path class="cls-1" d="M1189.53,595.54v8.72c-1.86-2.55-1.84-7.74,0-8.72Z"/>
  <path class="cls-1" d="M1198.86,641.69v8.75c-1.9-2.95-1.8-7.9,0-8.75Z"/>
  <path class="cls-1" d="M729.66,595.26c.18-2.75-.64-5.59.13-8.3.35.03.69.06,1.04.09v8.24c-.39-.01-.78-.02-1.17-.04Z"/>
  <path class="cls-1" d="M952.57,730.34v8.86c-1.91-3.56-1.71-8.18,0-8.86Z"/>
  <path class="cls-1" d="M1095.26,564.73v8.83c-1.82-3.93-1.67-8.19,0-8.83Z"/>
  <path class="cls-1" d="M976.32,392.67v8.23l-1.08-.02v-8.31c.36.03.72.06,1.08.09Z"/>
  <path class="cls-1" d="M1072.43,572.94c.12-2.76-.73-5.58.02-8.3.38.02.76.05,1.14.07v8.25c-.39,0-.77-.02-1.16-.02Z"/>
  <path class="cls-1" d="M980.22,800.46c.18-2.75-.64-5.59.13-8.3.35.03.69.06,1.04.09v8.24c-.39-.01-.78-.02-1.17-.04Z"/>
  <path class="cls-1" d="M1121.8,517.88v8.77c-1.89-3.11-1.75-7.99,0-8.77Z"/>
  <path class="cls-1" d="M1193.1,753.29v8.75c-1.9-2.95-1.8-7.9,0-8.75Z"/>
  <path class="cls-1" d="M987.73,631.17c-.14-2.72-.28-5.45-.42-8.17.46,0,.91,0,1.37,0v8.17c-.31,0-.63,0-.94,0Z"/>
  <path class="cls-1" d="M977.09,262.27v8.77c-1.88-3.03-1.77-7.96,0-8.77Z"/>
  <path class="cls-1" d="M880.69,465.41v8.09c-.32,0-.64,0-.96,0-.14-2.72-.28-5.45-.42-8.17.46.03.92.06,1.37.09Z"/>
  <path class="cls-1" d="M1194.22,649.99c-.57-2.8.26-5.51-.95-8.35.67.04,1.34.07,2,.11v8.26c-.35,0-.7-.01-1.06-.02Z"/>
  <path class="cls-1" d="M1190.61,649.99c.05-2.76-1-5.56-.2-8.3.38.01.77.02,1.15.03v8.29c-.32,0-.63-.02-.95-.02Z"/>
  <path class="cls-1" d="M1188.04,866.01c-1.92-4.37-1.68-7.54,0-8.27v8.27Z"/>
  <path class="cls-1" d="M1084.46,627.37v8.83c-1.82-3.93-1.67-8.19,0-8.83Z"/>
  <path class="cls-1" d="M1097.13,667.87c.17-2.71-.84-5.47-.18-8.16.42.01.84.02,1.26.04v8.16l-1.08-.04Z"/>
  <path class="cls-1" d="M734.85,713.39v-6.95c1.1.05,2.2.1,2.89.13-.76,2.34-1.5,4.59-2.23,6.83l-.66-.02Z"/>
  <path class="cls-1" d="M1094.59,659.68v8.71c-1.83-3.25-1.77-7.91,0-8.71Z"/>
  <path class="cls-1" d="M1064.25,564.58v8.72c-1.86-2.55-1.84-7.74,0-8.72Z"/>
  <path class="cls-1" d="M951.44,712.64v-8.34c.37,0,.73,0,1.1.01v8.33c-.37,0-.73,0-1.1,0Z"/>
  <path class="cls-1" d="M988.21,667.99v-8.34c.36.02.71.04,1.07.05v8.31c-.36,0-.71-.01-1.07-.02Z"/>
  <path class="cls-1" d="M1188.56,716.11c.19-2.71-.85-5.47-.17-8.16.42.01.84.03,1.26.04v8.15c-.36,0-.72-.02-1.09-.03Z"/>
  <path class="cls-1" d="M1189.53,753.23v8.74c-1.87-2.64-1.83-7.78,0-8.74Z"/>
  <path class="cls-2" d="M719.26,435.44h-33.39v-125.54h33.39v125.54Z"/>
  <path class="cls-2" d="M684.37,597.3v-88.75h34.96v88.75h-34.96Z"/>
  <path class="cls-2" d="M1227.91,351.81c1.76-2.68,4.34-4.33,7.27-2.87,1.83.92,3.46,3.18,4.16,5.19.85,2.45-.66,4.64-3,5.9-2.47,1.33-4.91,1.1-6.99-.77-2.31-2.07-2.87-4.6-1.43-7.45.47,1.5.94,3,1.51,4.84.79.08,1.97.29,3.14.29,2.06,0,3.32-.74,3.29-3.18-.03-2.59-1.59-2.56-3.35-2.42-1.54.12-3.07.32-4.6.49Z"/>
  <path class="cls-2" d="M1280.39,216.11c-.6,1.56,1.46,5.07-2.27,4.96-3.23-.1-1.71-3.31-2.01-5.22-.16-1.05-.29-2.25.07-3.2.35-.92,1.34-1.6,2.05-2.38.72.76,1.73,1.41,2.08,2.32.36.94.08,2.12.08,3.51Z"/>
  <path class="cls-2" d="M1298.46,216.32c-.93,1.63-1.87,4.66-2.8,4.65-3.64,0-1.89-3.26-2.27-5.22-.18-.92-.31-2.03.05-2.83.45-1,1.42-1.77,2.16-2.65.69.91,1.6,1.74,2.01,2.77.33.82.07,1.89.07,2.84.26.14.52.29.78.43Z"/>
  <path class="cls-2" d="M1263.03,261.1c.98-1.57,1.97-4.47,2.95-4.48,3.45,0,2.37,3.17,2.35,5.17-.03,1.97,1.17,5.33-2.36,5.22-3.61-.11-1.5-3.53-2.94-5.91Z"/>
  <path class="cls-2" d="M1286.09,262.11c-1.33,1.96-2.3,4.75-3.42,4.81-3.43.18-1.88-2.96-2.27-4.82-.02-.11-.03-.24,0-.36.45-1.93-1.29-5.26,2.33-5.11,1.08.04,2.03,3.2,3.35,5.47Z"/>
  <path class="cls-2" d="M1135.36,214.2h-4.62c-.48-2.15-.34-3.84,2.2-3.91,2.55-.06,2.81,1.65,2.42,3.91Z"/>
  <path class="cls-2" d="M1153.6,214.17h-5.86c.29-1.2.29-2.5.91-3.33.39-.52,2.08-.78,2.55-.39.91.76,1.38,2.05,2.39,3.71Z"/>
  <path class="cls-1" d="M1227.91,351.81c1.53-.17,3.07-.37,4.6-.49,1.76-.13,3.32-.16,3.35,2.42.03,2.45-1.22,3.19-3.29,3.18-1.17,0-2.35-.21-3.14-.29-.57-1.84-1.04-3.34-1.51-4.84,0,0-.02,0-.02,0ZM1230.18,354.94c.51.47,1.03.93,1.54,1.4.81-.77,1.82-1.44,2.32-2.37.15-.28-1.07-1.31-1.66-2-.73.99-1.46,1.98-2.2,2.98Z"/>
  <path class="cls-2" d="M1230.18,354.94c.73-.99,1.46-1.98,2.2-2.98.59.69,1.82,1.71,1.66,2-.51.94-1.51,1.6-2.32,2.37-.51-.47-1.03-.93-1.54-1.4Z"/>
</svg>