<?xml version="1.0" encoding="UTF-8"?>
<svg xmlns="http://www.w3.org/2000/svg" version="1.1" viewBox="0 0 1920 1080">
  <defs>
    <style>
      .cls-1, .cls-2 {
        fill: #000;
      }

      .cls-1, .cls-3 {
        stroke-width: 0px;
      }

      .cls-2 {
        font-family: MyriadPro-Regular, 'Myriad Pro';
        font-size: 60px;
      }

      .cls-3 {
        fill: #fff;
      }
    </style>
  </defs>
  <g id="Layer_1" data-name="Layer 1">
    <g>
      <path class="cls-3" d="M1500,1080H420V0c360,0,720,0,1080,0v1080ZM1255.92,463.32h-6.65c-23.76,0-47.52.06-71.28-.05-4.61-.02-6.41,1.74-6.37,6.36.14,16.02.06,32.04.06,48.06,0,2.27,0,4.54,0,7.2-2.61,0-4.55,0-6.5,0-22.32,0-44.64.05-66.96-.04-4.05-.02-6.51,1.01-6.5,5.66.08,21.42.07,42.84,0,64.26-.01,4.12,1.78,5.81,5.85,5.76,9-.11,18-.09,27,0,3.23.03,6-.63,5.97-4.4-.03-3.81-2.89-4.33-6.08-4.29-7.86.09-15.73.03-23.7.03v-57.89h41.76c0,20.22.02,40.01-.02,59.8,0,3.23.03,6.57,4.27,6.63,4.23.06,4.42-3.22,4.41-6.49-.04-18.18-.02-36.36-.02-54.54v-5.51h37.42v58.01c-6.66,0-12.97-.31-19.21.19-1.84.15-3.49,2.56-5.23,3.94,1.79,1.5,3.5,4.17,5.39,4.3,7.34.51,14.75.1,22.12.25,4.42.09,6.04-1.87,6-6.17-.13-13.14-.05-26.28-.05-39.42,0-6.97,0-13.95,0-21.41,2.63,0,4.74-.08,6.85.02,3.22.15,6.01-.58,6.01-4.35,0-3.81-2.84-4.37-6.04-4.33-7.87.09-15.73.03-23.76.03v-52.51h52.3v52.52c-2.21,0-4.4-.57-6.01.15-1.77.79-3.02,2.76-4.49,4.22,1.52,1.42,2.83,3.62,4.59,4.07,2.7.69,5.72.04,8.59.22,4.68.29,6.33-1.86,6.29-6.42-.14-16.38-.05-32.76-.05-49.14v-6.04c5.91,0,11.11-.16,16.3.05,4.56.18,6.6-1.61,6.43-6.29-.2-5.69-.05-11.4-.05-17.14h123.76v190.46h-157.23v-6.15c0-25.38-.02-50.76.02-76.14,0-3.25-.72-5.96-4.52-5.85-3.41.09-4.17,2.61-4.17,5.66.04,36.18.04,72.36,0,108.54,0,3.11.96,5.49,4.34,5.49,3.38,0,4.39-2.37,4.34-5.49-.09-5.53-.02-11.06-.02-16.76h157.28v60.94h-157.27c0-5.08-.06-9.9.02-14.72.05-3.27-.17-6.55-4.4-6.49-4.24.05-4.28,3.39-4.27,6.62.03,27.9.03,55.8,0,83.7,0,3.22,0,6.61,4.23,6.66,4.66.05,4.45-3.64,4.44-6.98-.03-18-.01-36-.01-54v-5.57h157.31v88.92h-157.31c0-2.22-.07-4.02.02-5.81.15-3.1-.86-5.52-4.27-5.56-3.38-.04-4.41,2.3-4.4,5.43.04,19.44-.08,38.88.2,58.32.03,1.77,2.54,3.51,3.9,5.27,1.52-1.78,4.29-3.51,4.35-5.33.41-11.33.2-22.67.21-34.01,0-2.99,0-5.97,0-8.79h157.36v60.04h-48.81c-36.54,0-73.08,0-109.62,0-7.19,0-7.56.39-7.57,7.74,0,5.94.06,11.88-.03,17.82-.05,3.05.76,5.57,4.18,5.66,3.79.1,4.57-2.6,4.51-5.86-.09-5.5-.02-11-.02-16.45h157.34v150.51h-158.42c0-5.62-.13-10.83.04-16.03.14-4.22-1.4-6.34-5.89-6.27-9.54.13-19.08-.1-28.61.17-1.79.05-4.07,1.37-5.11,2.83-.72,1.01-.29,3.96.68,4.79,1.3,1.09,3.62,1.26,5.51,1.29,8.16.12,16.33.05,24.73.05,0,4.85,0,9.33,0,13.82.02,6.79,1.66,8.42,8.59,8.42,53.1,0,106.2,0,159.3,0,7.95,0,8.16-.21,8.16-8.24,0-129.78,0-259.55,0-389.33,0-66.96-.02-133.92.05-200.87,0-4.57-.65-7.52-6.31-7.51-43.02.13-86.04.11-129.06.02-4.74-.01-6.37,2.02-6.21,6.51.2,5.54.05,11.09.05,17.3ZM608.15,474.11c3.11,0,5.79.54,8.09-.17,1.79-.55,3.1-2.65,4.62-4.06-1.47-1.46-2.71-3.69-4.46-4.21-2.44-.73-5.26-.18-8.18-.18v-51.85c2.59,0,4.89-.05,7.19.01,3.14.09,5.46-1.04,5.38-4.44-.08-3.41-2.52-4.36-5.61-4.23-2.27.1-4.55.02-6.9.02v-201.53h155.16v14.44c0,31.68.01,63.35-.02,95.03,0,3.49.21,6.95,4.8,6.62,3.74-.28,3.89-3.4,3.89-6.47-.04-37.08-.03-74.15-.03-111.23,0-5.58.31-11.19-.19-16.72-.15-1.69-2.52-3.18-3.87-4.76-1.53,1.59-3.88,2.95-4.38,4.82-.75,2.78-.19,5.92-.19,8.78h-155.23V46.8h155.23c0,3.57-.47,6.89.18,9.97.37,1.78,2.49,4.51,3.91,4.56,10.6.39,21.23.36,31.84.02,1.38-.04,3.7-2.63,3.72-4.06.02-1.43-2.07-3.32-3.68-4.21-1.24-.69-3.16-.16-4.78-.16-7.47,0-14.94,0-22.55,0,0-2.48,0-4.1,0-5.71q-.02-9.4-9.69-9.41c-51.83,0-103.67,0-155.5,0-7.2,0-7.6.41-7.6,7.71,0,44.64,0,89.27,0,133.91v6.34c-17.62,0-34.36.17-51.09-.08-7.55-.11-8.4,1.55-8.38,8.16.14,38.88.07,77.75.07,116.63,0,24.84,0,49.67,0,74.51,0,6.45.62,7.03,7.18,7.05,3.78.01,7.56,0,11.34,0h40.55v91.8c-18.1,0-35.89,0-53.67,0-7.19,0-7.56.38-7.56,7.75,0,45.36,0,90.71,0,136.07,0,6.85.53,7.38,7.39,7.38,59.03,0,118.07,0,177.1,0,7.35,0,7.74-.38,7.74-7.57,0-30.42,0-60.83,0-91.25v-5.94c12.47,0,24.16-.11,35.84.06,4.64.07,6.5-1.8,6.33-6.39-.2-5.39-.11-10.8-.03-16.2.05-3.13-1-5.47-4.38-5.45-3.41.02-4.37,2.42-4.31,5.53.1,4.45.02,8.9.02,13.82h-6.36c-39.24,0-78.47,0-117.71,0-1.44,0-3.22-.49-4.24.18-1.44.94-3.21,2.76-3.19,4.18.01,1.42,1.82,3.19,3.28,4.11,1.04.65,2.8.17,4.24.17,25.2,0,50.39,0,75.59,0h5.91v95.71h-67.69c0-1.84,0-3.27,0-4.7,0-24.66-.02-49.31.03-73.97,0-3.44-.64-6.44-4.77-6.12-3.74.29-3.93,3.37-3.93,6.44.05,24.3.03,48.59.03,72.89v5.58h-36.37v-95.83c2.84,0,5.49.51,7.79-.16,1.82-.54,3.22-2.53,4.8-3.88-1.59-1.53-2.93-3.79-4.82-4.4-2.37-.77-5.18-.19-7.89-.19v-47.53ZM941.77,747.74h38.75c0,15.3.03,30.22-.03,45.14-.01,3.14.37,6.1,4.16,6.21,4.2.12,4.55-3.03,4.54-6.37-.06-14.22-.03-28.44-.03-42.66v-5.69h65.88c0,6.51.06,12.76-.02,19.01-.04,3.12.98,5.48,4.36,5.47,3.41,0,4.36-2.4,4.32-5.51-.08-7.02-.04-14.04-.02-21.06.01-4.67-2.33-6.87-6.95-6.82-3.71.04-7.41,0-10.98,0v-25.92c4.93,0,9.48.41,13.89-.2,1.85-.25,3.4-2.66,5.09-4.08-1.66-1.45-3.21-3.97-5.01-4.16-5.34-.56-10.79.01-16.17-.27-5.11-.26-7.1,1.72-6.95,6.89.27,9.11.07,18.23.07,27.34h-51.57v-46.05h6.06c15.48,0,30.96-.03,46.44.02,3.12.01,5.48-.98,5.47-4.37-.01-3.41-2.41-4.39-5.52-4.32-3.78.1-7.56.02-11.34.02-13.63,0-27.25,0-41.03,0v-46.03h50.42c0,9.94-.15,19.47.12,28.99.06,2.01,1.16,5.15,2.61,5.75,5.39,2.21,5.82-3.92,8.54-6.2,1.06-.89,1.38-4.88.68-5.32-5.3-3.34-2.79-8.08-3.23-12.6h10.02c-.4.28-.8.56-1.2.84,1.44,2.15,2.89,4.3,4.33,6.44,2.09-1.78,5.61-3.29,6-5.39,1.1-5.89,1.15-12.02,1.04-18.04-.02-1.19-2.74-3.4-3.96-3.23-1.6.21-3.59,2.05-4.24,3.67-.74,1.82-.17,4.17-.17,6.85h-11.6c-.14-1.22-.27-1.9-.29-2.59q-.27-8.2-8.2-8.21c-17.46,0-34.92,0-52.38,0-6.95,0-7.47.5-7.47,7.3,0,33.3,0,66.6,0,99.89v6.2c-12.25,0-23.91,0-35.57,0-7.21,0-7.63.42-7.63,7.69,0,53.82,0,107.63,0,161.45,0,42.12.03,84.23-.04,126.35,0,4.13.68,6.96,5.75,6.95,40.14-.07,80.27-.06,120.41-.01,4.17,0,5.77-1.92,5.67-5.93-.13-5.4-.1-10.8,0-16.2.05-3.24-.68-6-4.48-5.89-3.8.11-4.29,3-4.21,6.17.11,4.26.03,8.52.03,12.79h-114.22v-88.93h113.14c0,2.26,0,4.21,0,6.16,0,13.68-.17,27.36.2,41.03.05,1.83,2.81,3.59,4.31,5.38,1.38-1.74,2.87-3.4,4.06-5.26.41-.64.07-1.76.07-2.66,0-34.02,0-68.04,0-102.05,0-1.08.42-2.45-.09-3.18-1.17-1.68-2.8-3.04-4.24-4.53-1.43,1.5-3.91,2.88-4.1,4.52-.56,4.8-.2,9.7-.2,14.56,0,12.19,0,24.37,0,36.73h-112.99v-83.64h112.82c.07,1.47.2,2.69.16,3.9-.1,3.26.13,6.55,4.37,6.52,4.24-.03,4.31-3.36,4.3-6.59-.04-20.7-.04-41.4,0-62.1,0-3.22,0-6.61-4.2-6.69-4.65-.08-4.48,3.59-4.47,6.95.04,14.4.02,28.8.02,43.2v5.61h-65.88c0-7.79-.06-15.31.03-22.82.04-3.23-.65-6-4.42-5.95-3.81.05-4.32,2.91-4.28,6.1.09,7.5.03,15,.03,22.6h-38.45v-30.96c10.32,0,20.23.2,30.1-.19,1.75-.07,3.39-2.65,5.09-4.07-1.66-1.46-3.1-3.63-5.02-4.19-2.49-.73-5.35-.18-8.05-.18-7.47,0-14.94,0-22.43,0v-53.62ZM893.9,73.44c-31,0-61.4,0-91.81,0-6.82,0-7.33.52-7.33,7.44,0,68.57,0,137.14,0,205.71,0,1.26-.45,2.88.16,3.7,1.04,1.41,2.77,3.21,4.19,3.2,1.42-.01,3.28-1.79,4.1-3.27.69-1.24.18-3.16.18-4.78,0-65.51,0-131.02,0-196.53v-6.49h90.33v229.7h-6.28c-27.9,0-55.79,0-83.69,0-1.08,0-2.16.05-3.24,0-3.05-.17-5.57.75-5.66,4.16-.1,3.79,2.61,4.52,5.86,4.51,29.16-.04,58.31-.02,87.47-.02,1.89,0,3.79,0,5.67,0v60.14h-90.45c0-12.36-.04-24.39.03-36.41.02-3.35-.37-6.48-4.56-6.34-3.79.12-4.16,3.1-4.14,6.23.07,12.96.16,25.92-.04,38.87-.07,4.83,1.67,6.87,6.6,6.69,6.76-.24,13.53-.06,20.32-.06,0,2.34.64,4.93-.1,5.41-7.15,4.67-3.58,11.72-3.91,17.65-.56,10.16-.16,20.38-.16,30.54h-15.12c0-12.62-.04-24.85.03-37.07.02-3.07-.79-5.54-4.2-5.64-3.39-.1-4.49,2.2-4.48,5.35.05,13.68.04,27.36,0,41.03,0,3.51,1.46,5.37,5.11,5.37,32.58-.01,65.15-.01,97.73,0,3.59,0,5.21-1.75,5.19-5.28-.04-6.48-.06-12.96.01-19.44.04-3.13-1.02-5.47-4.4-5.43-3.41.03-4.35,2.44-4.29,5.55.1,5.16.03,10.33.03,15.61h-66.54v-38.23h47.1c0,7.09-.29,13.91.2,20.67.13,1.74,2.75,3.29,4.22,4.93,1.4-1.53,3.95-3.02,4.02-4.6.38-9.52.3-19.07.07-28.61-.04-1.46-1.37-3.58-2.64-4.11-1.21-.51-3.15.58-4.71,1.13-1.12.4-2.14,1.55-3.21,1.56-13.62.11-27.24.07-41.19.07.12-2.51.21-4.37.3-6.47,21.4,0,42.26,0,63.12,0,7.61,0,8.97-1.38,8.97-9.11,0-103.31,0-206.61,0-309.92v-5.01c2.74-2.57,6.36-4.69,6.08-5.97-.52-2.39-3.3-4.29-6.08-7.47,0-3.87.01-9.44,0-15.02-.02-6.53-.6-7.13-7.1-7.13-31.32-.01-62.63,0-93.95,0-1.08,0-2.46-.39-3.18.13-1.44,1.04-3.51,2.56-3.54,3.92-.05,2.41.93,5.03,2.18,7.15.3.52,3.32-.47,5.06-.89,1.98-.48,3.93-1.59,5.89-1.6,26.82-.11,53.63-.08,80.45-.06,1.73,0,3.47.16,5.34.25v34.3ZM1008.37,388.8c-18.3,0-36.1.03-53.89-.03-3.12,0-6.11.34-6.25,4.11-.16,4.16,2.95,4.6,6.31,4.58,16.02-.06,32.03-.03,48.05-.03h5.57v43.97h-52.48c0-9.45.18-18.6-.15-27.73-.07-1.83-1.81-4.67-3.32-5.08-1.66-.45-4.06,1.16-5.91,2.25-.96.57-1.38,2-2.14,2.96-4.13,5.22-3.5,7.69,2.63,10.28v17.33h-10.76c1.53-4.03,2.99-7.22,3.9-10.56.4-1.46.22-3.72-.69-4.73-.93-1.04-3.79-1.88-4.54-1.26-2.89,2.38-6.71,4.34-6.08,9.3.38,3.01.06,6.11.07,9.17.03,6.43.62,7.03,7.2,7.03,24.66.01,49.31,0,73.97,0,6.86,0,7.38-.53,7.38-7.39,0-33.66,0-67.31,0-100.97v-6.12c11.78,0,22.91-.16,34.03.07,4.97.1,7.09-1.47,7.09-6.76-.1-94.85-.1-189.69,0-284.54,0-5.12-1.78-6.99-6.92-6.93-17.1.2-34.19.08-51.29.08-21.6,0-43.19.02-64.79-.03-3.28,0-6.45.19-6.6,4.35-.23,6.11-.35,12.26.15,18.34.13,1.55,2.79,2.88,4.29,4.31,1.38-1.56,3.42-2.91,3.96-4.72.69-2.31.4-5.01.12-7.5-.51-4.62,1.07-6.25,5.96-6.22,33.83.2,67.67.1,101.51.12,1.55,0,3.09.2,4.48.29v91.24c-3.76.79-9.07-1.33-9.13,4.52-.06,6.23,5.73,3.63,9.26,4.75v180c-10.86,0-21.44.27-32.01-.11-5.68-.2-9.64.69-9.01,7.67-21.02,0-41.53.01-62.03,0-3.59,0-7.45,1-9.8-3.27-.43-.77-2.79-1.21-3.84-.78-3.91,1.62-3.34,5.4-2.7,8.37.36,1.68,2.67,3.88,4.36,4.13,4,.61,8.15.2,12.36.2v25.93c-4.27,0-8.29-.47-12.1.21-1.8.32-3.22,2.84-4.81,4.36,1.58,1.35,3.03,3.63,4.76,3.88,4.06.58,8.25.19,12.39.19q8.73,0,8.75-8.73c0-8.55,0-17.1,0-25.53h52.69v45.06ZM1111.2,685.8c-4.22,0-7.95,0-11.68,0-7.37.01-7.75.37-7.75,7.56,0,74.16,0,148.31,0,222.47,0,1.08-.42,2.48.1,3.18,1.23,1.64,2.74,3.73,4.46,4.08,1.05.21,3.02-2.26,3.95-3.89.62-1.09.13-2.81.13-4.25,0-54.72,0-109.43,0-164.15v-6.27h88.56v6.83c0,56.7,0,113.39,0,170.09,0,1.26-.45,2.79.1,3.72,1.04,1.75,2.67,3.16,4.05,4.71,1.49-1.62,3.1-3.15,4.41-4.91.43-.58.07-1.75.07-2.65,0-64.08,0-128.15,0-192.23,0-.9.36-2.07-.07-2.65-1.32-1.75-2.94-3.27-4.44-4.88-1.37,1.56-3.44,2.93-3.95,4.73-.69,2.44-.17,5.21-.17,7.81h-88.29v-40.32h88.28c0,1.56.05,2.8-.01,4.03-.17,3.36.37,6.48,4.55,6.33,3.78-.13,4.13-3.11,4.13-6.24-.05-22.5-.08-45,.02-67.5.02-4.33-1.67-6.13-6.05-6.12-31.32.08-62.64.08-93.96,0-4.46-.01-6.03,1.99-5.92,6.24.16,6.84.09,13.68.02,20.52-.03,3.22.01,6.57,4.24,6.66,4.22.08,4.48-3.17,4.44-6.46-.08-6.03-.02-12.07-.02-17.97h88.19v51.1h-68.75c0-9.43-.04-18.43.02-27.42.02-3.24-.07-6.56-4.31-6.59-4.24-.03-4.4,3.26-4.37,6.52.06,9.13.02,18.26.02,27.93ZM523.67,982.54c0-2.18.56-4.36-.15-5.98-.78-1.78-2.73-3.05-4.17-4.55-1.44,1.5-3.58,2.77-4.13,4.54-.72,2.29-.19,4.98-.18,7.5.02,6.84.53,7.37,7.4,7.37,41.21,0,82.43,0,123.64,0,6.57,0,7.19-.6,7.19-7.04.01-26.28,0-52.55,0-78.83,0-30.06,0-60.11,0-90.17,0-7.19-.39-7.56-7.75-7.57-6.66,0-13.32.06-19.98-.03-3.05-.04-5.57.76-5.66,4.18-.1,3.79,2.6,4.56,5.86,4.51,6.22-.09,12.44-.02,18.61-.02v42.86h-120.69c0-6.96-.06-13.59.03-20.22.05-3.35-.37-6.48-4.56-6.34-3.78.13-4.14,3.1-4.13,6.23.04,34.91.04,69.83,0,104.74,0,3.26.13,6.55,4.36,6.53,4.24-.02,4.32-3.34,4.32-6.58-.04-23.04-.02-46.07-.02-69.11v-5.95h120.56v113.89h-120.57ZM825,551.88h6.37c21.23,0,42.46-.06,63.69.05,4.37.02,6.69-1.2,6.67-6.05-.12-20.51-.11-41.02-.01-61.54.02-4.44-1.95-6.03-6.21-5.95-8.09.16-16.19.1-24.29.02-3.16-.03-6.08.42-6.15,4.21-.08,4.22,3.11,4.51,6.42,4.48,7.11-.08,14.23-.02,21.28-.02v55.82h-40.76c0-19.56-.03-38.78.03-58.01,0-3.34-.36-6.48-4.55-6.35-3.79.12-4.15,3.09-4.14,6.22.06,17.45.03,34.91.03,52.36,0,1.91,0,3.82,0,5.72h-40.77v-55.76c7.95,0,15.64-.05,23.32.02,3.12.03,5.48-.97,5.47-4.36,0-3.38-2.39-4.36-5.5-4.33-8.64.07-17.28.16-25.91-.03-4.63-.1-6.38,1.77-6.35,6.37.13,20.15.14,40.3-.01,60.46-.04,4.8,1.6,6.95,6.56,6.72,5.31-.24,10.63-.06,15.92-.06v53.67h-43.82v-51.95c2.51-2.1,4.6-3.48,6.09-5.34.44-.55-.58-3.42-1.26-3.56-3.55-.71-7.3-1.45-10.79-.93-1.23.18-2.72,3.92-2.75,6.05-.23,16.73-.13,33.47-.13,50.2,0,1.89,0,3.78,0,5.88-4.6,0-8.44-.4-12.11.19-1.53.25-3.75,2.59-3.78,4.02-.03,1.44,2.13,3.11,3.63,4.29.67.53,2.09.12,3.17.12,21.05,0,42.1,0,63.16,0,6.98,0,7.49-.49,7.49-7.28.01-18.17,0-36.33,0-55.36ZM1091.76,1022.75c0,6.97.12,13.4-.04,19.83-.11,4.32,1.63,6.15,6.02,6.14,31.3-.08,62.61,0,93.91-.15,1.86,0,5.03-1.2,5.3-2.36.62-2.74.3-5.96-.63-8.64-.26-.74-5.31-1.11-5.88-.21-1.85,2.92-4.24,2.68-6.89,2.68-25.91-.02-51.81,0-77.72-.02-1.72,0-3.45-.15-5.17-.24v-36.47h6.03c28.07,0,56.13-.07,84.2.06,4.75.02,6.84-1.51,6.78-6.5-.18-16.73-.13-33.46-.02-50.19.03-4.37-1.77-6.14-6.11-6.05-7.73.16-15.47.1-23.21.02-3.12-.03-6.11.34-6.26,4.1-.16,4.15,2.93,4.64,6.3,4.59,6.76-.09,13.53-.03,20.16-.03v45.06h-37.37c0-2.05,0-3.81,0-5.57,0-14.03-.03-28.07.02-42.1.01-3.22-.63-6-4.43-5.93-3.81.07-4.39,2.93-4.25,6.11.1,2.33.02,4.68.02,7.02,0,13.44,0,26.87,0,40.42h-41.71v-45.01c8.68,0,16.94-.04,25.21.02,3.22.02,6.57,0,6.67-4.23.1-4.21-3.14-4.48-6.43-4.46-9.17.07-18.35,0-27.53.03-6.36.01-6.96.65-6.97,7.26-.01,18.89,0,37.78,0,56.67v9.52c-3.55,0-6.68-.51-9.52.19-1.73.43-3.01,2.71-4.5,4.16,1.5,1.43,2.8,3.64,4.56,4.1,2.69.7,5.7.18,9.46.18ZM763.24,465.48h-6.48c-38.52,0-77.03,0-115.55,0-1.44,0-3.16-.49-4.25.13-1.63.93-4.11,2.9-3.89,3.95.35,1.72,2.41,3.3,4.09,4.44.86.59,2.45.11,3.71.11,38.88,0,77.75,0,116.63,0h5.94c0,3.28,0,5.79,0,8.29,0,1.26.06,2.52-.01,3.78-.18,3.15.37,6.09,4.17,6.19,4.21.1,4.51-3.07,4.51-6.39-.03-49.31-.03-98.63,0-147.94,0-3.33-.32-6.49-4.52-6.38-3.79.1-4.18,3.06-4.17,6.2.05,20.34.03,40.67.03,61.01,0,1.91,0,3.82,0,6.12h-6.49c-38.7,0-77.39,0-116.09,0-1.26,0-2.85-.48-3.71.11-1.67,1.15-3.73,2.73-4.08,4.45-.21,1.05,2.27,3.02,3.9,3.94,1.09.62,2.81.13,4.25.13,38.7,0,77.39,0,116.09,0h5.92v51.84ZM938.4,138.24c0-16.34,0-31.81,0-47.27,0-1.26.45-2.78-.1-3.72-1.09-1.88-2.73-3.45-4.15-5.15-1.46,1.65-3.05,3.21-4.32,5-.43.6-.07,1.75-.07,2.65,0,70.87,0,141.75,0,212.62,0,.72.03,1.44,0,2.16-.13,3.15,1.18,5.78,4.42,5.17,1.66-.31,3.05-3.07,4.13-4.97.54-.95.1-2.47.1-3.72,0-49.11,0-98.22,0-147.32v-6.8c2.31,0,4.06,0,5.81,0,17.99,0,35.98,0,53.96,0,8.63,0,17.28.23,25.89-.2,1.74-.09,3.36-2.68,5.03-4.12-1.67-1.44-3.24-3.05-5.07-4.23-.76-.49-2.11-.08-3.19-.08-24.64,0-49.29,0-73.93,0h-8.51ZM1060.52,521.09c-1.48-5.88-2.09-12.18-4.64-17.55-4.45-9.4-11.01-17.64-21.7-20.23-6.3-1.53-13.22-2.19-19.58-1.28-5.78.82-12.4,2.99-16.54,6.83-15.56,14.44-30.24,29.82-45.28,44.81-2.22,2.21-4.03,4.35-1.05,7.21,3.02,2.9,5.08.73,7.2-1.4,13.34-13.38,26.71-26.74,40.07-40.11,14.35-14.35,36.39-11.39,47.49,5.32,7.82,11.77,3.78,33-5.37,42.18-12.32,12.37-24.68,24.71-37.03,37.05-2.17,2.17-4.96,4.23-1.76,7.56,3.18,3.31,5.34.76,7.57-1.47,11.95-11.98,23.73-24.13,35.94-35.84,9.44-9.05,13.88-19.83,14.67-33.07ZM523.95,816.48h6.2c24.06,0,48.13-.02,72.19.02,3.11,0,5.47-.96,5.48-4.33,0-3.37-2.35-4.36-5.46-4.35-27.3.04-54.59-.05-81.88.19-1.81.02-5.11,2.43-5.13,3.76-.05,3.98-2.53,9.02,2.33,11.71,1.17.65,4.04-1,5.63-2.23.79-.61.42-2.7.64-4.76ZM763.44,125.27c0,12.59.04,25.17-.02,37.76-.02,3.3.26,6.49,4.47,6.42,3.8-.06,4.23-2.98,4.22-6.14-.05-25.35-.05-50.71,0-76.06,0-3.16-.41-6.08-4.21-6.15-4.21-.08-4.5,3.1-4.48,6.41.06,12.59.02,25.17.02,37.76ZM1222.44,960.08c0,12.05.04,24.09-.03,36.14-.02,3.22.64,6,4.43,5.93,3.8-.07,4.27-2.93,4.26-6.11-.05-23.91-.05-47.83,0-71.74,0-3.14-.38-6.09-4.17-6.19-4.2-.11-4.54,3.04-4.52,6.37.07,11.87.03,23.73.03,35.6ZM1048.5,439.87c-1.57,1.37-3.65,2.34-3.87,3.62-.27,1.56.56,3.86,1.73,5.04,15.64,15.85,31.44,31.55,47.15,47.33,2.03,2.04,3.98,3.1,6.42.84,2.63-2.43,1.81-4.54-.47-6.8-15.79-15.7-31.51-31.48-47.28-47.2-.95-.95-2.14-1.65-3.67-2.82ZM897.28,574.87c-1.56,1.38-3.65,2.35-3.86,3.63-.26,1.56.58,3.85,1.75,5.03,15.64,15.85,31.44,31.55,47.15,47.33,2.03,2.04,3.98,3.08,6.42.82,2.63-2.44,1.78-4.54-.49-6.8-15.79-15.7-31.51-31.48-47.28-47.2-.95-.95-2.14-1.65-3.68-2.81ZM979.4,568.92c1.65-1.31,2.94-2.16,4.01-3.23,12.58-12.53,25.12-25.1,37.7-37.63,2.15-2.15,4.18-4.23,1.27-7.19-2.89-2.94-5.01-1.06-7.19,1.13-8.08,8.15-16.21,16.25-24.33,24.37-4.69,4.69-9.49,9.29-14,14.14-1.03,1.1-1.77,3.3-1.4,4.65.37,1.35,2.3,2.28,3.93,3.75Z"/>
      <path class="cls-1" d="M1255.92,463.32c0-6.21.15-11.76-.05-17.3-.16-4.5,1.47-6.52,6.21-6.51,43.02.09,86.04.11,129.06-.02,5.67-.02,6.32,2.94,6.31,7.51-.07,66.96-.05,133.92-.05,200.87,0,129.78,0,259.55,0,389.33,0,8.03-.21,8.24-8.16,8.24-53.1,0-106.2,0-159.3,0-6.92,0-8.57-1.63-8.59-8.42-.01-4.49,0-8.97,0-13.82-8.4,0-16.57.07-24.73-.05-1.89-.03-4.22-.2-5.51-1.29-.98-.82-1.41-3.78-.68-4.79,1.04-1.46,3.32-2.78,5.11-2.83,9.53-.27,19.08-.03,28.61-.17,4.49-.06,6.02,2.05,5.89,6.27-.17,5.2-.04,10.42-.04,16.03h158.42v-150.51h-157.34c0,5.45-.06,10.95.02,16.45.05,3.25-.72,5.96-4.51,5.86-3.42-.09-4.22-2.61-4.18-5.66.09-5.94.02-11.88.03-17.82,0-7.35.38-7.74,7.57-7.74,36.54,0,73.08,0,109.62,0h48.81v-60.04h-157.36c0,2.82,0,5.81,0,8.79,0,11.34.2,22.69-.21,34.01-.07,1.83-2.83,3.56-4.35,5.33-1.36-1.75-3.88-3.49-3.9-5.27-.28-19.44-.16-38.88-.2-58.32,0-3.13,1.02-5.47,4.4-5.43,3.41.04,4.42,2.45,4.27,5.56-.08,1.79-.02,3.59-.02,5.81h157.31v-88.92h-157.31v5.57c0,18-.02,36,.01,54,0,3.35.22,7.03-4.44,6.98-4.22-.05-4.24-3.44-4.23-6.66.04-27.9.03-55.8,0-83.7,0-3.23.04-6.57,4.27-6.62,4.23-.05,4.46,3.22,4.4,6.49-.08,4.82-.02,9.63-.02,14.72h157.27v-60.94h-157.28c0,5.7-.06,11.23.02,16.76.05,3.12-.96,5.49-4.34,5.49-3.38,0-4.35-2.37-4.34-5.49.04-36.18.04-72.36,0-108.54,0-3.05.76-5.57,4.17-5.66,3.79-.1,4.52,2.6,4.52,5.85-.04,25.38-.02,50.76-.02,76.14v6.15h157.23v-190.46h-123.76c0,5.74-.16,11.45.05,17.14.17,4.68-1.87,6.46-6.43,6.29-5.19-.2-10.39-.05-16.3-.05v6.04c0,16.38-.09,32.76.05,49.14.04,4.55-1.61,6.7-6.29,6.42-2.87-.18-5.89.47-8.59-.22-1.76-.45-3.08-2.65-4.59-4.07,1.48-1.46,2.72-3.43,4.49-4.22,1.62-.72,3.81-.15,6.01-.15v-52.52h-52.3v52.51c8.02,0,15.89.06,23.76-.03,3.2-.04,6.04.52,6.04,4.33,0,3.77-2.79,4.5-6.01,4.35-2.11-.1-4.22-.02-6.85-.02,0,7.46,0,14.44,0,21.41,0,13.14-.08,26.28.05,39.42.04,4.3-1.58,6.26-6,6.17-7.38-.15-14.78.26-22.12-.25-1.89-.13-3.6-2.8-5.39-4.3,1.74-1.38,3.4-3.79,5.23-3.94,6.24-.5,12.55-.19,19.21-.19v-58.01h-37.42v5.51c0,18.18-.02,36.36.02,54.54,0,3.27-.18,6.55-4.41,6.49-4.24-.06-4.28-3.4-4.27-6.63.04-19.79.02-39.58.02-59.8h-41.76v57.89c7.97,0,15.84.06,23.7-.03,3.19-.04,6.05.48,6.08,4.29.03,3.77-2.74,4.44-5.97,4.4-9-.08-18-.1-27,0-4.06.05-5.86-1.64-5.85-5.76.07-21.42.08-42.84,0-64.26-.02-4.65,2.45-5.67,6.5-5.66,22.32.09,44.64.04,66.96.04,1.95,0,3.89,0,6.5,0,0-2.65,0-4.93,0-7.2,0-16.02.09-32.04-.06-48.06-.04-4.62,1.76-6.38,6.37-6.36,23.76.12,47.52.05,71.28.05h6.65Z"/>
      <path class="cls-1" d="M608.15,474.11v47.53c2.71,0,5.52-.58,7.89.19,1.88.61,3.23,2.87,4.82,4.4-1.58,1.35-2.98,3.35-4.8,3.88-2.3.68-4.95.16-7.79.16v95.83h36.37v-5.58c0-24.3.02-48.59-.03-72.89,0-3.07.18-6.15,3.93-6.44,4.13-.32,4.78,2.68,4.77,6.12-.05,24.66-.03,49.31-.03,73.97,0,1.43,0,2.86,0,4.7h67.69v-95.71h-5.91c-25.2,0-50.39,0-75.59,0-1.44,0-3.2.49-4.24-.17-1.46-.92-3.27-2.69-3.28-4.11-.01-1.43,1.75-3.24,3.19-4.18,1.02-.67,2.8-.18,4.24-.18,39.24,0,78.47,0,117.71,0h6.36c0-4.92.07-9.37-.02-13.82-.07-3.11.9-5.51,4.31-5.53,3.38-.02,4.43,2.33,4.38,5.45-.08,5.4-.18,10.8.03,16.2.17,4.6-1.69,6.46-6.33,6.39-11.68-.17-23.37-.06-35.84-.06v5.94c0,30.42,0,60.83,0,91.25,0,7.19-.39,7.57-7.74,7.57-59.03,0-118.07,0-177.1,0-6.87,0-7.39-.52-7.39-7.38,0-45.36,0-90.71,0-136.07,0-7.37.37-7.75,7.56-7.75,17.78,0,35.57,0,53.67,0v-91.8h-40.55c-3.78,0-7.56.01-11.34,0-6.56-.02-7.17-.6-7.18-7.05-.01-24.84,0-49.67,0-74.51,0-38.88.07-77.75-.07-116.63-.02-6.61.83-8.27,8.38-8.16,16.73.24,33.47.08,51.09.08v-6.34c0-44.64,0-89.27,0-133.91,0-7.3.4-7.71,7.6-7.71,51.83,0,103.67,0,155.5,0q9.67,0,9.69,9.41c0,1.62,0,3.23,0,5.71,7.61,0,15.08,0,22.55,0,1.62,0,3.54-.53,4.78.16,1.61.89,3.69,2.78,3.68,4.21-.02,1.43-2.34,4.01-3.72,4.06-10.61.34-21.24.36-31.84-.02-1.41-.05-3.53-2.78-3.91-4.56-.65-3.08-.18-6.4-.18-9.97h-155.23v147.18h155.23c0-2.86-.55-6,.19-8.78.5-1.86,2.86-3.23,4.38-4.82,1.35,1.58,3.72,3.07,3.87,4.76.5,5.53.19,11.14.19,16.72,0,37.08-.02,74.15.03,111.23,0,3.07-.15,6.19-3.89,6.47-4.59.34-4.8-3.13-4.8-6.62.03-31.68.02-63.35.02-95.03v-14.44h-155.16v201.53c2.35,0,4.63.08,6.9-.02,3.09-.13,5.53.82,5.61,4.23.08,3.4-2.25,4.53-5.38,4.44-2.3-.07-4.6-.01-7.19-.01v51.85c2.92,0,5.74-.54,8.18.18,1.75.52,2.99,2.74,4.46,4.21-1.52,1.41-2.83,3.51-4.62,4.06-2.3.71-4.98.17-8.09.17ZM598.89,383.17v-188.51h-50.08v188.51h50.08ZM598.91,626.15v-133.24h-52.27v133.24h52.27Z"/>
      <path class="cls-1" d="M941.77,747.74v53.62c7.49,0,14.96,0,22.43,0,2.7,0,5.56-.55,8.05.18,1.92.56,3.37,2.74,5.02,4.19-1.69,1.42-3.34,4-5.09,4.07-9.88.4-19.78.19-30.1.19v30.96h38.45c0-7.6.06-15.1-.03-22.6-.04-3.18.47-6.05,4.28-6.1,3.77-.05,4.46,2.72,4.42,5.95-.09,7.51-.03,15.03-.03,22.82h65.88v-5.61c0-14.4.02-28.8-.02-43.2,0-3.36-.18-7.03,4.47-6.95,4.21.07,4.21,3.47,4.2,6.69-.04,20.7-.04,41.4,0,62.1,0,3.24-.06,6.56-4.3,6.59-4.24.03-4.48-3.26-4.37-6.52.04-1.21-.09-2.44-.16-3.9h-112.82v83.64h112.99c0-12.35,0-24.54,0-36.73,0-4.86-.35-9.76.2-14.56.19-1.64,2.67-3.02,4.1-4.52,1.44,1.49,3.07,2.85,4.24,4.53.51.73.09,2.1.09,3.18,0,34.02,0,68.04,0,102.05,0,.9.34,2.02-.07,2.66-1.19,1.86-2.69,3.52-4.06,5.26-1.5-1.79-4.26-3.55-4.31-5.38-.37-13.67-.2-27.35-.2-41.03,0-1.95,0-3.9,0-6.16h-113.14v88.93h114.22c0-4.27.08-8.53-.03-12.79-.08-3.16.41-6.05,4.21-6.17,3.8-.11,4.53,2.65,4.48,5.89-.09,5.4-.12,10.8,0,16.2.09,4.01-1.5,5.93-5.67,5.93-40.14-.05-80.27-.06-120.41.01-5.06,0-5.75-2.82-5.75-6.95.07-42.12.04-84.23.04-126.35,0-53.82,0-107.63,0-161.45,0-7.26.42-7.68,7.63-7.69,11.66,0,23.32,0,35.57,0v-6.2c0-33.3,0-66.6,0-99.89,0-6.8.52-7.3,7.47-7.3,17.46,0,34.92,0,52.38,0q7.94,0,8.2,8.21c.02.69.15,1.37.29,2.59h11.6c0-2.68-.57-5.03.17-6.85.65-1.61,2.64-3.45,4.24-3.67,1.22-.16,3.93,2.04,3.96,3.23.11,6.03.06,12.16-1.04,18.04-.39,2.1-3.91,3.61-6,5.39-1.44-2.15-2.89-4.3-4.33-6.44.4-.28.8-.56,1.2-.84h-10.02c.44,4.52-2.06,9.27,3.23,12.6.69.44.38,4.43-.68,5.32-2.72,2.28-3.15,8.41-8.54,6.2-1.45-.6-2.55-3.74-2.61-5.75-.27-9.52-.12-19.05-.12-28.99h-50.42v46.03c13.78,0,27.4,0,41.03,0,3.78,0,7.56.07,11.34-.02,3.11-.08,5.51.91,5.52,4.32.01,3.38-2.34,4.38-5.47,4.37-15.48-.05-30.96-.02-46.44-.02h-6.06v46.05h51.57c0-9.12.19-18.24-.07-27.34-.15-5.16,1.84-7.15,6.95-6.89,5.39.28,10.83-.29,16.17.27,1.79.19,3.34,2.7,5.01,4.16-1.69,1.43-3.24,3.83-5.09,4.08-4.41.6-8.96.2-13.89.2v25.92c3.56,0,7.27.03,10.98,0,4.62-.05,6.96,2.16,6.95,6.82-.02,7.02-.06,14.04.02,21.06.04,3.11-.91,5.51-4.32,5.51-3.38,0-4.4-2.35-4.36-5.47.08-6.25.02-12.5.02-19.01h-65.88v5.69c0,14.22-.04,28.44.03,42.66.01,3.34-.34,6.49-4.54,6.37-3.79-.11-4.17-3.07-4.16-6.21.06-14.92.03-29.84.03-45.14h-38.75Z"/>
      <path class="cls-1" d="M893.9,73.44v-34.3c-1.87-.09-3.6-.25-5.34-.25-26.82-.02-53.63-.05-80.45.06-1.96,0-3.91,1.11-5.89,1.6-1.74.42-4.75,1.41-5.06.89-1.25-2.12-2.23-4.74-2.18-7.15.03-1.36,2.1-2.88,3.54-3.92.72-.52,2.1-.13,3.18-.13,31.32,0,62.63,0,93.95,0,6.5,0,7.08.6,7.1,7.13.02,5.57,0,11.15,0,15.02,2.78,3.18,5.56,5.08,6.08,7.47.28,1.28-3.34,3.41-6.08,5.97v5.01c0,103.31,0,206.61,0,309.92,0,7.73-1.36,9.11-8.97,9.11-20.86,0-41.72,0-63.12,0-.1,2.09-.19,3.95-.3,6.47,13.95,0,27.57.04,41.19-.07,1.07,0,2.09-1.16,3.21-1.56,1.56-.55,3.5-1.64,4.71-1.13,1.27.53,2.6,2.65,2.64,4.11.23,9.53.31,19.08-.07,28.61-.06,1.58-2.62,3.07-4.02,4.6-1.47-1.64-4.09-3.19-4.22-4.93-.5-6.76-.2-13.58-.2-20.67h-47.1v38.23h66.54c0-5.27.07-10.44-.03-15.61-.06-3.1.88-5.52,4.29-5.55,3.38-.03,4.43,2.3,4.4,5.43-.08,6.48-.05,12.96-.01,19.44.02,3.53-1.61,5.28-5.19,5.28-32.58-.02-65.15-.02-97.73,0-3.65,0-5.12-1.87-5.11-5.37.04-13.68.04-27.36,0-41.03-.01-3.15,1.09-5.45,4.48-5.35,3.42.1,4.22,2.57,4.2,5.64-.07,12.22-.03,24.45-.03,37.07h15.12c0-10.16-.41-20.38.16-30.54.33-5.93-3.24-12.98,3.91-17.65.74-.48.1-3.07.1-5.41-6.79,0-13.56-.18-20.32.06-4.93.18-6.67-1.86-6.6-6.69.19-12.96.1-25.92.04-38.87-.02-3.13.35-6.1,4.14-6.23,4.19-.14,4.57,3,4.56,6.34-.07,12.03-.03,24.05-.03,36.41h90.45v-60.14c-1.88,0-3.77,0-5.67,0-29.16,0-58.31-.02-87.47.02-3.25,0-5.96-.72-5.86-4.51.09-3.41,2.6-4.33,5.66-4.16,1.08.06,2.16,0,3.24,0,27.9,0,55.79,0,83.69,0h6.28V82.42h-90.33v6.49c0,65.51,0,131.02,0,196.53,0,1.62.51,3.54-.18,4.78-.82,1.48-2.68,3.26-4.1,3.27-1.43.01-3.15-1.79-4.19-3.2-.61-.82-.16-2.44-.16-3.7,0-68.57,0-137.14,0-205.71,0-6.92.51-7.44,7.33-7.44,30.4,0,60.81,0,91.81,0Z"/>
      <path class="cls-1" d="M1008.37,388.8v-45.06h-52.69c0,8.43,0,16.98,0,25.53q0,8.71-8.75,8.73c-4.14,0-8.34.39-12.39-.19-1.74-.25-3.18-2.52-4.76-3.88,1.59-1.52,3.01-4.04,4.81-4.36,3.81-.68,7.83-.21,12.1-.21v-25.93c-4.21,0-8.36.41-12.36-.2-1.69-.26-4-2.46-4.36-4.13-.64-2.97-1.22-6.75,2.7-8.37,1.05-.43,3.41,0,3.84.78,2.35,4.27,6.21,3.27,9.8,3.27,20.5.02,41.01,0,62.03,0-.63-6.98,3.33-7.87,9.01-7.67,10.56.38,21.15.11,32.01.11v-180c-3.53-1.12-9.31,1.48-9.26-4.75.05-5.85,5.36-3.73,9.13-4.52V46.74c-1.39-.09-2.93-.29-4.48-.29-33.84-.02-67.67.08-101.51-.12-4.89-.03-6.47,1.6-5.96,6.22.27,2.49.57,5.19-.12,7.5-.54,1.81-2.58,3.16-3.96,4.72-1.5-1.43-4.16-2.77-4.29-4.31-.5-6.08-.37-12.23-.15-18.34.15-4.16,3.32-4.36,6.6-4.35,21.6.05,43.19.03,64.79.03,17.1,0,34.2.13,51.29-.08,5.13-.06,6.92,1.81,6.92,6.93-.1,94.85-.1,189.69,0,284.54,0,5.29-2.11,6.86-7.09,6.76-11.12-.23-22.25-.07-34.03-.07v6.12c0,33.66,0,67.31,0,100.97,0,6.86-.52,7.39-7.38,7.39-24.66,0-49.31,0-73.97,0-6.58,0-7.17-.6-7.2-7.03-.01-3.06.31-6.16-.07-9.17-.63-4.95,3.19-6.92,6.08-9.3.75-.62,3.61.23,4.54,1.26.91,1.01,1.09,3.27.69,4.73-.91,3.34-2.37,6.53-3.9,10.56h10.76v-17.33c-6.13-2.59-6.75-5.06-2.63-10.28.76-.96,1.18-2.39,2.14-2.96,1.85-1.09,4.25-2.71,5.91-2.25,1.51.41,3.25,3.25,3.32,5.08.34,9.13.15,18.28.15,27.73h52.48v-43.97h-5.57c-16.02,0-32.03-.03-48.05.03-3.36.01-6.47-.42-6.31-4.58.14-3.78,3.13-4.12,6.25-4.11,17.79.06,35.59.03,53.89.03Z"/>
      <path class="cls-1" d="M1111.2,685.8c0-9.67.04-18.8-.02-27.93-.02-3.26.14-6.55,4.37-6.52,4.24.03,4.33,3.35,4.31,6.59-.06,9-.02,17.99-.02,27.42h68.75v-51.1h-88.19c0,5.91-.05,11.94.02,17.97.04,3.29-.22,6.54-4.44,6.46-4.23-.08-4.27-3.43-4.24-6.66.07-6.84.14-13.68-.02-20.52-.1-4.25,1.46-6.25,5.92-6.24,31.32.08,62.64.08,93.96,0,4.38-.01,6.07,1.79,6.05,6.12-.1,22.5-.07,45-.02,67.5,0,3.12-.34,6.11-4.13,6.24-4.18.15-4.72-2.98-4.55-6.33.06-1.23.01-2.47.01-4.03h-88.28v40.32h88.29c0-2.6-.51-5.37.17-7.81.51-1.8,2.57-3.17,3.95-4.73,1.5,1.61,3.13,3.13,4.44,4.88.43.58.07,1.75.07,2.65,0,64.08,0,128.15,0,192.23,0,.9.36,2.07-.07,2.65-1.31,1.76-2.92,3.29-4.41,4.91-1.38-1.55-3.01-2.95-4.05-4.71-.55-.93-.1-2.46-.1-3.72,0-56.7,0-113.39,0-170.09v-6.83h-88.56v6.27c0,54.72,0,109.43,0,164.15,0,1.44.49,3.16-.13,4.25-.93,1.63-2.9,4.11-3.95,3.89-1.72-.35-3.23-2.44-4.46-4.08-.52-.69-.1-2.1-.1-3.18,0-74.16,0-148.31,0-222.47,0-7.19.38-7.55,7.75-7.56,3.73,0,7.46,0,11.68,0Z"/>
      <path class="cls-1" d="M523.67,982.54h120.57v-113.89h-120.56v5.95c0,23.04-.02,46.07.02,69.11,0,3.24-.08,6.56-4.32,6.58-4.24.02-4.37-3.28-4.36-6.53.03-34.91.04-69.83,0-104.74,0-3.13.35-6.1,4.13-6.23,4.19-.14,4.6,2.99,4.56,6.34-.09,6.63-.03,13.26-.03,20.22h120.69v-42.86c-6.18,0-12.4-.06-18.61.02-3.25.05-5.96-.72-5.86-4.51.09-3.41,2.6-4.22,5.66-4.18,6.66.09,13.32.02,19.98.03,7.36,0,7.75.37,7.75,7.57,0,30.06,0,60.11,0,90.17,0,26.28,0,52.55,0,78.83,0,6.44-.62,7.03-7.19,7.04-41.21,0-82.43,0-123.64,0-6.87,0-7.38-.53-7.4-7.37,0-2.52-.54-5.21.18-7.5.56-1.77,2.7-3.05,4.13-4.54,1.44,1.49,3.39,2.77,4.17,4.55.71,1.62.15,3.8.15,5.98Z"/>
      <path class="cls-1" d="M825,551.88c0,19.03,0,37.2,0,55.36,0,6.78-.52,7.27-7.49,7.28-21.05,0-42.1,0-63.16,0-1.08,0-2.5.41-3.17-.12-1.5-1.18-3.66-2.85-3.63-4.29.03-1.43,2.25-3.77,3.78-4.02,3.68-.59,7.51-.19,12.11-.19,0-2.1,0-3.99,0-5.88,0-16.73-.1-33.47.13-50.2.03-2.13,1.51-5.86,2.75-6.05,3.49-.52,7.24.22,10.79.93.69.14,1.71,3.01,1.26,3.56-1.5,1.86-3.58,3.23-6.09,5.34v51.95h43.82v-53.67c-5.29,0-10.62-.19-15.92.06-4.96.23-6.59-1.92-6.56-6.72.16-20.15.14-40.3.01-60.46-.03-4.6,1.73-6.47,6.35-6.37,8.63.19,17.27.1,25.91.03,3.11-.03,5.49.95,5.5,4.33,0,3.38-2.36,4.39-5.47,4.36-7.69-.08-15.38-.02-23.32-.02v55.76h40.77c0-1.89,0-3.8,0-5.72,0-17.45.03-34.91-.03-52.36-.01-3.13.36-6.1,4.14-6.22,4.19-.13,4.56,3,4.55,6.35-.05,19.22-.03,38.44-.03,58.01h40.76v-55.82c-7.05,0-14.17-.05-21.28.02-3.31.04-6.5-.26-6.42-4.48.07-3.8,2.99-4.25,6.15-4.21,8.1.09,16.2.14,24.29-.02,4.26-.08,6.24,1.5,6.21,5.95-.1,20.51-.11,41.02.01,61.54.03,4.85-2.3,6.08-6.67,6.05-21.23-.11-42.46-.05-63.69-.05h-6.37Z"/>
      <path class="cls-1" d="M1091.76,1022.75c-3.76,0-6.77.51-9.46-.18-1.76-.45-3.06-2.67-4.56-4.1,1.48-1.45,2.76-3.73,4.5-4.16,2.84-.7,5.98-.19,9.52-.19v-9.52c0-18.89,0-37.78,0-56.67,0-6.61.61-7.24,6.97-7.26,9.18-.02,18.35.04,27.53-.03,3.3-.02,6.53.24,6.43,4.46-.1,4.22-3.45,4.25-6.67,4.23-8.26-.06-16.53-.02-25.21-.02v45.01h41.71c0-13.55,0-26.99,0-40.42,0-2.34.08-4.68-.02-7.02-.14-3.18.45-6.04,4.25-6.11,3.8-.07,4.45,2.71,4.43,5.93-.06,14.03-.02,28.07-.02,42.1,0,1.76,0,3.52,0,5.57h37.37v-45.06c-6.63,0-13.4-.07-20.16.03-3.37.05-6.46-.44-6.3-4.59.14-3.77,3.14-4.14,6.26-4.1,7.74.08,15.47.14,23.21-.02,4.34-.09,6.14,1.68,6.11,6.05-.11,16.73-.15,33.46.02,50.19.05,4.99-2.03,6.52-6.78,6.5-28.07-.13-56.13-.06-84.2-.06h-6.03v36.47c1.72.08,3.45.23,5.17.24,25.91.02,51.81,0,77.72.02,2.65,0,5.04.24,6.89-2.68.57-.91,5.62-.53,5.88.21.93,2.68,1.25,5.89.63,8.64-.26,1.16-3.44,2.35-5.3,2.36-31.3.14-62.61.07-93.91.15-4.39.01-6.13-1.82-6.02-6.14.16-6.43.04-12.87.04-19.83Z"/>
      <path class="cls-1" d="M763.24,465.48v-51.84h-5.92c-38.7,0-77.39,0-116.09,0-1.44,0-3.16.49-4.25-.13-1.63-.92-4.11-2.89-3.9-3.94.35-1.72,2.4-3.3,4.08-4.45.86-.59,2.45-.11,3.71-.11,38.7,0,77.39,0,116.09,0h6.49c0-2.3,0-4.21,0-6.12,0-20.34.03-40.68-.03-61.01,0-3.14.37-6.1,4.17-6.2,4.2-.11,4.53,3.05,4.52,6.38-.03,49.31-.03,98.63,0,147.94,0,3.32-.3,6.49-4.51,6.39-3.8-.09-4.34-3.04-4.17-6.19.07-1.26.01-2.52.01-3.78,0-2.5,0-5.01,0-8.29h-5.94c-38.88,0-77.75,0-116.63,0-1.26,0-2.85.48-3.71-.11-1.68-1.14-3.74-2.72-4.09-4.44-.22-1.05,2.26-3.03,3.89-3.95,1.09-.62,2.81-.13,4.25-.13,38.52,0,77.03,0,115.55,0h6.48Z"/>
      <path class="cls-1" d="M938.4,138.24h8.51c24.64,0,49.29,0,73.93,0,1.08,0,2.42-.41,3.19.08,1.84,1.19,3.4,2.8,5.07,4.23-1.67,1.44-3.29,4.03-5.03,4.12-8.61.43-17.26.2-25.89.2-17.99,0-35.98,0-53.96,0-1.75,0-3.51,0-5.81,0v6.8c0,49.11,0,98.22,0,147.32,0,1.26.44,2.77-.1,3.72-1.07,1.9-2.47,4.66-4.13,4.97-3.24.61-4.55-2.02-4.42-5.17.03-.72,0-1.44,0-2.16,0-70.87,0-141.75,0-212.62,0-.9-.36-2.05.07-2.65,1.28-1.78,2.86-3.35,4.32-5,1.41,1.7,3.06,3.26,4.15,5.15.55.94.1,2.46.1,3.72,0,15.47,0,30.93,0,47.27Z"/>
      <path class="cls-1" d="M1060.52,521.09c-.78,13.24-5.23,24.02-14.67,33.07-12.21,11.71-24,23.86-35.94,35.84-2.23,2.23-4.38,4.78-7.57,1.47-3.2-3.32-.41-5.39,1.76-7.56,12.35-12.34,24.7-24.68,37.03-37.05,9.15-9.18,13.19-30.41,5.37-42.18-11.1-16.71-33.14-19.67-47.49-5.32-13.36,13.36-26.73,26.73-40.07,40.11-2.12,2.13-4.18,4.3-7.2,1.4-2.98-2.86-1.17-5,1.05-7.21,15.04-14.99,29.73-30.37,45.28-44.81,4.14-3.84,10.76-6.01,16.54-6.83,6.36-.91,13.28-.25,19.58,1.28,10.69,2.59,17.25,10.83,21.7,20.23,2.55,5.38,3.16,11.67,4.64,17.55Z"/>
      <path class="cls-1" d="M523.95,816.48c-.23,2.06.14,4.15-.64,4.76-1.58,1.24-4.46,2.88-5.63,2.23-4.86-2.69-2.38-7.72-2.33-11.71.02-1.33,3.31-3.74,5.13-3.76,27.29-.24,54.59-.15,81.88-.19,3.11,0,5.47.98,5.46,4.35,0,3.37-2.37,4.34-5.48,4.33-24.06-.04-48.13-.02-72.19-.02h-6.2Z"/>
      <path class="cls-1" d="M763.44,125.27c0-12.59.04-25.17-.02-37.76-.02-3.31.27-6.49,4.48-6.41,3.79.07,4.22,2.99,4.21,6.15-.05,25.35-.05,50.71,0,76.06,0,3.16-.42,6.08-4.22,6.14-4.21.07-4.49-3.12-4.47-6.42.06-12.59.02-25.17.02-37.76Z"/>
      <path class="cls-1" d="M1222.44,960.08c0-11.87.04-23.73-.03-35.6-.02-3.33.33-6.48,4.52-6.37,3.79.1,4.18,3.05,4.17,6.19-.05,23.91-.05,47.83,0,71.74,0,3.17-.46,6.04-4.26,6.11-3.8.07-4.45-2.71-4.43-5.93.06-12.05.03-24.09.03-36.14Z"/>
      <path class="cls-1" d="M1048.5,439.87c1.54,1.17,2.72,1.88,3.67,2.82,15.77,15.72,31.49,31.5,47.28,47.2,2.28,2.26,3.1,4.37.47,6.8-2.44,2.26-4.39,1.2-6.42-.84-15.71-15.78-31.51-31.48-47.15-47.33-1.16-1.18-1.99-3.48-1.73-5.04.22-1.28,2.3-2.24,3.87-3.62Z"/>
      <path class="cls-1" d="M897.28,574.87c1.54,1.17,2.73,1.87,3.68,2.81,15.77,15.72,31.49,31.5,47.28,47.2,2.27,2.26,3.12,4.36.49,6.8-2.43,2.26-4.39,1.22-6.42-.82-15.71-15.78-31.51-31.48-47.15-47.33-1.17-1.18-2.01-3.47-1.75-5.03.21-1.28,2.3-2.25,3.86-3.63Z"/>
      <path class="cls-1" d="M979.4,568.92c-1.63-1.46-3.56-2.39-3.93-3.75-.37-1.35.37-3.54,1.4-4.65,4.52-4.86,9.31-9.45,14-14.14,8.12-8.12,16.25-16.22,24.33-24.37,2.17-2.19,4.29-4.08,7.19-1.13,2.91,2.96.88,5.04-1.27,7.19-12.58,12.53-25.12,25.1-37.7,37.63-1.07,1.07-2.36,1.91-4.01,3.23Z"/>
      <path class="cls-3" d="M598.89,383.17h-50.08v-188.51h50.08v188.51Z"/>
      <path class="cls-3" d="M598.91,626.15h-52.27v-133.24h52.27v133.24Z"/>
    </g>
  </g>
  <g id="Text">
    <text class="cls-2" transform="translate(1131.25 84.87)"><tspan x="0" y="0">Seeley G. Mudd</tspan><tspan x="0" y="72">First Floor</tspan></text>
    <g>
      <path class="cls-3" d="M1210.78,191.3c63.65,0,127.3,0,190.96,0,0,63.65,0,127.3,0,190.96-63.65,0-127.3,0-190.96,0,0-63.65,0-127.3,0-190.96ZM1292.2,274.37c-.25.1-.44.18-.63.25-2.9.92-5.8,1.83-8.7,2.74-3.83,1.21-7.65,2.44-11.49,3.63-3.47,1.08-6.95,2.12-10.42,3.19-2.26.7-4.52,1.43-6.77,2.14-.19.06-.37.14-.68.27,4.38,1.44,8.62,2.85,12.88,4.23,4.26,1.37,8.52,2.75,12.81,4.04,4.36,1.31,12.35,3.84,12.81,4.17-1.2,2.32-2.42,4.64-3.62,6.96-1.2,2.31-2.43,4.61-3.56,6.97,2.36-1.16,4.67-2.36,6.97-3.56,2.32-1.21,4.64-2.43,7.06-3.69.5,1.47.92,2.89,1.37,4.31.45,1.41.9,2.82,1.35,4.23.45,1.43.89,2.87,1.34,4.3.45,1.43.91,2.86,1.36,4.28.45,1.41.89,2.82,1.33,4.23.45,1.43.89,2.86,1.34,4.3.44,1.43.88,2.87,1.33,4.3.44,1.41.88,2.82,1.33,4.23.45,1.42.92,2.84,1.38,4.26.65-1.6,1.17-3.19,1.69-4.79.52-1.61,1.04-3.22,1.56-4.83.52-1.61,1.04-3.22,1.56-4.83.51-1.59,1.01-3.18,1.52-4.77.52-1.61,1.04-3.22,1.56-4.83.52-1.61,1.04-3.22,1.55-4.83.51-1.61,1.01-3.23,1.54-4.84.52-1.59.99-3.21,1.59-4.85.66.35,1.24.65,1.82.95.58.3,1.17.59,1.75.89.58.3,1.16.61,1.75.91.58.3,1.17.6,1.75.9.58.3,1.16.61,1.74.92.58.3,1.16.6,1.74.91.58.3,1.15.63,1.74.91.57.28,1.1.65,1.84.89-2.54-4.77-5-9.4-7.5-14.11,12.87-4.09,25.68-8.06,38.41-12.32-2.57-.79-5.13-1.52-7.68-2.28-2.55-.76-5.09-1.55-7.63-2.35-2.56-.8-5.12-1.62-7.68-2.43-2.54-.8-5.08-1.59-7.61-2.4-2.53-.81-5.07-1.56-7.64-2.44.84-1.65,1.65-3.2,2.45-4.76.81-1.58,1.62-3.16,2.44-4.75.8-1.54,1.64-3.07,2.29-4.71-4.63,2.41-9.26,4.82-14,7.29-4.08-12.87-8.25-25.62-12.34-38.41-4.14,12.74-7.95,25.56-12.01,38.4-4.77-2.46-9.47-4.88-14.17-7.3-.03.03-.05.06-.08.09,2.41,4.63,4.82,9.26,7.29,13.99ZM1362.39,295.25c-.26.08-.42.12-.58.17-2.98.94-5.96,1.9-8.95,2.82-.4.12-.62.29-.72.67-.63,2.27-1.53,4.44-2.56,6.55-1.08,2.21-2.36,4.31-3.81,6.29-1.7,2.33-3.63,4.46-5.72,6.45-2.77,2.64-5.88,4.78-9.26,6.54-2.35,1.22-4.81,2.2-7.36,2.92-.4.11-.61.32-.73.74-.8,2.72-1.64,5.42-2.47,8.13-.11.37-.21.75-.34,1.23,11.57-2.04,21.29-7.32,29.21-15.8,7.04-7.54,11.48-16.45,13.3-26.73ZM1322.94,245.5c1.64.61,3.19,1.16,4.73,1.76,1.76.68,3.43,1.56,5.04,2.52,2.85,1.7,5.47,3.7,7.86,6,2.64,2.53,4.96,5.33,6.91,8.43,1.53,2.42,2.81,4.97,3.8,7.66.32.87.59,1.76.86,2.65.11.37.3.58.7.7,2.03.59,4.05,1.21,6.07,1.82,1.07.32,2.14.65,3.21.98.23-1.88-2.5-10.3-4.83-14.8-4.93-9.55-12.13-16.91-21.55-22.07-4.94-2.71-10.21-4.52-15.9-5.46,1.07,3.39,2.1,6.64,3.09,9.81ZM1260.23,295.43c.68,5.24,3.2,13.29,8.26,20.58,5.52,7.97,12.75,13.91,21.55,17.94,3.83,1.76,11.01,3.87,12.43,3.7-1.04-3.25-2.09-6.5-3.15-9.81,0,0-.08-.02-.16-.05-2.25-.7-4.44-1.52-6.56-2.54-3.59-1.73-6.86-3.94-9.85-6.57-2.01-1.76-3.79-3.75-5.43-5.86-1.57-2.03-2.95-4.19-4.13-6.47-1.19-2.29-2.18-4.68-2.89-7.16-.14-.49-.39-.73-.86-.88-2.66-.83-5.32-1.69-7.98-2.53-.39-.13-.8-.23-1.22-.35ZM1302.54,235.69c-7.44,1.31-14.21,3.97-20.39,8.11-7.64,5.11-13.38,11.9-17.51,20.07-2.23,4.41-3.79,9.06-4.62,14.06,3.42-1.07,6.72-2.1,10.04-3.14.25-.76.47-1.51.73-2.24,1.06-3.03,2.44-5.9,4.14-8.62,1.3-2.07,2.73-4.04,4.37-5.84,2.79-3.07,5.91-5.76,9.45-7.94,3.14-1.93,6.47-3.41,9.99-4.47.49-.15.74-.38.89-.84.6-1.87,1.23-3.74,1.83-5.61.36-1.12.7-2.26,1.09-3.52ZM1228.01,290.69s-.1,0-.15,0c-1.07-5.59-2.14-11.18-3.21-16.78h-4.94c1.96,8.57,3.9,17.09,5.85,25.63h4.54c1.55-5.89,3.1-11.74,4.64-17.6h.15c1.48,5.88,2.96,11.75,4.43,17.6h4.54c1.95-8.55,3.9-17.07,5.85-25.63h-4.94c-1.08,5.63-2.15,11.24-3.22,16.85-.04,0-.08,0-.12,0-1.6-5.63-3.2-11.26-4.8-16.86h-3.87c-1.59,5.61-3.18,11.2-4.77,16.79ZM1306.06,204.68s.09-.02.14-.03c.12.24.25.48.37.72,2.75,5.64,5.5,11.27,8.23,16.92.2.42.43.59.9.58,1.55-.03,3.1-.01,4.64-.01.2,0,.4-.01.59-.02v-25.61c-1.06-.12-4.08-.08-4.56.07v18.33s-.09.02-.13.04c-2.97-6.17-5.94-12.33-8.89-18.46-2.06-.1-5.35-.06-5.83.07v25.54c.97.12,4.08.08,4.54-.06v-18.04ZM1380.75,294.9c.02-1.98-.03-3.85.03-5.77h10.26v-4.66c-1.73,0-3.42,0-5.11,0-1.71,0-3.42,0-5.14,0v-5.92h12.17v-4.63h-16.99v25.61h16.97c.12-.88.08-4.12-.06-4.63h-12.14ZM1318.92,353.02c-.22-.15-.39-.28-.57-.39-1.08-.68-2.23-1.23-3.44-1.62-2.96-.95-5.93-.99-8.86.08-2.4.88-3.93,2.58-4.5,5.1-.23,1-.24,2.02-.16,3.04.22,2.82,1.74,4.73,4.42,5.61,1.52.5,3.09.73,4.65,1.02.91.17,1.83.38,2.69.7.92.34,1.46,1.06,1.5,2.09.04,1.02-.31,1.85-1.19,2.37-.5.3-1.07.55-1.63.66-3.22.61-6.18-.05-8.89-1.88-.19-.13-.37-.25-.59-.4-.74,1.33-1.46,2.62-2.2,3.95.19.16.34.31.52.42.86.5,1.69,1.07,2.59,1.47,2.89,1.27,5.92,1.56,9.03,1.13,1.37-.19,2.68-.61,3.87-1.35,1.59-.99,2.6-2.39,3.04-4.21.24-.98.28-1.97.2-2.97-.21-2.78-1.64-4.66-4.25-5.62-.75-.28-1.53-.5-2.31-.69-1.44-.36-2.89-.64-4.33-1.02-.5-.13-.98-.4-1.42-.69-1.29-.84-1.47-3.23.27-4.16.28-.15.57-.28.87-.38.96-.3,1.95-.37,2.95-.31,1.84.12,3.5.78,5.06,1.73.19.12.39.24.63.38.68-1.36,1.33-2.68,2.02-4.07Z"/>
      <path class="cls-1" d="M1292.2,274.37c-2.46-4.73-4.88-9.36-7.29-13.99.03-.03.05-.06.08-.09,4.7,2.42,9.4,4.84,14.17,7.3,4.05-12.84,7.87-25.66,12.01-38.4,4.09,12.8,8.26,25.55,12.34,38.41,4.74-2.47,9.37-4.88,14-7.29-.65,1.65-1.49,3.17-2.29,4.71-.82,1.58-1.63,3.16-2.44,4.75-.8,1.56-1.6,3.12-2.45,4.76,2.57.88,5.12,1.63,7.64,2.44,2.53.81,5.07,1.6,7.61,2.4,2.56.81,5.12,1.63,7.68,2.43,2.54.79,5.08,1.58,7.63,2.35,2.55.76,5.11,1.49,7.68,2.28-12.73,4.26-25.54,8.23-38.41,12.32,2.51,4.72,4.97,9.34,7.5,14.11-.74-.24-1.27-.61-1.84-.89-.59-.29-1.16-.61-1.74-.91-.58-.3-1.16-.6-1.74-.91-.58-.3-1.16-.61-1.74-.92-.58-.3-1.16-.6-1.75-.9-.58-.3-1.16-.61-1.75-.91-.58-.3-1.17-.59-1.75-.89-.58-.3-1.16-.6-1.82-.95-.6,1.64-1.06,3.25-1.59,4.85-.53,1.61-1.02,3.22-1.54,4.84-.51,1.61-1.03,3.22-1.55,4.83-.52,1.61-1.04,3.22-1.56,4.83-.51,1.59-1.01,3.18-1.52,4.77-.52,1.61-1.04,3.22-1.56,4.83-.52,1.61-1.04,3.22-1.56,4.83-.52,1.6-1.04,3.19-1.69,4.79-.46-1.42-.92-2.84-1.38-4.26-.45-1.41-.89-2.82-1.33-4.23-.45-1.43-.88-2.87-1.33-4.3-.44-1.43-.89-2.87-1.34-4.3-.44-1.41-.89-2.82-1.33-4.23-.45-1.43-.91-2.86-1.36-4.28-.45-1.43-.89-2.87-1.34-4.3-.45-1.41-.9-2.82-1.35-4.23-.45-1.42-.87-2.85-1.37-4.31-2.42,1.26-4.74,2.48-7.06,3.69-2.31,1.2-4.62,2.4-6.97,3.56,1.13-2.36,2.36-4.66,3.56-6.97,1.21-2.33,2.42-4.65,3.62-6.96-.46-.32-8.45-2.86-12.81-4.17-4.29-1.29-8.55-2.67-12.81-4.04-4.26-1.37-8.5-2.79-12.88-4.23.31-.12.49-.21.68-.27,2.26-.72,4.51-1.44,6.77-2.14,3.47-1.07,6.95-2.11,10.42-3.19,3.83-1.19,7.66-2.42,11.49-3.63,2.9-.92,5.8-1.83,8.7-2.74.2-.06.38-.15.63-.25ZM1303.74,281.4c-.06.06-.13.11-.18.18-1.03,1.56-1.57,3.26-1.57,5.14,0,2.18.67,4.13,2.05,5.8,1.83,2.2,4.18,3.39,7.08,3.4,2.84.02,5.19-1.08,7.04-3.2,1.37-1.56,2.1-3.39,2.2-5.48.09-1.74-.24-3.38-1.08-4.88-2.24-4.01-6.81-5.83-11.21-4.28-1.8.63-3.28,1.74-4.35,3.34h.02Z"/>
      <path class="cls-1" d="M1362.39,295.25c-1.82,10.27-6.26,19.18-13.3,26.73-7.92,8.48-17.63,13.76-29.21,15.8.13-.48.23-.86.34-1.23.83-2.71,1.67-5.41,2.47-8.13.13-.43.33-.63.73-.74,2.55-.73,5-1.7,7.36-2.92,3.38-1.76,6.49-3.89,9.26-6.54,2.09-2,4.02-4.12,5.72-6.45,1.45-1.99,2.73-4.08,3.81-6.29,1.03-2.11,1.93-4.28,2.56-6.55.11-.38.32-.55.72-.67,2.99-.92,5.97-1.87,8.95-2.82.16-.05.32-.09.58-.17Z"/>
      <path class="cls-1" d="M1322.94,245.5c-1-3.17-2.03-6.42-3.09-9.81,5.69.94,10.96,2.76,15.9,5.46,9.42,5.16,16.62,12.52,21.55,22.07,2.32,4.5,5.06,12.92,4.83,14.8-1.07-.33-2.14-.65-3.21-.98-2.02-.61-4.04-1.24-6.07-1.82-.4-.12-.59-.33-.7-.7-.27-.89-.54-1.78-.86-2.65-.99-2.69-2.27-5.24-3.8-7.66-1.95-3.1-4.28-5.89-6.91-8.43-2.39-2.3-5.01-4.3-7.86-6-1.62-.97-3.28-1.84-5.04-2.52-1.53-.6-3.09-1.15-4.73-1.76Z"/>
      <path class="cls-1" d="M1260.23,295.43c.42.12.82.22,1.22.35,2.66.85,5.31,1.71,7.98,2.53.48.15.72.39.86.88.72,2.48,1.7,4.87,2.89,7.16,1.18,2.28,2.56,4.44,4.13,6.47,1.64,2.11,3.43,4.1,5.43,5.86,2.99,2.62,6.26,4.83,9.85,6.57,2.12,1.02,4.31,1.85,6.56,2.54.08.02.16.05.16.05,1.06,3.31,2.11,6.56,3.15,9.81-1.42.18-8.6-1.94-12.43-3.7-8.8-4.03-16.03-9.97-21.55-17.94-5.06-7.3-7.57-15.35-8.26-20.58Z"/>
      <path class="cls-1" d="M1302.54,235.69c-.39,1.26-.73,2.4-1.09,3.52-.6,1.87-1.23,3.73-1.83,5.61-.15.46-.4.7-.89.84-3.52,1.06-6.85,2.54-9.99,4.47-3.55,2.18-6.66,4.88-9.45,7.94-1.64,1.8-3.08,3.77-4.37,5.84-1.7,2.72-3.08,5.6-4.14,8.62-.26.74-.48,1.48-.73,2.24-3.32,1.04-6.62,2.07-10.04,3.14.83-4.99,2.39-9.65,4.62-14.06,4.14-8.16,9.87-14.96,17.51-20.07,6.18-4.14,12.95-6.8,20.39-8.11Z"/>
      <path class="cls-1" d="M1228.01,290.69c1.59-5.59,3.18-11.18,4.77-16.79h3.87c1.59,5.6,3.19,11.23,4.8,16.86.04,0,.08,0,.12,0,1.07-5.61,2.14-11.21,3.22-16.85h4.94c-1.96,8.56-3.9,17.08-5.85,25.63h-4.54c-1.47-5.85-2.95-11.72-4.43-17.6h-.15c-1.54,5.86-3.09,11.71-4.64,17.6h-4.54c-1.95-8.54-3.9-17.06-5.85-25.63h4.94c1.07,5.6,2.14,11.19,3.21,16.78.05,0,.1,0,.15,0Z"/>
      <path class="cls-1" d="M1306.06,204.68v18.04c-.47.15-3.57.18-4.54.06v-25.54c.47-.13,3.77-.17,5.83-.07,2.95,6.13,5.92,12.3,8.89,18.46.04-.01.09-.02.13-.04v-18.33c.48-.15,3.51-.19,4.56-.07v25.61c-.19,0-.39.02-.59.02-1.55,0-3.1-.02-4.64.01-.47,0-.7-.16-.9-.58-2.73-5.64-5.48-11.28-8.23-16.92-.12-.24-.24-.48-.37-.72-.05.01-.09.02-.14.03Z"/>
      <path class="cls-1" d="M1380.75,294.9h12.14c.14.51.18,3.75.06,4.63h-16.97v-25.61h16.99v4.63h-12.17v5.92c1.72,0,3.43,0,5.14,0,1.69,0,3.38,0,5.11,0v4.66h-10.26c-.05,1.92,0,3.79-.03,5.77Z"/>
      <path class="cls-1" d="M1318.92,353.02c-.69,1.38-1.35,2.71-2.02,4.07-.24-.15-.44-.27-.63-.38-1.56-.95-3.22-1.61-5.06-1.73-1-.06-1.99,0-2.95.31-.3.1-.59.23-.87.38-1.74.92-1.56,3.31-.27,4.16.44.29.92.56,1.42.69,1.43.38,2.89.66,4.33,1.02.78.19,1.56.41,2.31.69,2.61.96,4.03,2.85,4.25,5.62.08,1,.03,1.99-.2,2.97-.44,1.82-1.46,3.22-3.04,4.21-1.19.74-2.5,1.16-3.87,1.35-3.11.43-6.14.15-9.03-1.13-.9-.4-1.73-.97-2.59-1.47-.18-.1-.32-.26-.52-.42.74-1.33,1.46-2.62,2.2-3.95.22.15.41.28.59.4,2.71,1.83,5.68,2.49,8.89,1.88.57-.11,1.13-.36,1.63-.66.88-.52,1.23-1.36,1.19-2.37-.05-1.03-.59-1.75-1.5-2.09-.87-.32-1.78-.54-2.69-.7-1.56-.29-3.13-.52-4.65-1.02-2.68-.88-4.2-2.78-4.42-5.61-.08-1.02-.06-2.03.16-3.04.57-2.52,2.11-4.22,4.5-5.1,2.93-1.08,5.9-1.03,8.86-.08,1.22.39,2.36.94,3.44,1.62.18.11.35.24.57.39Z"/>
      <path class="cls-3" d="M1303.73,281.41c1.08-1.6,2.55-2.71,4.35-3.34,4.4-1.55,8.97.27,11.21,4.28.84,1.51,1.17,3.15,1.08,4.88-.11,2.09-.84,3.92-2.2,5.48-1.86,2.12-4.2,3.22-7.04,3.2-2.9-.02-5.25-1.2-7.08-3.4-1.38-1.66-2.05-3.62-2.05-5.8,0-1.88.54-3.58,1.57-5.14.05-.07.12-.12.18-.18.1.22.14.51.31.64.22.17.26.35.26.59,0,2.03,0,4.07,0,6.1,0,.22,0,.41-.24.54-.32.17-.26.43-.14.72,3.02,0,6.03.02,9.04-.01,1.12-.01,1.98-.94,2-2.07.03-1.48,0-2.97,0-4.45,0-.44-.12-.84-.38-1.19-.46-.63-1.07-.91-1.86-.91-2.8.01-5.6,0-8.39,0-.21,0-.42.03-.63.04Z"/>
      <path class="cls-1" d="M1303.73,281.41c.21-.01.42-.04.63-.04,2.8,0,5.6,0,8.39,0,.78,0,1.4.28,1.86.91.26.35.38.75.38,1.19,0,1.48.02,2.97,0,4.45-.02,1.13-.88,2.06-2,2.07-3.01.03-6.02.01-9.04.01-.13-.29-.18-.55.14-.72.23-.13.24-.32.24-.54,0-2.03,0-4.07,0-6.1,0-.24-.04-.42-.26-.59-.17-.13-.21-.42-.31-.64,0,0-.02.02-.02.02ZM1307.25,282.48v6.26c.14.02.25.04.35.04,1.12,0,2.24.01,3.36,0,.68,0,.96-.28.96-.97,0-1.46.01-2.92,0-4.38,0-.67-.29-.95-.98-.96-.97-.01-1.95,0-2.92,0-.25,0-.5,0-.78,0Z"/>
      <path class="cls-3" d="M1307.25,282.48c.28,0,.53,0,.78,0,.97,0,1.95,0,2.92,0,.68,0,.97.29.98.96.01,1.46.01,2.92,0,4.38,0,.68-.28.96-.96.97-1.12.01-2.24,0-3.36,0-.1,0-.2-.02-.35-.04v-6.26Z"/>
    </g>
  </g>
</svg>